<svg width="159" height="43" viewBox="0 0 159 43" fill="none" xmlns="http://www.w3.org/2000/svg">
<path d="M1.00026 31.1562V38.0719H5.44113C5.44113 36.1602 6.98557 34.6141 8.89515 34.6141C10.8047 34.6141 12.3492 36.1602 12.3492 38.0719H15.3097C15.3097 36.1602 16.8542 34.6141 18.7638 34.6141C20.6733 34.6141 22.2178 36.1602 22.2178 38.0719H49.8499C49.8499 36.1602 51.3943 34.6141 53.3039 34.6141C55.2135 34.6141 56.7579 36.1602 56.7579 38.0719H59.7185C59.7185 36.1602 61.2629 34.6141 63.1725 34.6141C65.0821 34.6141 66.6265 36.1602 66.6265 38.0719H71.0674V31.1562H1.00026Z" stroke="#007B35" stroke-miterlimit="10"/>
<path d="M3.96049 8.43359H68.1064V31.1565H3.96049V8.43359Z" stroke="#007B35" stroke-miterlimit="10"/>
<path d="M78.9651 6.45703V31.1558H149.032V14.8546H138.67V6.45703H78.9651Z" stroke="#007B35" stroke-miterlimit="10"/>
<path d="M63.172 41.5289C61.2644 41.5289 59.718 39.9808 59.718 38.0711C59.718 36.1614 61.2644 34.6133 63.172 34.6133C65.0796 34.6133 66.626 36.1614 66.626 38.0711C66.626 39.9808 65.0796 41.5289 63.172 41.5289Z" stroke="#007B35" stroke-miterlimit="10"/>
<path d="M53.3048 41.5289C51.3972 41.5289 49.8507 39.9808 49.8507 38.0711C49.8507 36.1614 51.3972 34.6133 53.3048 34.6133C55.2124 34.6133 56.7588 36.1614 56.7588 38.0711C56.7588 39.9808 55.2124 41.5289 53.3048 41.5289Z" stroke="#007B35" stroke-miterlimit="10"/>
<path d="M18.7647 41.5289C16.8571 41.5289 15.3107 39.9808 15.3107 38.0711C15.3107 36.1614 16.8571 34.6133 18.7647 34.6133C20.6723 34.6133 22.2188 36.1614 22.2188 38.0711C22.2188 39.9808 20.6723 41.5289 18.7647 41.5289Z" stroke="#007B35" stroke-miterlimit="10"/>
<path d="M8.89462 41.5289C6.98701 41.5289 5.4406 39.9808 5.4406 38.0711C5.4406 36.1614 6.98701 34.6133 8.89462 34.6133C10.8022 34.6133 12.3486 36.1614 12.3486 38.0711C12.3486 39.9808 10.8022 41.5289 8.89462 41.5289Z" stroke="#007B35" stroke-miterlimit="10"/>
<path d="M3.9605 28.6855H68.1064" stroke="#007B35" stroke-miterlimit="10"/>
<path d="M3.9605 11.8906H68.1064" stroke="#007B35" stroke-miterlimit="10"/>
<path d="M61.0586 11.8906V28.1918" stroke="#007B35" stroke-miterlimit="10"/>
<path d="M58.5898 11.8906V28.1918" stroke="#007B35" stroke-miterlimit="10"/>
<path d="M149.028 25.2285H90.3115" stroke="#007B35" stroke-miterlimit="10"/>
<path d="M149.028 20.2891H90.3115" stroke="#007B35" stroke-miterlimit="10"/>
<path d="M51.543 11.8906V28.1918" stroke="#007B35" stroke-miterlimit="10"/>
<path d="M49.0742 11.8906V28.1918" stroke="#007B35" stroke-miterlimit="10"/>
<path d="M42.0283 11.8906V28.1918" stroke="#007B35" stroke-miterlimit="10"/>
<path d="M39.5596 11.8906V28.1918" stroke="#007B35" stroke-miterlimit="10"/>
<path d="M32.5088 11.8906V28.1918" stroke="#007B35" stroke-miterlimit="10"/>
<path d="M30.04 11.8906V28.1918" stroke="#007B35" stroke-miterlimit="10"/>
<path d="M22.9941 11.8906V28.1918" stroke="#007B35" stroke-miterlimit="10"/>
<path d="M20.5254 11.8906V28.1918" stroke="#007B35" stroke-miterlimit="10"/>
<path d="M13.4785 11.8906V28.1918" stroke="#007B35" stroke-miterlimit="10"/>
<path d="M11.0098 11.8906V28.1918" stroke="#007B35" stroke-miterlimit="10"/>
<path d="M97.2202 38.0723H130.773" stroke="#007B35" stroke-miterlimit="10"/>
<path d="M147.552 38.0719H151.993V31.1562H76.0049V38.0719H80.4458" stroke="#007B35" stroke-miterlimit="10"/>
<path d="M87.3529 38.0723H90.3135" stroke="#007B35" stroke-miterlimit="10"/>
<path d="M137.682 38.0723H140.643" stroke="#007B35" stroke-miterlimit="10"/>
<path d="M144.098 41.5289C142.19 41.5289 140.644 39.9808 140.644 38.0711C140.644 36.1614 142.19 34.6133 144.098 34.6133C146.005 34.6133 147.552 36.1614 147.552 38.0711C147.552 39.9808 146.005 41.5289 144.098 41.5289Z" stroke="#007B35" stroke-miterlimit="10"/>
<path d="M134.227 41.5289C132.319 41.5289 130.773 39.9808 130.773 38.0711C130.773 36.1614 132.319 34.6133 134.227 34.6133C136.134 34.6133 137.681 36.1614 137.681 38.0711C137.681 39.9808 136.134 41.5289 134.227 41.5289Z" stroke="#007B35" stroke-miterlimit="10"/>
<path d="M93.7667 41.5289C91.8591 41.5289 90.3127 39.9808 90.3127 38.0711C90.3127 36.1614 91.8591 34.6133 93.7667 34.6133C95.6743 34.6133 97.2207 36.1614 97.2207 38.0711C97.2207 39.9808 95.6743 41.5289 93.7667 41.5289Z" stroke="#007B35" stroke-miterlimit="10"/>
<path d="M83.8975 41.5289C81.9899 41.5289 80.4435 39.9808 80.4435 38.0711C80.4435 36.1614 81.9899 34.6133 83.8975 34.6133C85.8051 34.6133 87.3516 36.1614 87.3516 38.0711C87.3516 39.9808 85.8051 41.5289 83.8975 41.5289Z" stroke="#007B35" stroke-miterlimit="10"/>
<path d="M149.031 31.1557V23.7461H153.554L157.419 36.0955H151.991" stroke="#007B35" stroke-miterlimit="10"/>
<path d="M78.9634 9.915H74.5226V1.02344H143.109V9.915H138.669" stroke="#007B35" stroke-miterlimit="10"/>
<path d="M128.307 9.91406H138.669V14.8538H128.307V9.91406Z" stroke="#007B35" stroke-miterlimit="10"/>
<path d="M113.01 9.91406H123.372V14.8538H113.01V9.91406Z" stroke="#007B35" stroke-miterlimit="10"/>
<path d="M92.7793 9.91406H98.207V14.8538H92.7793V9.91406Z" stroke="#007B35" stroke-miterlimit="10"/>
<path d="M78.9632 9.91406H89.3252V14.8538H78.9632V9.91406Z" stroke="#007B35" stroke-miterlimit="10"/>
</svg>
