<svg width="37" height="53" viewBox="0 0 37 53" fill="none" xmlns="http://www.w3.org/2000/svg">
<path d="M30.4834 8.36328H34.3009C35.4925 8.36328 36.4586 9.32931 36.4586 10.521V49.3594C36.4586 50.5511 35.4925 51.5171 34.3009 51.5171H3.15769C1.96603 51.5171 1 50.5511 1 49.3594V10.521C1 9.32931 1.96603 8.36328 3.15769 8.36328H6.98118" stroke="#007B35" stroke-miterlimit="10"/>
<path d="M8.69141 22.1243L10.7652 24.1981L15.764 19.1992" stroke="#007B35" stroke-miterlimit="10"/>
<path d="M19.6494 21.9062H28.774" stroke="#007B35" stroke-miterlimit="10"/>
<path d="M8.69141 30.3626L10.7652 32.4364L15.764 27.4375" stroke="#007B35" stroke-miterlimit="10"/>
<path d="M19.6494 30.1445H28.774" stroke="#007B35" stroke-miterlimit="10"/>
<path d="M8.69141 38.6048L10.7652 40.6785L15.764 35.6797" stroke="#007B35" stroke-miterlimit="10"/>
<path d="M19.6494 38.3867H28.774" stroke="#007B35" stroke-miterlimit="10"/>
<path d="M27.9916 5.23047H9.47011C8.09512 5.23047 6.98047 6.34512 6.98047 7.72011V11.5677H30.4812V7.72011C30.4812 6.34512 29.3666 5.23047 27.9916 5.23047Z" stroke="#007B35" stroke-miterlimit="10"/>
<path d="M14.0156 5.23086C14.0156 2.62671 16.1267 0.515625 18.7309 0.515625C21.335 0.515625 23.4461 2.62671 23.4461 5.23086" stroke="#007B35" stroke-miterlimit="10"/>
</svg>
