<svg width="53" height="51" viewBox="0 0 53 51" fill="none" xmlns="http://www.w3.org/2000/svg">
<path d="M27.2705 21.9128H27.2705C19.5703 21.9128 13.3281 15.6707 13.3281 7.97052V0.515625H41.2128V7.97052C41.2128 15.6707 34.9706 21.9128 27.2705 21.9128Z" stroke="#007B35" stroke-miterlimit="10"/>
<path d="M41.2161 0.515625H49.6384V7.91359L38.2539 16.5623" stroke="#007B35" stroke-miterlimit="10"/>
<path d="M13.3286 0.515625H4.90625V7.91359L16.2907 16.5623" stroke="#007B35" stroke-miterlimit="10"/>
<path d="M25.0244 9.21039L26.5283 6.91016H27.3247V14.4339" stroke="#007B35" stroke-miterlimit="10"/>
<path d="M24.7383 14.4336H29.794" stroke="#007B35" stroke-miterlimit="10"/>
<path d="M41.2719 39.6406H13.2734V50.2254H41.2719V39.6406Z" stroke="#007B35" stroke-miterlimit="10"/>
<path d="M24.1729 44.9336H30.3758" stroke="#007B35" stroke-miterlimit="10"/>
<path d="M31.2556 34.1211H23.2886C20.24 34.1211 17.7686 36.5925 17.7686 39.6411V39.6411H36.7757V39.6411C36.7757 36.5925 34.3043 34.1211 31.2556 34.1211Z" stroke="#007B35" stroke-miterlimit="10"/>
<path d="M30.374 34.1212V21.6016" stroke="#007B35" stroke-miterlimit="10"/>
<path d="M24.1709 21.6016V34.1212" stroke="#007B35" stroke-miterlimit="10"/>
<path d="M43.833 20.25H52.5399" stroke="#007B35" stroke-miterlimit="10"/>
<path d="M40.8018 25.5H49.5086" stroke="#007B35" stroke-miterlimit="10"/>
<path d="M37.7705 30.75H46.4774" stroke="#007B35" stroke-miterlimit="10"/>
<path d="M8.70685 20.25H0" stroke="#007B35" stroke-miterlimit="10"/>
<path d="M11.7381 25.5H3.03125" stroke="#007B35" stroke-miterlimit="10"/>
<path d="M14.7693 30.75H6.0625" stroke="#007B35" stroke-miterlimit="10"/>
</svg>
