<svg width="59" height="59" viewBox="0 0 59 59" fill="none" xmlns="http://www.w3.org/2000/svg">
<path d="M26.8795 18.0335V18.0335C26.8795 19.3831 25.7854 20.4772 24.4358 20.4772H24.3282L24.3282 47.6544C24.3282 51.0243 21.6941 53.9164 18.3248 53.9819C14.889 54.0487 12.0777 51.2839 12.0777 47.8632V20.4772H11.97C10.6204 20.4772 9.52637 19.3831 9.52637 18.0335V18.0335C9.52637 16.6839 10.6204 15.5898 11.97 15.5898H24.4358C25.7854 15.5898 26.8795 16.6839 26.8795 18.0335Z" stroke="#007B35" stroke-miterlimit="10"/>
<path d="M12.0762 30.207H24.3267" stroke="#007B35" stroke-miterlimit="10"/>
<path d="M12.0762 35.5469H16.7885" stroke="#007B35" stroke-miterlimit="10"/>
<path d="M12.0762 40.3242H16.7885" stroke="#007B35" stroke-miterlimit="10"/>
<path d="M12.0762 45.1016H16.7885" stroke="#007B35" stroke-miterlimit="10"/>
<path d="M15.9172 11.9516C16.5489 11.9516 17.061 11.4395 17.061 10.8078C17.061 10.1761 16.5489 9.66406 15.9172 9.66406C15.2855 9.66406 14.7734 10.1761 14.7734 10.8078C14.7734 11.4395 15.2855 11.9516 15.9172 11.9516Z" fill="#007B35"/>
<path d="M20.4914 11.9516C21.1231 11.9516 21.6352 11.4395 21.6352 10.8078C21.6352 10.1761 21.1231 9.66406 20.4914 9.66406C19.8597 9.66406 19.3477 10.1761 19.3477 10.8078C19.3477 11.4395 19.8597 11.9516 20.4914 11.9516Z" fill="#007B35"/>
<path d="M15.9172 7.3774C16.5489 7.3774 17.061 6.86531 17.061 6.23362C17.061 5.60193 16.5489 5.08984 15.9172 5.08984C15.2855 5.08984 14.7734 5.60193 14.7734 6.23362C14.7734 6.86531 15.2855 7.3774 15.9172 7.3774Z" fill="#007B35"/>
<path d="M20.4914 7.3774C21.1231 7.3774 21.6352 6.86531 21.6352 6.23362C21.6352 5.60193 21.1231 5.08984 20.4914 5.08984C19.8597 5.08984 19.3477 5.60193 19.3477 6.23362C19.3477 6.86531 19.8597 7.3774 20.4914 7.3774Z" fill="#007B35"/>
<path d="M20.4914 2.80318C21.1231 2.80318 21.6352 2.29109 21.6352 1.6594C21.6352 1.02771 21.1231 0.515625 20.4914 0.515625C19.8597 0.515625 19.3477 1.02771 19.3477 1.6594C19.3477 2.29109 19.8597 2.80318 20.4914 2.80318Z" fill="#007B35"/>
<path d="M49.439 18.0335V18.0335C49.439 19.3831 48.345 20.4772 46.9954 20.4772H46.8878V47.6544C46.8878 51.0243 44.2536 53.9164 40.8843 53.9819C37.4485 54.0487 34.6372 51.2839 34.6372 47.8632V20.4772H34.5296C33.18 20.4772 32.0859 19.3831 32.0859 18.0335V18.0335C32.0859 16.6839 33.18 15.5898 34.5296 15.5898H46.9954C48.345 15.5898 49.439 16.6839 49.439 18.0335Z" stroke="#007B35" stroke-miterlimit="10"/>
<path d="M34.6367 30.207H46.8872" stroke="#007B35" stroke-miterlimit="10"/>
<path d="M34.6367 35.5469H39.3491" stroke="#007B35" stroke-miterlimit="10"/>
<path d="M34.6367 40.3242H39.3491" stroke="#007B35" stroke-miterlimit="10"/>
<path d="M34.6367 45.1016H39.3491" stroke="#007B35" stroke-miterlimit="10"/>
<path d="M44.8694 15.5866V12.5912C44.8694 12.077 44.4526 11.6602 43.9384 11.6602H37.5921C37.078 11.6602 36.6611 12.077 36.6611 12.5912V15.5866" stroke="#007B35" stroke-miterlimit="10"/>
<path d="M0 57.75H8.4774" stroke="#007B35" stroke-miterlimit="10"/>
<path d="M12.0781 26.1289H8.77281C6.22747 26.1289 4.16406 28.1923 4.16406 30.7377V57.751" stroke="#007B35" stroke-miterlimit="10"/>
<path d="M58.9667 57.75H50.4893" stroke="#007B35" stroke-miterlimit="10"/>
<path d="M46.8877 26.1289H50.193C52.7383 26.1289 54.8017 28.1923 54.8017 30.7377V57.751" stroke="#007B35" stroke-miterlimit="10"/>
<path d="M34.6367 26.1289H24.0117" stroke="#007B35" stroke-miterlimit="10"/>
</svg>
