<svg width="56" height="56" viewBox="0 0 56 56" fill="none" xmlns="http://www.w3.org/2000/svg">
<path d="M13.5674 4.77228C25.1537 -2.63767 40.706 -0.214433 49.4406 10.8031C57.0297 20.3792 57.131 33.4849 50.5548 43.0531" stroke="#007B35" stroke-miterlimit="10"/>
<path d="M5.76749 12.3086C-0.808742 21.8691 -0.715242 34.9826 6.88171 44.5508C15.6163 55.5684 31.153 57.9916 42.7471 50.5816" stroke="#007B35" stroke-miterlimit="10"/>
<path d="M26.462 34.0337C26.462 38.2449 23.0481 41.6587 18.8369 41.6587C14.6258 41.6587 11.2119 38.2449 11.2119 34.0337C11.2119 27.4979 18.8369 21.4766 18.8369 21.4766C18.8369 21.4766 26.462 27.4979 26.462 34.0337Z" stroke="#007B35" stroke-miterlimit="10"/>
<path d="M26.462 34.0337C26.462 38.2449 23.0481 41.6587 18.8369 41.6587C14.6258 41.6587 11.2119 38.2449 11.2119 34.0337C11.2119 27.4979 18.8369 21.4766 18.8369 21.4766C18.8369 21.4766 26.462 27.4979 26.462 34.0337Z" stroke="#007B35" stroke-miterlimit="10"/>
<path d="M15.5713 34.0357C15.5713 31.8666 17.2078 29.4121 18.8394 27.543" stroke="#007B35" stroke-miterlimit="10"/>
<path d="M43.8048 24.5649C43.8048 28.7761 40.3909 32.1899 36.1797 32.1899C31.9685 32.1899 28.5547 28.7761 28.5547 24.5649C28.5547 18.0292 36.1797 12.0078 36.1797 12.0078C36.1797 12.0078 43.8048 18.0292 43.8048 24.5649Z" stroke="#007B35" stroke-miterlimit="10"/>
<path d="M43.8048 24.5649C43.8048 28.7761 40.3909 32.1899 36.1797 32.1899C31.9685 32.1899 28.5547 28.7761 28.5547 24.5649C28.5547 18.0292 36.1797 12.0078 36.1797 12.0078C36.1797 12.0078 43.8048 18.0292 43.8048 24.5649Z" stroke="#007B35" stroke-miterlimit="10"/>
<path d="M32.9131 24.5669C32.9131 22.3978 34.5496 19.9434 36.1812 18.0742" stroke="#007B35" stroke-miterlimit="10"/>
<path d="M47.2298 47.2148L44.9708 53.3812L40.7109 48.0092L47.2298 47.2148Z" stroke="#007B35" stroke-miterlimit="10"/>
<path d="M15.6076 7.34498L9.08594 8.13975L11.3456 1.96875L13.5662 4.77366L15.6076 7.34498Z" stroke="#007B35" stroke-miterlimit="10"/>
</svg>
