<svg width="120" height="44" viewBox="0 0 120 44" fill="none" xmlns="http://www.w3.org/2000/svg">
<path d="M11.5889 43.3087C13.9745 43.3087 15.9083 41.3749 15.9083 38.9893C15.9083 36.6038 13.9745 34.6699 11.5889 34.6699C9.20339 34.6699 7.26953 36.6038 7.26953 38.9893C7.26953 41.3749 9.20339 43.3087 11.5889 43.3087Z" stroke="#007B35" stroke-miterlimit="10"/>
<path d="M92.5295 1.24219H3.13672V33.1682H92.5295V1.24219Z" stroke="#007B35" stroke-miterlimit="10"/>
<path d="M92.5295 24.9043H3.13672V33.1675H92.5295V24.9043Z" stroke="#007B35" stroke-miterlimit="10"/>
<path d="M97.4141 1.24219H99.2921L104.175 4.99819H97.4141V1.24219Z" stroke="#007B35" stroke-miterlimit="10"/>
<path d="M11.5886 40.6812C12.5221 40.6812 13.2788 39.9245 13.2788 38.991C13.2788 38.0575 12.5221 37.3008 11.5886 37.3008C10.6552 37.3008 9.89844 38.0575 9.89844 38.991C9.89844 39.9245 10.6552 40.6812 11.5886 40.6812Z" stroke="#007B35" stroke-miterlimit="10"/>
<path d="M22.1036 43.3087C24.4891 43.3087 26.423 41.3749 26.423 38.9893C26.423 36.6038 24.4891 34.6699 22.1036 34.6699C19.718 34.6699 17.7842 36.6038 17.7842 38.9893C17.7842 41.3749 19.718 43.3087 22.1036 43.3087Z" stroke="#007B35" stroke-miterlimit="10"/>
<path d="M22.1043 40.6812C23.0377 40.6812 23.7945 39.9245 23.7945 38.991C23.7945 38.0575 23.0377 37.3008 22.1043 37.3008C21.1708 37.3008 20.4141 38.0575 20.4141 38.991C20.4141 39.9245 21.1708 40.6812 22.1043 40.6812Z" stroke="#007B35" stroke-miterlimit="10"/>
<path d="M32.6202 43.3087C35.0057 43.3087 36.9396 41.3749 36.9396 38.9893C36.9396 36.6038 35.0057 34.6699 32.6202 34.6699C30.2346 34.6699 28.3008 36.6038 28.3008 38.9893C28.3008 41.3749 30.2346 43.3087 32.6202 43.3087Z" stroke="#007B35" stroke-miterlimit="10"/>
<path d="M32.6199 40.6812C33.5534 40.6812 34.3101 39.9245 34.3101 38.991C34.3101 38.0575 33.5534 37.3008 32.6199 37.3008C31.6864 37.3008 30.9297 38.0575 30.9297 38.991C30.9297 39.9245 31.6864 40.6812 32.6199 40.6812Z" stroke="#007B35" stroke-miterlimit="10"/>
<path d="M83.3272 43.3087C85.7128 43.3087 87.6466 41.3749 87.6466 38.9893C87.6466 36.6038 85.7128 34.6699 83.3272 34.6699C80.9417 34.6699 79.0078 36.6038 79.0078 38.9893C79.0078 41.3749 80.9417 43.3087 83.3272 43.3087Z" stroke="#007B35" stroke-miterlimit="10"/>
<path d="M83.3269 40.6812C84.2604 40.6812 85.0171 39.9245 85.0171 38.991C85.0171 38.0575 84.2604 37.3008 83.3269 37.3008C82.3935 37.3008 81.6367 38.0575 81.6367 38.991C81.6367 39.9245 82.3935 40.6812 83.3269 40.6812Z" stroke="#007B35" stroke-miterlimit="10"/>
<path d="M106.237 43.3087C108.623 43.3087 110.557 41.3749 110.557 38.9893C110.557 36.6038 108.623 34.6699 106.237 34.6699C103.852 34.6699 101.918 36.6038 101.918 38.9893C101.918 41.3749 103.852 43.3087 106.237 43.3087Z" stroke="#007B35" stroke-miterlimit="10"/>
<path d="M106.237 40.6812C107.171 40.6812 107.927 39.9245 107.927 38.991C107.927 38.0575 107.171 37.3008 106.237 37.3008C105.304 37.3008 104.547 38.0575 104.547 38.991C104.547 39.9245 105.304 40.6812 106.237 40.6812Z" stroke="#007B35" stroke-miterlimit="10"/>
<path d="M112.062 4.99805L117.321 10.2564V27.1584H97.4141V4.99805H112.062Z" stroke="#007B35" stroke-miterlimit="10"/>
<path d="M110.504 7.25195L114.443 11.3085V18.8956H103.422V7.25195H110.504Z" stroke="#007B35" stroke-miterlimit="10"/>
<path d="M103.422 18.8945V27.1577" stroke="#007B35" stroke-miterlimit="10"/>
<path d="M106.427 21.5254V24.5302" stroke="#007B35" stroke-miterlimit="10"/>
<path d="M42.574 36.1737H35.893C35.1013 35.2502 33.9271 34.6696 32.6209 34.6696C31.3147 34.6696 30.1404 35.2502 29.3488 36.1737H25.3774C24.5857 35.2502 23.4115 34.6696 22.1053 34.6696C20.7947 34.6696 19.6248 35.2502 18.8332 36.1737H14.8618C14.0701 35.2502 12.8959 34.6696 11.5853 34.6696C10.2791 34.6696 9.1048 35.2502 8.31316 36.1737H3.13672V33.1699H119.195V36.1737H109.511C108.719 35.2502 107.545 34.6696 106.239 34.6696C104.928 34.6696 103.758 35.2502 102.967 36.1737H86.5974C85.8058 35.2502 84.6359 34.6696 83.3253 34.6696C82.0191 34.6696 80.8448 35.2502 80.0532 36.1737H66.2368" stroke="#007B35" stroke-miterlimit="10"/>
<path d="M97.4141 26.7832V33.1684" stroke="#007B35" stroke-miterlimit="10"/>
<path d="M119.198 33.1678V29.4118L117.32 27.1582" stroke="#007B35" stroke-miterlimit="10"/>
<path d="M119.196 30.9142H115.44V27.1582" stroke="#007B35" stroke-miterlimit="10"/>
<path d="M66.238 33.168H42.5752V38.4264H66.238V33.168Z" stroke="#007B35" stroke-miterlimit="10"/>
<path d="M67.3643 39.9297H71.4959" stroke="#007B35" stroke-miterlimit="10"/>
<path d="M69.4307 39.9288V33.168" stroke="#007B35" stroke-miterlimit="10"/>
<path d="M1.07031 39.1797H5.20191" stroke="#007B35" stroke-miterlimit="10"/>
<path d="M3.13574 39.1788V32.418" stroke="#007B35" stroke-miterlimit="10"/>
<path d="M0.835938 30.0925L3.13649 28.4023V33.1678H0.835938V30.0925Z" stroke="#007B35" stroke-miterlimit="10"/>
<path d="M26.5088 24.905V1.24219" stroke="#007B35" stroke-miterlimit="10"/>
<path d="M22.1104 24.905V1.24219" stroke="#007B35" stroke-miterlimit="10"/>
<path d="M49.9814 24.905V1.24219" stroke="#007B35" stroke-miterlimit="10"/>
<path d="M45.583 24.905V1.24219" stroke="#007B35" stroke-miterlimit="10"/>
<path d="M73.4531 24.905V1.24219" stroke="#007B35" stroke-miterlimit="10"/>
<path d="M69.0547 24.905V1.24219" stroke="#007B35" stroke-miterlimit="10"/>
</svg>
