<svg width="64" height="56" viewBox="0 0 64 56" fill="none" xmlns="http://www.w3.org/2000/svg">
<path fill-rule="evenodd" clip-rule="evenodd" d="M0 55.1818L31.8586 0L63.7189 55.1818H0Z" fill="#007B35"/>
<path fill-rule="evenodd" clip-rule="evenodd" d="M32.3121 14.6719L23.7734 28.7159C26.737 26.8814 34.218 26.0346 40.2878 28.2925L32.3121 14.6719ZM28.3606 36.9724C29.2074 36.9724 41.347 38.7372 41.9812 33.8677C41.4865 27.0225 21.0207 28.5035 20.174 36.0558C19.9615 37.8905 22.1497 40.8556 26.2422 41.4898L28.3606 36.9724ZM33.5837 49.5354C39.2302 48.6887 44.7339 43.9603 44.0284 37.1848C43.0405 37.6082 37.6763 41.4201 30.265 39.9375L28.9949 42.6188C28.8554 43.0422 32.8067 43.678 35.9114 43.5369L33.5837 49.5354ZM20.5275 42.4777C20.5973 44.455 24.6201 49.8874 30.054 49.3229C30.265 48.4762 30.831 47.6294 31.1831 46.3593C28.5018 45.5126 27.2317 46.5718 20.5275 42.4777ZM32.5943 9.87219C38.4516 19.4003 41.8402 25.8221 45.7916 33.5854C48.6854 39.3017 46.2165 47.4883 39.3697 50.8768C27.3014 56.3822 12.9751 47.6294 17.6322 34.3608C21.0905 26.3866 27.5139 17.4246 32.5943 9.87219Z" fill="white"/>
</svg>
