<svg width="47" height="48" viewBox="0 0 47 48" fill="none" xmlns="http://www.w3.org/2000/svg">
<path d="M37.913 32.5221H29.728V28.1836L23.3594 37.7212L29.728 47.2576V42.9191H35.2213C39.5183 42.9191 41.8304 38.4708 41.9695 38.1924L41.9768 38.179" stroke="#007B35" stroke-miterlimit="10" stroke-linecap="round" stroke-linejoin="round"/>
<path d="M44.903 33.5053L41.5758 38.8688L32.3594 22.9049L41.3635 17.707L45.0718 24.1295C46.7552 27.0452 46.6903 30.6522 44.903 33.5053Z" stroke="#007B35" stroke-miterlimit="10" stroke-linecap="round" stroke-linejoin="round"/>
<path d="M37.6523 24.695L40.514 23.043" stroke="#007B35" stroke-miterlimit="10" stroke-linecap="round" stroke-linejoin="round"/>
<path d="M39.082 26.9567L41.9437 25.3047" stroke="#007B35" stroke-miterlimit="10" stroke-linecap="round" stroke-linejoin="round"/>
<path d="M40.5117 29.2223L43.3734 27.5703" stroke="#007B35" stroke-miterlimit="10" stroke-linecap="round" stroke-linejoin="round"/>
<path d="M2.75298 33.6284C2.75298 33.6284 -0.196323 29.2533 2.0181 25.4092L4.75987 20.6495L1 18.4839L12.442 17.7246L17.5288 28.0032L13.7689 25.8389L9.68433 32.9313" stroke="#007B35" stroke-miterlimit="10" stroke-linecap="round" stroke-linejoin="round"/>
<path d="M5.34127 38.499L2.34375 32.9389L20.7874 32.9199L20.7978 43.3167L13.3816 43.3247C10.0149 43.3283 6.92162 41.4718 5.34127 38.499Z" stroke="#007B35" stroke-miterlimit="10" stroke-linecap="round" stroke-linejoin="round"/>
<path d="M16.5977 36.6113L16.601 39.9156" stroke="#007B35" stroke-miterlimit="10" stroke-linecap="round" stroke-linejoin="round"/>
<path d="M13.9219 36.7207L13.9252 40.025" stroke="#007B35" stroke-miterlimit="10" stroke-linecap="round" stroke-linejoin="round"/>
<path d="M11.2461 36.8301L11.2494 40.1344" stroke="#007B35" stroke-miterlimit="10" stroke-linecap="round" stroke-linejoin="round"/>
<path d="M23.5625 7.51345L27.7521 14.5461L24.0239 16.7666L35.4769 17.3563L40.4111 7.00563L36.6842 9.22493L33.8729 4.50556C31.6389 0.755448 26.5094 1.11557 26.347 1.12777H26.3433" stroke="#007B35" stroke-miterlimit="10" stroke-linecap="round" stroke-linejoin="round"/>
<path d="M20.828 1.00229L27.1411 1.11163L18.14 17.2037L9.06641 12.1279L12.6865 5.6553C14.3299 2.71695 17.4621 0.926842 20.828 1.00229Z" stroke="#007B35" stroke-miterlimit="10" stroke-linecap="round" stroke-linejoin="round"/>
<path d="M16.9697 11.7421L14.0859 10.1289" stroke="#007B35" stroke-miterlimit="10" stroke-linecap="round" stroke-linejoin="round"/>
<path d="M18.1845 9.35537L15.3008 7.74219" stroke="#007B35" stroke-miterlimit="10" stroke-linecap="round" stroke-linejoin="round"/>
<path d="M19.3955 6.96865L16.5117 5.35547" stroke="#007B35" stroke-miterlimit="10" stroke-linecap="round" stroke-linejoin="round"/>
</svg>
