<svg width="38" height="39" viewBox="0 0 38 39" fill="none" xmlns="http://www.w3.org/2000/svg">
<circle cx="19" cy="19.5" r="19" fill="#00983D"/>
<path d="M26.8508 23.7187C26.8052 23.6423 26.5231 23.0295 25.166 21.7699C23.7453 20.4509 23.9361 20.6651 25.6474 18.3845C26.6896 16.9956 27.1063 16.1473 26.9759 15.7847C26.8518 15.4391 26.0853 15.5303 26.0853 15.5303L23.5364 15.5451C23.5364 15.5451 23.3477 15.5197 23.2066 15.6034C23.0699 15.6861 22.9819 15.877 22.9819 15.877C22.9819 15.877 22.5779 16.9521 22.0393 17.866C20.9038 19.7946 20.4489 19.8964 20.2634 19.7766C19.8318 19.4978 19.94 18.6549 19.94 18.0569C19.94 16.1876 20.2231 15.4083 19.3876 15.2069C19.1098 15.1401 18.9062 15.0956 18.1969 15.0881C17.2872 15.0786 16.5164 15.0913 16.0807 15.3044C15.7901 15.4465 15.5664 15.7635 15.7032 15.7816C15.8718 15.8038 16.2535 15.8844 16.456 16.1601C16.7179 16.5153 16.7083 17.3147 16.7083 17.3147C16.7083 17.3147 16.8589 19.5147 16.3574 19.7883C16.0128 19.9759 15.541 19.5932 14.5284 17.8427C14.01 16.9468 13.6177 15.9554 13.6177 15.9554C13.6177 15.9554 13.5424 15.771 13.4077 15.6724C13.2445 15.5525 13.0154 15.5144 13.0154 15.5144L10.5917 15.5292C10.5917 15.5292 10.228 15.5398 10.0944 15.6978C9.97568 15.8388 10.0849 16.1293 10.0849 16.1293C10.0849 16.1293 11.9828 20.5686 14.1308 22.8068C16.1019 24.8584 18.339 24.7238 18.339 24.7238H19.3526C19.3526 24.7238 19.659 24.6898 19.8149 24.5213C19.9591 24.3665 19.9538 24.076 19.9538 24.076C19.9538 24.076 19.9336 22.7156 20.5655 22.5153C21.1879 22.3181 21.9874 23.83 22.8345 24.4121C23.4749 24.8521 23.9616 24.7556 23.9616 24.7556L26.2273 24.7238C26.2273 24.7238 27.4127 24.6506 26.8508 23.7187Z" fill="white"/>
</svg>
