<svg width="38" height="39" viewBox="0 0 38 39" fill="none" xmlns="http://www.w3.org/2000/svg">
<circle cx="19" cy="19.501" r="19" fill="#00983D"/>
<path d="M25.9092 15.8401C25.7351 15.1928 25.2247 14.6824 24.5774 14.5081C23.3949 14.1846 18.6648 14.1846 18.6648 14.1846C18.6648 14.1846 13.9349 14.1846 12.7524 14.4959C12.1176 14.67 11.5947 15.1928 11.4206 15.8401C11.1094 17.0225 11.1094 19.4747 11.1094 19.4747C11.1094 19.4747 11.1094 21.9392 11.4206 23.1093C11.5949 23.7565 12.1051 24.2669 12.7525 24.4412C13.9473 24.7648 18.665 24.7648 18.665 24.7648C18.665 24.7648 23.3949 24.7648 24.5774 24.4535C25.2248 24.2793 25.7351 23.769 25.9094 23.1217C26.2205 21.9392 26.2205 19.4871 26.2205 19.4871C26.2205 19.4871 26.233 17.0225 25.9092 15.8401ZM17.1588 21.7401V17.2093L21.0922 19.4747L17.1588 21.7401Z" fill="white"/>
</svg>
