<svg width="683" height="593" viewBox="0 0 683 593" fill="none" xmlns="http://www.w3.org/2000/svg">
<path opacity="0.2" fill-rule="evenodd" clip-rule="evenodd" d="M0 593L341.491 0.700195L683 593H0Z" fill="#00983D"/>
<path fill-rule="evenodd" clip-rule="evenodd" d="M345.691 157.984L254.148 308.578C285.92 288.906 366.124 279.826 431.198 304.037L345.691 157.984ZM303.327 397.111C312.405 397.111 442.553 416.034 449.353 363.82C444.049 290.418 224.637 306.299 215.559 387.283C213.281 406.956 236.741 438.75 280.616 445.551L303.327 397.111ZM359.324 531.823C419.859 522.744 478.864 472.042 471.3 399.389C460.709 403.929 403.2 444.804 323.744 428.906L310.127 457.658C308.632 462.197 350.994 469.015 384.279 467.502L359.324 531.823ZM219.35 456.144C220.098 477.346 263.225 535.598 321.483 529.545C323.744 520.465 329.812 511.386 333.587 497.767C304.841 488.688 291.224 500.045 219.35 456.144ZM348.716 106.517C411.512 208.686 447.84 277.548 490.203 360.793C521.227 422.088 494.758 509.873 421.355 546.208C291.972 605.241 138.381 511.386 188.309 369.107C225.385 283.6 294.25 187.501 348.716 106.517Z" fill="#00662C"/>
</svg>
