<svg width="1922" height="402" viewBox="0 0 1922 402" fill="none" xmlns="http://www.w3.org/2000/svg">
<path fill-rule="evenodd" clip-rule="evenodd" d="M717.221 324.012V367.948H747.996V375.638H756.239V359.705H750.746V324.012H742.503V359.705H725.464V324.012H717.221Z" fill="white"/>
<path fill-rule="evenodd" clip-rule="evenodd" d="M717.221 324.012V367.948H747.996V375.638H756.239V359.705H750.746V324.012H742.503V359.705H725.464V324.012H717.221Z" fill="white"/>
<path fill-rule="evenodd" clip-rule="evenodd" d="M717.221 324.012V367.948H747.996V375.638H756.239V359.705H750.746V324.012H742.503V359.705H725.464V324.012H717.221Z" fill="white"/>
<path fill-rule="evenodd" clip-rule="evenodd" d="M242.933 0L0 402H550.713C618.865 397.058 676.571 352.575 704.603 306.992H1919.24V284.477H658.437C643.6 314.128 601.825 353.122 541.916 354.223C467.17 356.417 384.182 305.892 381.979 204.294C389.127 56.0139 522.681 26.91 603.473 67.5518C625.459 78.5287 647.444 101.597 656.788 118.623H716.697C623.81 -63.7028 368.79 -18.6732 333.07 169.148L242.933 0ZM241.275 87.3287L174.772 196.615C197.852 182.337 256.112 175.741 303.38 193.321L241.275 87.3287ZM210.493 260.865C217.087 260.865 311.622 274.597 316.568 236.703C312.724 183.43 153.334 194.968 146.74 253.729C145.091 268.008 162.131 291.069 194.008 296.011L210.493 260.865ZM251.166 358.621C295.137 352.032 338.006 315.231 332.506 262.512C324.811 265.807 283.043 295.464 225.33 283.934L215.439 304.801C214.344 308.096 245.119 313.037 269.3 311.937L251.166 358.621ZM149.49 303.7C150.037 319.08 181.366 361.368 223.681 356.973C225.33 350.385 229.728 343.788 232.478 333.905C211.594 327.316 201.703 335.552 149.49 303.7ZM243.471 49.9814C289.09 124.122 315.467 174.093 346.249 234.509C368.781 278.992 349.546 342.695 296.231 369.051C202.25 411.894 90.6751 343.788 126.95 240.544C153.888 178.489 203.899 108.743 243.471 49.9814ZM241.275 87.3287L174.772 196.615C197.852 182.337 256.112 175.741 303.38 193.321L241.275 87.3287ZM210.493 260.865C217.087 260.865 311.622 274.597 316.568 236.703C312.724 183.43 153.334 194.968 146.74 253.729C145.091 268.008 162.131 291.069 194.008 296.011L210.493 260.865ZM251.166 358.621C295.137 352.032 338.006 315.231 332.506 262.512C324.811 265.807 283.043 295.464 225.33 283.934L215.439 304.801C214.344 308.096 245.119 313.037 269.3 311.937L251.166 358.621ZM149.49 303.7C150.037 319.08 181.366 361.368 223.681 356.973C225.33 350.385 229.728 343.788 232.478 333.905C211.594 327.316 201.703 335.552 149.49 303.7ZM243.471 49.9814C289.09 124.122 315.467 174.093 346.249 234.509C368.781 278.992 349.546 342.695 296.231 369.051C202.25 411.894 90.6751 343.788 126.95 240.544C153.888 178.489 203.899 108.743 243.471 49.9814ZM241.275 87.3287L174.772 196.615C197.852 182.337 256.112 175.741 303.38 193.321L241.275 87.3287ZM210.493 260.865C217.087 260.865 311.622 274.597 316.568 236.703C312.724 183.43 153.334 194.968 146.74 253.729C145.091 268.008 162.131 291.069 194.008 296.011L210.493 260.865ZM251.166 358.621C295.137 352.032 338.006 315.231 332.506 262.512C324.811 265.807 283.043 295.464 225.33 283.934L215.439 304.801C214.344 308.096 245.119 313.037 269.3 311.937L251.166 358.621ZM149.49 303.7C150.037 319.08 181.366 361.368 223.681 356.973C225.33 350.385 229.728 343.788 232.478 333.905C211.594 327.316 201.703 335.552 149.49 303.7ZM243.471 49.9814C289.09 124.122 315.467 174.093 346.249 234.509C368.781 278.992 349.546 342.695 296.231 369.051C202.25 411.894 90.6751 343.788 126.95 240.544C153.888 178.489 203.899 108.743 243.471 49.9814Z" fill="white"/>
<path fill-rule="evenodd" clip-rule="evenodd" d="M717.221 324.012V367.948H747.996V375.638H756.239V359.705H750.746V324.012H742.503V359.705H725.464V324.012H717.221Z" fill="white"/>
<path fill-rule="evenodd" clip-rule="evenodd" d="M611.193 249.868H653.508C634.28 297.099 587.559 328.397 536.447 328.397C467.194 328.397 410.582 271.837 410.582 202.638C410.582 133.993 467.194 77.4258 536.447 77.4258C587.012 77.4258 633.725 107.63 652.961 153.76H611.193C599.099 131.792 577.114 112.025 535.346 111.479C480.937 110.924 446.857 158.702 447.412 200.991C447.412 259.752 493.024 293.805 538.643 293.251C567.222 293.251 600.2 275.678 611.193 249.868Z" fill="white"/>
<path fill-rule="evenodd" clip-rule="evenodd" d="M785.397 359.705V367.394H760.662V324.012H785.397V331.695H768.904V342.132H784.296V349.821H768.904V359.705H785.397Z" fill="white"/>
<path fill-rule="evenodd" clip-rule="evenodd" d="M832.664 367.394L814.523 324.012H806.835L788.694 367.394H798.038L810.679 334.996L823.32 367.394H832.664Z" fill="white"/>
<path fill-rule="evenodd" clip-rule="evenodd" d="M877.148 367.402L859.006 324.019H851.318L833.177 367.402H842.521L855.162 335.003L867.804 367.402H877.148Z" fill="white"/>
<path fill-rule="evenodd" clip-rule="evenodd" d="M990.394 367.394L972.26 324.012H965.112L946.978 367.394H955.768L968.409 334.996L981.604 367.394H990.394Z" fill="white"/>
<path fill-rule="evenodd" clip-rule="evenodd" d="M897.51 349.282V341.593H889.814V324.019H881.571V367.402H889.814V349.282H897.51Z" fill="white"/>
<path fill-rule="evenodd" clip-rule="evenodd" d="M1127.8 344.904C1127.25 364.124 1157.48 366.872 1159.13 346.005C1159.13 326.777 1130 326.231 1127.8 344.904ZM1119.56 343.257C1123.4 314.7 1167.92 318.541 1167.92 346.005C1166.27 377.856 1116.81 374.562 1119.56 343.257Z" fill="white"/>
<path fill-rule="evenodd" clip-rule="evenodd" d="M1044.29 335.541C1044.29 328.399 1048.69 324.011 1056.93 323.457C1062.98 323.457 1066.83 324.557 1069.58 327.852C1073.97 332.794 1072.87 341.584 1066.83 344.324L1065.73 344.878C1070.68 345.425 1076.72 353.115 1072.33 361.905C1067.38 370.141 1050.89 370.688 1045.39 362.451C1043.19 359.703 1042.64 357.51 1042.64 354.215H1051.44C1050.89 359.703 1055.83 361.351 1061.33 360.257C1062.98 359.703 1064.63 358.056 1065.18 356.409C1065.73 353.661 1064.63 350.92 1061.88 349.82C1060.79 349.273 1059.14 349.273 1057.48 349.273H1054.74V341.03C1058.04 341.03 1061.88 341.584 1063.53 338.836C1065.18 334.441 1062.43 331.146 1058.58 331.146C1055.83 331.146 1052.54 332.247 1052.54 335.541H1044.29Z" fill="white"/>
<path fill-rule="evenodd" clip-rule="evenodd" d="M1088.24 324.012H1079.44V367.395H1088.24V349.275H1104.72V367.395H1113.52V324.012H1104.72V341.585H1088.24V324.012Z" fill="white"/>
<path fill-rule="evenodd" clip-rule="evenodd" d="M1402.63 324.019H1394.38V367.402H1402.63V349.282H1419.67V367.402H1427.91V324.019H1419.67V341.593H1402.63V324.019Z" fill="white"/>
<path fill-rule="evenodd" clip-rule="evenodd" d="M1444.94 324.012H1436.15V367.395H1444.94V349.275H1461.44V367.395H1470.23V324.012H1461.44V341.585H1444.94V324.012Z" fill="white"/>
<path fill-rule="evenodd" clip-rule="evenodd" d="M1824.71 324.019H1815.92V367.402H1824.71V349.282H1841.2V367.402H1849.44V324.019H1841.2V341.593H1824.71V324.019Z" fill="white"/>
<path d="M1190.99 345.431H1173.41V352.574H1190.99V345.431Z" fill="white"/>
<path fill-rule="evenodd" clip-rule="evenodd" d="M1199.24 324.019H1208.04V342.693L1222.33 324.019H1232.22L1215.18 345.434L1232.22 367.402H1222.33L1208.04 348.735V367.402H1199.24V324.019Z" fill="white"/>
<path fill-rule="evenodd" clip-rule="evenodd" d="M1256.41 335.543L1250.92 348.721H1261.36L1256.41 335.543ZM1233.88 367.394H1243.22L1247.62 356.41H1264.66L1269.61 367.394H1278.95L1259.71 324.012H1253.12L1233.88 367.394Z" fill="white"/>
<path fill-rule="evenodd" clip-rule="evenodd" d="M1876.36 335.543L1871.42 348.721H1881.86L1876.36 335.543ZM1853.83 367.394H1863.17L1868.12 356.41H1885.16L1889.56 367.394H1898.9L1879.66 324.012H1873.07L1853.83 367.394Z" fill="white"/>
<path fill-rule="evenodd" clip-rule="evenodd" d="M1291.61 343.224H1297.11C1300.4 343.224 1304.25 342.123 1304.25 337.181C1304.25 334.433 1302.05 331.693 1296.55 331.693H1291.61V343.224ZM1283.36 367.386V324.003C1293.8 324.003 1311.94 321.802 1312.49 337.181C1313.04 349.813 1300.95 351.46 1291.61 350.913V367.386H1283.36Z" fill="white"/>
<path fill-rule="evenodd" clip-rule="evenodd" d="M1486.69 348.728H1492.74C1496.03 348.728 1499.89 349.275 1500.43 354.217C1500.43 356.965 1498.24 359.705 1493.28 359.705H1486.69V348.728ZM1478.45 324.012V367.395H1493.84C1500.43 367.395 1508.67 364.1 1508.67 354.217C1508.67 344.88 1502.08 341.039 1494.39 341.039H1486.69V324.012H1478.45Z" fill="white"/>
<path fill-rule="evenodd" clip-rule="evenodd" d="M1486.69 348.728H1492.74C1496.03 348.728 1499.89 349.275 1500.43 354.217C1500.43 356.965 1498.24 359.705 1493.28 359.705H1486.69V348.728ZM1478.45 324.012V367.395H1493.84C1500.43 367.395 1508.67 364.1 1508.67 354.217C1508.67 344.88 1502.08 341.039 1494.39 341.039H1486.69V324.012H1478.45Z" fill="white"/>
<path fill-rule="evenodd" clip-rule="evenodd" d="M1741.72 348.728H1748.32C1751.06 348.728 1755.46 349.275 1755.46 354.216C1756.01 356.964 1753.81 359.712 1748.87 359.712H1741.72V348.728ZM1741.72 331.702V341.038H1749.97C1757.66 341.038 1764.25 344.88 1764.25 354.216C1764.25 364.1 1756.01 367.394 1749.41 367.394H1732.92V324.012H1759.86V331.702H1741.72Z" fill="white"/>
<path fill-rule="evenodd" clip-rule="evenodd" d="M1314.14 331.709V324.019H1339.43V331.709H1331.18V367.402H1322.39V331.709H1314.14Z" fill="white"/>
<path d="M1521.87 324.012H1513.07V367.395H1521.87V324.012Z" fill="white"/>
<path fill-rule="evenodd" clip-rule="evenodd" d="M1530.15 324.019V367.402H1538.4L1559.28 337.197V367.402H1567.53V324.019H1559.28L1538.4 354.771V324.019H1530.15Z" fill="white"/>
<path fill-rule="evenodd" clip-rule="evenodd" d="M1559.8 313.579C1559.25 316.874 1558.7 318.521 1555.95 320.168C1551.55 322.916 1543.86 322.362 1540.01 319.068C1538.92 317.974 1537.81 316.327 1537.81 313.579H1544.96C1544.96 315.227 1546.6 316.874 1548.81 316.874C1551 316.874 1552.65 315.227 1552.65 313.579H1559.8Z" fill="white"/>
<path fill-rule="evenodd" clip-rule="evenodd" d="M1590.02 324.019H1598.82V342.693L1613.11 324.019H1623L1605.96 345.434L1623 367.402H1613.11L1598.82 348.735V367.402H1590.02V324.019Z" fill="white"/>
<path fill-rule="evenodd" clip-rule="evenodd" d="M1770.31 324.019V367.402H1778.55L1798.89 337.197V367.402H1807.67V324.019H1799.43L1778.55 354.771V324.019H1770.31Z" fill="white"/>
<path fill-rule="evenodd" clip-rule="evenodd" d="M1896.72 331.702V324.012H1922V331.702H1913.76V367.394H1904.96V331.702H1896.72Z" fill="white"/>
<path fill-rule="evenodd" clip-rule="evenodd" d="M1676.33 367.394V324.012H1687.87L1700.51 357.511L1713.7 324.012H1724.69V367.394H1716.45V334.996L1704.36 367.394H1697.21L1684.57 334.996V367.394H1676.33Z" fill="white"/>
<path fill-rule="evenodd" clip-rule="evenodd" d="M905.778 344.904C905.224 364.124 935.452 366.872 937.101 346.005C937.101 326.777 907.427 326.231 905.778 344.904ZM896.981 343.257C900.826 314.7 945.898 318.541 945.343 346.005C944.249 377.856 894.231 374.562 896.981 343.257Z" fill="white"/>
<path fill-rule="evenodd" clip-rule="evenodd" d="M999.747 344.904C998.645 364.124 1029.42 366.872 1031.07 346.005C1031.07 326.777 1001.4 326.231 999.747 344.904ZM990.95 343.257C994.794 314.7 1039.32 318.541 1039.32 346.005C1038.22 377.856 988.2 374.562 990.95 343.257Z" fill="white"/>
<path fill-rule="evenodd" clip-rule="evenodd" d="M1348.75 344.904C1348.2 364.124 1378.43 366.872 1380.08 346.005C1380.08 326.777 1350.4 326.231 1348.75 344.904ZM1339.96 343.257C1344.35 314.7 1388.87 318.541 1388.32 346.005C1387.22 377.856 1337.21 374.562 1339.96 343.257Z" fill="white"/>
<path fill-rule="evenodd" clip-rule="evenodd" d="M1630.72 344.904C1630.17 364.124 1660.41 366.872 1662.05 346.005C1662.05 326.777 1632.92 326.231 1630.72 344.904ZM1622.48 343.257C1626.33 314.7 1670.84 318.541 1670.84 346.005C1669.19 377.856 1619.73 374.562 1622.48 343.257Z" fill="white"/>
<path fill-rule="evenodd" clip-rule="evenodd" d="M611.193 249.868H653.508C634.28 297.099 587.559 328.397 536.447 328.397C467.194 328.397 410.582 271.837 410.582 202.638C410.582 133.993 467.194 77.4258 536.447 77.4258C587.012 77.4258 633.725 107.63 652.961 153.76H611.193C599.099 131.792 577.114 112.025 535.346 111.479C480.937 110.924 446.857 158.702 447.412 200.991C447.412 259.752 493.024 293.805 538.643 293.251C567.222 293.251 600.2 275.678 611.193 249.868Z" fill="white"/>
<path fill-rule="evenodd" clip-rule="evenodd" d="M785.397 359.705V367.394H760.662V324.012H785.397V331.695H768.904V342.132H784.296V349.821H768.904V359.705H785.397Z" fill="white"/>
<path fill-rule="evenodd" clip-rule="evenodd" d="M832.664 367.394L814.523 324.012H806.835L788.694 367.394H798.038L810.679 334.996L823.32 367.394H832.664Z" fill="white"/>
<path fill-rule="evenodd" clip-rule="evenodd" d="M877.148 367.402L859.006 324.019H851.318L833.177 367.402H842.521L855.162 335.003L867.804 367.402H877.148Z" fill="white"/>
<path fill-rule="evenodd" clip-rule="evenodd" d="M990.394 367.394L972.26 324.012H965.112L946.978 367.394H955.768L968.409 334.996L981.604 367.394H990.394Z" fill="white"/>
<path fill-rule="evenodd" clip-rule="evenodd" d="M897.51 349.282V341.593H889.814V324.019H881.571V367.402H889.814V349.282H897.51Z" fill="white"/>
<path fill-rule="evenodd" clip-rule="evenodd" d="M1127.8 344.904C1127.25 364.124 1157.48 366.872 1159.13 346.005C1159.13 326.777 1130 326.231 1127.8 344.904ZM1119.56 343.257C1123.4 314.7 1167.92 318.541 1167.92 346.005C1166.27 377.856 1116.81 374.562 1119.56 343.257Z" fill="white"/>
<path fill-rule="evenodd" clip-rule="evenodd" d="M1044.29 335.541C1044.29 328.399 1048.69 324.011 1056.93 323.457C1062.98 323.457 1066.83 324.557 1069.58 327.852C1073.97 332.794 1072.87 341.584 1066.83 344.324L1065.73 344.878C1070.68 345.425 1076.72 353.115 1072.33 361.905C1067.38 370.141 1050.89 370.688 1045.39 362.451C1043.19 359.703 1042.64 357.51 1042.64 354.215H1051.44C1050.89 359.703 1055.83 361.351 1061.33 360.257C1062.98 359.703 1064.63 358.056 1065.18 356.409C1065.73 353.661 1064.63 350.92 1061.88 349.82C1060.79 349.273 1059.14 349.273 1057.48 349.273H1054.74V341.03C1058.04 341.03 1061.88 341.584 1063.53 338.836C1065.18 334.441 1062.43 331.146 1058.58 331.146C1055.83 331.146 1052.54 332.247 1052.54 335.541H1044.29Z" fill="white"/>
<path fill-rule="evenodd" clip-rule="evenodd" d="M1088.24 324.012H1079.44V367.395H1088.24V349.275H1104.72V367.395H1113.52V324.012H1104.72V341.585H1088.24V324.012Z" fill="white"/>
<path fill-rule="evenodd" clip-rule="evenodd" d="M1402.63 324.019H1394.38V367.402H1402.63V349.282H1419.67V367.402H1427.91V324.019H1419.67V341.593H1402.63V324.019Z" fill="white"/>
<path fill-rule="evenodd" clip-rule="evenodd" d="M1444.94 324.012H1436.15V367.395H1444.94V349.275H1461.44V367.395H1470.23V324.012H1461.44V341.585H1444.94V324.012Z" fill="white"/>
<path fill-rule="evenodd" clip-rule="evenodd" d="M1824.71 324.019H1815.92V367.402H1824.71V349.282H1841.2V367.402H1849.44V324.019H1841.2V341.593H1824.71V324.019Z" fill="white"/>
<path d="M1190.99 345.431H1173.41V352.574H1190.99V345.431Z" fill="white"/>
<path fill-rule="evenodd" clip-rule="evenodd" d="M1199.24 324.019H1208.04V342.693L1222.33 324.019H1232.22L1215.18 345.434L1232.22 367.402H1222.33L1208.04 348.735V367.402H1199.24V324.019Z" fill="white"/>
<path fill-rule="evenodd" clip-rule="evenodd" d="M1256.41 335.543L1250.92 348.721H1261.36L1256.41 335.543ZM1233.88 367.394H1243.22L1247.62 356.41H1264.66L1269.61 367.394H1278.95L1259.71 324.012H1253.12L1233.88 367.394Z" fill="white"/>
<path fill-rule="evenodd" clip-rule="evenodd" d="M1876.36 335.543L1871.42 348.721H1881.86L1876.36 335.543ZM1853.83 367.394H1863.17L1868.12 356.41H1885.16L1889.56 367.394H1898.9L1879.66 324.012H1873.07L1853.83 367.394Z" fill="white"/>
<path fill-rule="evenodd" clip-rule="evenodd" d="M1291.61 343.224H1297.11C1300.4 343.224 1304.25 342.123 1304.25 337.181C1304.25 334.433 1302.05 331.693 1296.55 331.693H1291.61V343.224ZM1283.36 367.386V324.003C1293.8 324.003 1311.94 321.802 1312.49 337.181C1313.04 349.813 1300.95 351.46 1291.61 350.913V367.386H1283.36Z" fill="white"/>
<path fill-rule="evenodd" clip-rule="evenodd" d="M1486.69 348.728H1492.74C1496.03 348.728 1499.89 349.275 1500.43 354.217C1500.43 356.965 1498.24 359.705 1493.28 359.705H1486.69V348.728ZM1478.45 324.012V367.395H1493.84C1500.43 367.395 1508.67 364.1 1508.67 354.217C1508.67 344.88 1502.08 341.039 1494.39 341.039H1486.69V324.012H1478.45Z" fill="white"/>
<path fill-rule="evenodd" clip-rule="evenodd" d="M1486.69 348.728H1492.74C1496.03 348.728 1499.89 349.275 1500.43 354.217C1500.43 356.965 1498.24 359.705 1493.28 359.705H1486.69V348.728ZM1478.45 324.012V367.395H1493.84C1500.43 367.395 1508.67 364.1 1508.67 354.217C1508.67 344.88 1502.08 341.039 1494.39 341.039H1486.69V324.012H1478.45Z" fill="white"/>
<path fill-rule="evenodd" clip-rule="evenodd" d="M1741.72 348.728H1748.32C1751.06 348.728 1755.46 349.275 1755.46 354.216C1756.01 356.964 1753.81 359.712 1748.87 359.712H1741.72V348.728ZM1741.72 331.702V341.038H1749.97C1757.66 341.038 1764.25 344.88 1764.25 354.216C1764.25 364.1 1756.01 367.394 1749.41 367.394H1732.92V324.012H1759.86V331.702H1741.72Z" fill="white"/>
<path fill-rule="evenodd" clip-rule="evenodd" d="M1314.14 331.709V324.019H1339.43V331.709H1331.18V367.402H1322.39V331.709H1314.14Z" fill="white"/>
<path d="M1521.87 324.012H1513.07V367.395H1521.87V324.012Z" fill="white"/>
<path fill-rule="evenodd" clip-rule="evenodd" d="M1530.15 324.019V367.402H1538.4L1559.28 337.197V367.402H1567.53V324.019H1559.28L1538.4 354.771V324.019H1530.15Z" fill="white"/>
<path fill-rule="evenodd" clip-rule="evenodd" d="M1559.8 313.579C1559.25 316.874 1558.7 318.521 1555.95 320.168C1551.55 322.916 1543.86 322.362 1540.01 319.068C1538.92 317.974 1537.81 316.327 1537.81 313.579H1544.96C1544.96 315.227 1546.6 316.874 1548.81 316.874C1551 316.874 1552.65 315.227 1552.65 313.579H1559.8Z" fill="white"/>
<path fill-rule="evenodd" clip-rule="evenodd" d="M1590.02 324.019H1598.82V342.693L1613.11 324.019H1623L1605.96 345.434L1623 367.402H1613.11L1598.82 348.735V367.402H1590.02V324.019Z" fill="white"/>
<path fill-rule="evenodd" clip-rule="evenodd" d="M1770.31 324.019V367.402H1778.55L1798.89 337.197V367.402H1807.67V324.019H1799.43L1778.55 354.771V324.019H1770.31Z" fill="white"/>
<path fill-rule="evenodd" clip-rule="evenodd" d="M1896.72 331.702V324.012H1922V331.702H1913.76V367.394H1904.96V331.702H1896.72Z" fill="white"/>
<path fill-rule="evenodd" clip-rule="evenodd" d="M1676.33 367.394V324.012H1687.87L1700.51 357.511L1713.7 324.012H1724.69V367.394H1716.45V334.996L1704.36 367.394H1697.21L1684.57 334.996V367.394H1676.33Z" fill="white"/>
<path fill-rule="evenodd" clip-rule="evenodd" d="M905.778 344.904C905.224 364.124 935.452 366.872 937.101 346.005C937.101 326.777 907.427 326.231 905.778 344.904ZM896.981 343.257C900.826 314.7 945.898 318.541 945.343 346.005C944.249 377.856 894.231 374.562 896.981 343.257Z" fill="white"/>
<path fill-rule="evenodd" clip-rule="evenodd" d="M999.747 344.904C998.645 364.124 1029.42 366.872 1031.07 346.005C1031.07 326.777 1001.4 326.231 999.747 344.904ZM990.95 343.257C994.794 314.7 1039.32 318.541 1039.32 346.005C1038.22 377.856 988.2 374.562 990.95 343.257Z" fill="white"/>
<path fill-rule="evenodd" clip-rule="evenodd" d="M1348.75 344.904C1348.2 364.124 1378.43 366.872 1380.08 346.005C1380.08 326.777 1350.4 326.231 1348.75 344.904ZM1339.96 343.257C1344.35 314.7 1388.87 318.541 1388.32 346.005C1387.22 377.856 1337.21 374.562 1339.96 343.257Z" fill="white"/>
<path fill-rule="evenodd" clip-rule="evenodd" d="M1630.72 344.904C1630.17 364.124 1660.41 366.872 1662.05 346.005C1662.05 326.777 1632.92 326.231 1630.72 344.904ZM1622.48 343.257C1626.33 314.7 1670.84 318.541 1670.84 346.005C1669.19 377.856 1619.73 374.562 1622.48 343.257Z" fill="white"/>
<path fill-rule="evenodd" clip-rule="evenodd" d="M611.193 249.868H653.508C634.28 297.099 587.559 328.397 536.447 328.397C467.194 328.397 410.582 271.837 410.582 202.638C410.582 133.993 467.194 77.4258 536.447 77.4258C587.012 77.4258 633.725 107.63 652.961 153.76H611.193C599.099 131.792 577.114 112.025 535.346 111.479C480.937 110.924 446.857 158.702 447.412 200.991C447.412 259.752 493.024 293.805 538.643 293.251C567.222 293.251 600.2 275.678 611.193 249.868Z" fill="white"/>
<path fill-rule="evenodd" clip-rule="evenodd" d="M785.397 359.705V367.394H760.662V324.012H785.397V331.695H768.904V342.132H784.296V349.821H768.904V359.705H785.397Z" fill="white"/>
<path fill-rule="evenodd" clip-rule="evenodd" d="M832.664 367.394L814.523 324.012H806.835L788.694 367.394H798.038L810.679 334.996L823.32 367.394H832.664Z" fill="white"/>
<path fill-rule="evenodd" clip-rule="evenodd" d="M877.148 367.402L859.006 324.019H851.318L833.177 367.402H842.521L855.162 335.003L867.804 367.402H877.148Z" fill="white"/>
<path fill-rule="evenodd" clip-rule="evenodd" d="M990.394 367.394L972.26 324.012H965.112L946.978 367.394H955.768L968.409 334.996L981.604 367.394H990.394Z" fill="white"/>
<path fill-rule="evenodd" clip-rule="evenodd" d="M897.51 349.282V341.593H889.814V324.019H881.571V367.402H889.814V349.282H897.51Z" fill="white"/>
<path fill-rule="evenodd" clip-rule="evenodd" d="M1127.8 344.904C1127.25 364.124 1157.48 366.872 1159.13 346.005C1159.13 326.777 1130 326.231 1127.8 344.904ZM1119.56 343.257C1123.4 314.7 1167.92 318.541 1167.92 346.005C1166.27 377.856 1116.81 374.562 1119.56 343.257Z" fill="white"/>
<path fill-rule="evenodd" clip-rule="evenodd" d="M1044.29 335.541C1044.29 328.399 1048.69 324.011 1056.93 323.457C1062.98 323.457 1066.83 324.557 1069.58 327.852C1073.97 332.794 1072.87 341.584 1066.83 344.324L1065.73 344.878C1070.68 345.425 1076.72 353.115 1072.33 361.905C1067.38 370.141 1050.89 370.688 1045.39 362.451C1043.19 359.703 1042.64 357.51 1042.64 354.215H1051.44C1050.89 359.703 1055.83 361.351 1061.33 360.257C1062.98 359.703 1064.63 358.056 1065.18 356.409C1065.73 353.661 1064.63 350.92 1061.88 349.82C1060.79 349.273 1059.14 349.273 1057.48 349.273H1054.74V341.03C1058.04 341.03 1061.88 341.584 1063.53 338.836C1065.18 334.441 1062.43 331.146 1058.58 331.146C1055.83 331.146 1052.54 332.247 1052.54 335.541H1044.29Z" fill="white"/>
<path fill-rule="evenodd" clip-rule="evenodd" d="M1088.24 324.012H1079.44V367.395H1088.24V349.275H1104.72V367.395H1113.52V324.012H1104.72V341.585H1088.24V324.012Z" fill="white"/>
<path fill-rule="evenodd" clip-rule="evenodd" d="M1402.63 324.019H1394.38V367.402H1402.63V349.282H1419.67V367.402H1427.91V324.019H1419.67V341.593H1402.63V324.019Z" fill="white"/>
<path fill-rule="evenodd" clip-rule="evenodd" d="M1444.94 324.012H1436.15V367.395H1444.94V349.275H1461.44V367.395H1470.23V324.012H1461.44V341.585H1444.94V324.012Z" fill="white"/>
<path fill-rule="evenodd" clip-rule="evenodd" d="M1824.71 324.019H1815.92V367.402H1824.71V349.282H1841.2V367.402H1849.44V324.019H1841.2V341.593H1824.71V324.019Z" fill="white"/>
<path d="M1190.99 345.431H1173.41V352.574H1190.99V345.431Z" fill="white"/>
<path fill-rule="evenodd" clip-rule="evenodd" d="M1199.24 324.019H1208.04V342.693L1222.33 324.019H1232.22L1215.18 345.434L1232.22 367.402H1222.33L1208.04 348.735V367.402H1199.24V324.019Z" fill="white"/>
<path fill-rule="evenodd" clip-rule="evenodd" d="M1256.41 335.543L1250.92 348.721H1261.36L1256.41 335.543ZM1233.88 367.394H1243.22L1247.62 356.41H1264.66L1269.61 367.394H1278.95L1259.71 324.012H1253.12L1233.88 367.394Z" fill="white"/>
<path fill-rule="evenodd" clip-rule="evenodd" d="M1876.36 335.543L1871.42 348.721H1881.86L1876.36 335.543ZM1853.83 367.394H1863.17L1868.12 356.41H1885.16L1889.56 367.394H1898.9L1879.66 324.012H1873.07L1853.83 367.394Z" fill="white"/>
<path fill-rule="evenodd" clip-rule="evenodd" d="M1291.61 343.224H1297.11C1300.4 343.224 1304.25 342.123 1304.25 337.181C1304.25 334.433 1302.05 331.693 1296.55 331.693H1291.61V343.224ZM1283.36 367.386V324.003C1293.8 324.003 1311.94 321.802 1312.49 337.181C1313.04 349.813 1300.95 351.46 1291.61 350.913V367.386H1283.36Z" fill="white"/>
<path fill-rule="evenodd" clip-rule="evenodd" d="M1486.69 348.728H1492.74C1496.03 348.728 1499.89 349.275 1500.43 354.217C1500.43 356.965 1498.24 359.705 1493.28 359.705H1486.69V348.728ZM1478.45 324.012V367.395H1493.84C1500.43 367.395 1508.67 364.1 1508.67 354.217C1508.67 344.88 1502.08 341.039 1494.39 341.039H1486.69V324.012H1478.45Z" fill="white"/>
<path fill-rule="evenodd" clip-rule="evenodd" d="M1486.69 348.728H1492.74C1496.03 348.728 1499.89 349.275 1500.43 354.217C1500.43 356.965 1498.24 359.705 1493.28 359.705H1486.69V348.728ZM1478.45 324.012V367.395H1493.84C1500.43 367.395 1508.67 364.1 1508.67 354.217C1508.67 344.88 1502.08 341.039 1494.39 341.039H1486.69V324.012H1478.45Z" fill="white"/>
<path fill-rule="evenodd" clip-rule="evenodd" d="M1741.72 348.728H1748.32C1751.06 348.728 1755.46 349.275 1755.46 354.216C1756.01 356.964 1753.81 359.712 1748.87 359.712H1741.72V348.728ZM1741.72 331.702V341.038H1749.97C1757.66 341.038 1764.25 344.88 1764.25 354.216C1764.25 364.1 1756.01 367.394 1749.41 367.394H1732.92V324.012H1759.86V331.702H1741.72Z" fill="white"/>
<path fill-rule="evenodd" clip-rule="evenodd" d="M1314.14 331.709V324.019H1339.43V331.709H1331.18V367.402H1322.39V331.709H1314.14Z" fill="white"/>
<path d="M1521.87 324.012H1513.07V367.395H1521.87V324.012Z" fill="white"/>
<path fill-rule="evenodd" clip-rule="evenodd" d="M1530.15 324.019V367.402H1538.4L1559.28 337.197V367.402H1567.53V324.019H1559.28L1538.4 354.771V324.019H1530.15Z" fill="white"/>
<path fill-rule="evenodd" clip-rule="evenodd" d="M1559.8 313.579C1559.25 316.874 1558.7 318.521 1555.95 320.168C1551.55 322.916 1543.86 322.362 1540.01 319.068C1538.92 317.974 1537.81 316.327 1537.81 313.579H1544.96C1544.96 315.227 1546.6 316.874 1548.81 316.874C1551 316.874 1552.65 315.227 1552.65 313.579H1559.8Z" fill="white"/>
<path fill-rule="evenodd" clip-rule="evenodd" d="M1590.02 324.019H1598.82V342.693L1613.11 324.019H1623L1605.96 345.434L1623 367.402H1613.11L1598.82 348.735V367.402H1590.02V324.019Z" fill="white"/>
<path fill-rule="evenodd" clip-rule="evenodd" d="M1770.31 324.019V367.402H1778.55L1798.89 337.197V367.402H1807.67V324.019H1799.43L1778.55 354.771V324.019H1770.31Z" fill="white"/>
<path fill-rule="evenodd" clip-rule="evenodd" d="M1896.72 331.702V324.012H1922V331.702H1913.76V367.394H1904.96V331.702H1896.72Z" fill="white"/>
<path fill-rule="evenodd" clip-rule="evenodd" d="M1676.33 367.394V324.012H1687.87L1700.51 357.511L1713.7 324.012H1724.69V367.394H1716.45V334.996L1704.36 367.394H1697.21L1684.57 334.996V367.394H1676.33Z" fill="white"/>
<path fill-rule="evenodd" clip-rule="evenodd" d="M905.778 344.904C905.224 364.124 935.452 366.872 937.101 346.005C937.101 326.777 907.427 326.231 905.778 344.904ZM896.981 343.257C900.826 314.7 945.898 318.541 945.343 346.005C944.249 377.856 894.231 374.562 896.981 343.257Z" fill="white"/>
<path fill-rule="evenodd" clip-rule="evenodd" d="M999.747 344.904C998.645 364.124 1029.42 366.872 1031.07 346.005C1031.07 326.777 1001.4 326.231 999.747 344.904ZM990.95 343.257C994.794 314.7 1039.32 318.541 1039.32 346.005C1038.22 377.856 988.2 374.562 990.95 343.257Z" fill="white"/>
<path fill-rule="evenodd" clip-rule="evenodd" d="M1348.75 344.904C1348.2 364.124 1378.43 366.872 1380.08 346.005C1380.08 326.777 1350.4 326.231 1348.75 344.904ZM1339.96 343.257C1344.35 314.7 1388.87 318.541 1388.32 346.005C1387.22 377.856 1337.21 374.562 1339.96 343.257Z" fill="white"/>
<path fill-rule="evenodd" clip-rule="evenodd" d="M1630.72 344.904C1630.17 364.124 1660.41 366.872 1662.05 346.005C1662.05 326.777 1632.92 326.231 1630.72 344.904ZM1622.48 343.257C1626.33 314.7 1670.84 318.541 1670.84 346.005C1669.19 377.856 1619.73 374.562 1622.48 343.257Z" fill="white"/>
<path fill-rule="evenodd" clip-rule="evenodd" d="M611.193 249.868H653.508C634.28 297.099 587.559 328.397 536.447 328.397C467.194 328.397 410.582 271.837 410.582 202.638C410.582 133.993 467.194 77.4258 536.447 77.4258C587.012 77.4258 633.725 107.63 652.961 153.76H611.193C599.099 131.792 577.114 112.025 535.346 111.479C480.937 110.924 446.857 158.702 447.412 200.991C447.412 259.752 493.024 293.805 538.643 293.251C567.222 293.251 600.2 275.678 611.193 249.868Z" fill="white"/>
<path fill-rule="evenodd" clip-rule="evenodd" d="M785.397 359.705V367.394H760.662V324.012H785.397V331.695H768.904V342.132H784.296V349.821H768.904V359.705H785.397Z" fill="white"/>
<path fill-rule="evenodd" clip-rule="evenodd" d="M832.664 367.394L814.523 324.012H806.835L788.694 367.394H798.038L810.679 334.996L823.32 367.394H832.664Z" fill="white"/>
<path fill-rule="evenodd" clip-rule="evenodd" d="M877.148 367.402L859.006 324.019H851.318L833.177 367.402H842.521L855.162 335.003L867.804 367.402H877.148Z" fill="white"/>
<path fill-rule="evenodd" clip-rule="evenodd" d="M990.394 367.394L972.26 324.012H965.112L946.978 367.394H955.768L968.409 334.996L981.604 367.394H990.394Z" fill="white"/>
<path fill-rule="evenodd" clip-rule="evenodd" d="M897.51 349.282V341.593H889.814V324.019H881.571V367.402H889.814V349.282H897.51Z" fill="white"/>
<path fill-rule="evenodd" clip-rule="evenodd" d="M1127.8 344.904C1127.25 364.124 1157.48 366.872 1159.13 346.005C1159.13 326.777 1130 326.231 1127.8 344.904ZM1119.56 343.257C1123.4 314.7 1167.92 318.541 1167.92 346.005C1166.27 377.856 1116.81 374.562 1119.56 343.257Z" fill="white"/>
<path fill-rule="evenodd" clip-rule="evenodd" d="M1044.29 335.541C1044.29 328.399 1048.69 324.011 1056.93 323.457C1062.98 323.457 1066.83 324.557 1069.58 327.852C1073.97 332.794 1072.87 341.584 1066.83 344.324L1065.73 344.878C1070.68 345.425 1076.72 353.115 1072.33 361.905C1067.38 370.141 1050.89 370.688 1045.39 362.451C1043.19 359.703 1042.64 357.51 1042.64 354.215H1051.44C1050.89 359.703 1055.83 361.351 1061.33 360.257C1062.98 359.703 1064.63 358.056 1065.18 356.409C1065.73 353.661 1064.63 350.92 1061.88 349.82C1060.79 349.273 1059.14 349.273 1057.48 349.273H1054.74V341.03C1058.04 341.03 1061.88 341.584 1063.53 338.836C1065.18 334.441 1062.43 331.146 1058.58 331.146C1055.83 331.146 1052.54 332.247 1052.54 335.541H1044.29Z" fill="white"/>
<path fill-rule="evenodd" clip-rule="evenodd" d="M1088.24 324.012H1079.44V367.395H1088.24V349.275H1104.72V367.395H1113.52V324.012H1104.72V341.585H1088.24V324.012Z" fill="white"/>
<path fill-rule="evenodd" clip-rule="evenodd" d="M1402.63 324.019H1394.38V367.402H1402.63V349.282H1419.67V367.402H1427.91V324.019H1419.67V341.593H1402.63V324.019Z" fill="white"/>
<path fill-rule="evenodd" clip-rule="evenodd" d="M1444.94 324.012H1436.15V367.395H1444.94V349.275H1461.44V367.395H1470.23V324.012H1461.44V341.585H1444.94V324.012Z" fill="white"/>
<path fill-rule="evenodd" clip-rule="evenodd" d="M1824.71 324.019H1815.92V367.402H1824.71V349.282H1841.2V367.402H1849.44V324.019H1841.2V341.593H1824.71V324.019Z" fill="white"/>
<path d="M1190.99 345.431H1173.41V352.574H1190.99V345.431Z" fill="white"/>
<path fill-rule="evenodd" clip-rule="evenodd" d="M1199.24 324.019H1208.04V342.693L1222.33 324.019H1232.22L1215.18 345.434L1232.22 367.402H1222.33L1208.04 348.735V367.402H1199.24V324.019Z" fill="white"/>
<path fill-rule="evenodd" clip-rule="evenodd" d="M1256.41 335.543L1250.92 348.721H1261.36L1256.41 335.543ZM1233.88 367.394H1243.22L1247.62 356.41H1264.66L1269.61 367.394H1278.95L1259.71 324.012H1253.12L1233.88 367.394Z" fill="white"/>
<path fill-rule="evenodd" clip-rule="evenodd" d="M1876.36 335.543L1871.42 348.721H1881.86L1876.36 335.543ZM1853.83 367.394H1863.17L1868.12 356.41H1885.16L1889.56 367.394H1898.9L1879.66 324.012H1873.07L1853.83 367.394Z" fill="white"/>
<path fill-rule="evenodd" clip-rule="evenodd" d="M1291.61 343.224H1297.11C1300.4 343.224 1304.25 342.123 1304.25 337.181C1304.25 334.433 1302.05 331.693 1296.55 331.693H1291.61V343.224ZM1283.36 367.386V324.003C1293.8 324.003 1311.94 321.802 1312.49 337.181C1313.04 349.813 1300.95 351.46 1291.61 350.913V367.386H1283.36Z" fill="white"/>
<path fill-rule="evenodd" clip-rule="evenodd" d="M1486.69 348.728H1492.74C1496.03 348.728 1499.89 349.275 1500.43 354.217C1500.43 356.965 1498.24 359.705 1493.28 359.705H1486.69V348.728ZM1478.45 324.012V367.395H1493.84C1500.43 367.395 1508.67 364.1 1508.67 354.217C1508.67 344.88 1502.08 341.039 1494.39 341.039H1486.69V324.012H1478.45Z" fill="white"/>
<path fill-rule="evenodd" clip-rule="evenodd" d="M1486.69 348.728H1492.74C1496.03 348.728 1499.89 349.275 1500.43 354.217C1500.43 356.965 1498.24 359.705 1493.28 359.705H1486.69V348.728ZM1478.45 324.012V367.395H1493.84C1500.43 367.395 1508.67 364.1 1508.67 354.217C1508.67 344.88 1502.08 341.039 1494.39 341.039H1486.69V324.012H1478.45Z" fill="white"/>
<path fill-rule="evenodd" clip-rule="evenodd" d="M1741.72 348.728H1748.32C1751.06 348.728 1755.46 349.275 1755.46 354.216C1756.01 356.964 1753.81 359.712 1748.87 359.712H1741.72V348.728ZM1741.72 331.702V341.038H1749.97C1757.66 341.038 1764.25 344.88 1764.25 354.216C1764.25 364.1 1756.01 367.394 1749.41 367.394H1732.92V324.012H1759.86V331.702H1741.72Z" fill="white"/>
<path fill-rule="evenodd" clip-rule="evenodd" d="M1314.14 331.709V324.019H1339.43V331.709H1331.18V367.402H1322.39V331.709H1314.14Z" fill="white"/>
<path d="M1521.87 324.012H1513.07V367.395H1521.87V324.012Z" fill="white"/>
<path fill-rule="evenodd" clip-rule="evenodd" d="M1530.15 324.019V367.402H1538.4L1559.28 337.197V367.402H1567.53V324.019H1559.28L1538.4 354.771V324.019H1530.15Z" fill="white"/>
<path fill-rule="evenodd" clip-rule="evenodd" d="M1559.8 313.579C1559.25 316.874 1558.7 318.521 1555.95 320.168C1551.55 322.916 1543.86 322.362 1540.01 319.068C1538.92 317.974 1537.81 316.327 1537.81 313.579H1544.96C1544.96 315.227 1546.6 316.874 1548.81 316.874C1551 316.874 1552.65 315.227 1552.65 313.579H1559.8Z" fill="white"/>
<path fill-rule="evenodd" clip-rule="evenodd" d="M1590.02 324.019H1598.82V342.693L1613.11 324.019H1623L1605.96 345.434L1623 367.402H1613.11L1598.82 348.735V367.402H1590.02V324.019Z" fill="white"/>
<path fill-rule="evenodd" clip-rule="evenodd" d="M1770.31 324.019V367.402H1778.55L1798.89 337.197V367.402H1807.67V324.019H1799.43L1778.55 354.771V324.019H1770.31Z" fill="white"/>
<path fill-rule="evenodd" clip-rule="evenodd" d="M1896.72 331.702V324.012H1922V331.702H1913.76V367.394H1904.96V331.702H1896.72Z" fill="white"/>
<path fill-rule="evenodd" clip-rule="evenodd" d="M1676.33 367.394V324.012H1687.87L1700.51 357.511L1713.7 324.012H1724.69V367.394H1716.45V334.996L1704.36 367.394H1697.21L1684.57 334.996V367.394H1676.33Z" fill="white"/>
<path fill-rule="evenodd" clip-rule="evenodd" d="M905.778 344.904C905.224 364.124 935.452 366.872 937.101 346.005C937.101 326.777 907.427 326.231 905.778 344.904ZM896.981 343.257C900.826 314.7 945.898 318.541 945.343 346.005C944.249 377.856 894.231 374.562 896.981 343.257Z" fill="white"/>
<path fill-rule="evenodd" clip-rule="evenodd" d="M999.747 344.904C998.645 364.124 1029.42 366.872 1031.07 346.005C1031.07 326.777 1001.4 326.231 999.747 344.904ZM990.95 343.257C994.794 314.7 1039.32 318.541 1039.32 346.005C1038.22 377.856 988.2 374.562 990.95 343.257Z" fill="white"/>
<path fill-rule="evenodd" clip-rule="evenodd" d="M1348.75 344.904C1348.2 364.124 1378.43 366.872 1380.08 346.005C1380.08 326.777 1350.4 326.231 1348.75 344.904ZM1339.96 343.257C1344.35 314.7 1388.87 318.541 1388.32 346.005C1387.22 377.856 1337.21 374.562 1339.96 343.257Z" fill="white"/>
<path fill-rule="evenodd" clip-rule="evenodd" d="M1630.72 344.904C1630.17 364.124 1660.41 366.872 1662.05 346.005C1662.05 326.777 1632.92 326.231 1630.72 344.904ZM1622.48 343.257C1626.33 314.7 1670.84 318.541 1670.84 346.005C1669.19 377.856 1619.73 374.562 1622.48 343.257Z" fill="white"/>
<path fill-rule="evenodd" clip-rule="evenodd" d="M748.581 143.349H672.733V257.03H748.581V231.768H702.414V213.094L746.385 212.548V187.285H702.414V168.065H748.581V143.349Z" fill="white"/>
<path fill-rule="evenodd" clip-rule="evenodd" d="M751.847 257.03H784.825L818.35 180.696L852.429 257.03H885.4L830.991 143.349H806.263L751.847 257.03Z" fill="white"/>
<path fill-rule="evenodd" clip-rule="evenodd" d="M966.772 143.349H890.925V257.03H966.772V231.768H920.605V213.094L964.576 212.548V187.285H920.605V168.065H966.772V143.349Z" fill="white"/>
<path fill-rule="evenodd" clip-rule="evenodd" d="M982.707 143.349V257.03H1012.39V211.994H1054.16V257.03H1084.38V143.349H1054.16V186.184H1012.39V143.349H982.707Z" fill="white"/>
<path fill-rule="evenodd" clip-rule="evenodd" d="M1310.27 143.349V257.03H1339.95V211.994H1381.71V257.03H1411.94V143.349H1381.71V186.184H1339.95V143.349H1310.27Z" fill="white"/>
<path fill-rule="evenodd" clip-rule="evenodd" d="M1173.42 143.349H1102.52V257.03H1132.2V168.065H1173.42V143.349Z" fill="white"/>
<path fill-rule="evenodd" clip-rule="evenodd" d="M1180.04 143.349V257.03H1208.07L1261.93 186.731V257.03H1292.16V143.349H1263.58L1209.72 213.641V143.349H1180.04Z" fill="white"/>
<path fill-rule="evenodd" clip-rule="evenodd" d="M1676.33 143.349V257.03H1704.91L1758.22 186.731V257.03H1788.45V143.349H1759.86L1706.01 213.641V143.349H1676.33Z" fill="white"/>
<path fill-rule="evenodd" clip-rule="evenodd" d="M1806.59 143.349V257.03H1835.17L1888.49 186.731V257.03H1918.72V143.349H1890.14L1836.27 213.641V143.349H1806.59Z" fill="white"/>
<path fill-rule="evenodd" clip-rule="evenodd" d="M1524.62 221.843H1558.69C1547.15 246.559 1518.03 258.636 1495.5 259.19C1460.31 260.283 1423.49 238.869 1422.95 199.328C1424.59 160.334 1461.96 141.113 1492.2 141.113C1523.52 140.567 1547.71 154.845 1559.25 179.554H1525.72C1519.68 172.419 1510.33 166.923 1495.5 166.376C1477.9 165.275 1453.17 176.26 1452.63 199.875C1453.17 222.39 1475.71 235.028 1493.85 234.474C1510.88 233.927 1517.47 228.986 1524.62 221.843Z" fill="white"/>
<path fill-rule="evenodd" clip-rule="evenodd" d="M1566.94 143.349V257.03H1597.17V214.742L1633.44 257.03H1670.27L1618.06 199.362L1670.27 143.349H1633.44L1597.17 185.084V143.349H1566.94Z" fill="white"/>
<path fill-rule="evenodd" clip-rule="evenodd" d="M748.581 143.349H672.733V257.03H748.581V231.768H702.414V213.094L746.385 212.548V187.285H702.414V168.065H748.581V143.349Z" fill="white"/>
<path fill-rule="evenodd" clip-rule="evenodd" d="M751.847 257.03H784.825L818.35 180.696L852.429 257.03H885.4L830.991 143.349H806.263L751.847 257.03Z" fill="white"/>
<path fill-rule="evenodd" clip-rule="evenodd" d="M966.772 143.349H890.925V257.03H966.772V231.768H920.605V213.094L964.576 212.548V187.285H920.605V168.065H966.772V143.349Z" fill="white"/>
<path fill-rule="evenodd" clip-rule="evenodd" d="M982.707 143.349V257.03H1012.39V211.994H1054.16V257.03H1084.38V143.349H1054.16V186.184H1012.39V143.349H982.707Z" fill="white"/>
<path fill-rule="evenodd" clip-rule="evenodd" d="M1310.27 143.349V257.03H1339.95V211.994H1381.71V257.03H1411.94V143.349H1381.71V186.184H1339.95V143.349H1310.27Z" fill="white"/>
<path fill-rule="evenodd" clip-rule="evenodd" d="M1173.42 143.349H1102.52V257.03H1132.2V168.065H1173.42V143.349Z" fill="white"/>
<path fill-rule="evenodd" clip-rule="evenodd" d="M1180.04 143.349V257.03H1208.07L1261.93 186.731V257.03H1292.16V143.349H1263.58L1209.72 213.641V143.349H1180.04Z" fill="white"/>
<path fill-rule="evenodd" clip-rule="evenodd" d="M1676.33 143.349V257.03H1704.91L1758.22 186.731V257.03H1788.45V143.349H1759.86L1706.01 213.641V143.349H1676.33Z" fill="white"/>
<path fill-rule="evenodd" clip-rule="evenodd" d="M1806.59 143.349V257.03H1835.17L1888.49 186.731V257.03H1918.72V143.349H1890.14L1836.27 213.641V143.349H1806.59Z" fill="white"/>
<path fill-rule="evenodd" clip-rule="evenodd" d="M1524.62 221.843H1558.69C1547.15 246.559 1518.03 258.636 1495.5 259.19C1460.31 260.283 1423.49 238.869 1422.95 199.328C1424.59 160.334 1461.96 141.113 1492.2 141.113C1523.52 140.567 1547.71 154.845 1559.25 179.554H1525.72C1519.68 172.419 1510.33 166.923 1495.5 166.376C1477.9 165.275 1453.17 176.26 1452.63 199.875C1453.17 222.39 1475.71 235.028 1493.85 234.474C1510.88 233.927 1517.47 228.986 1524.62 221.843Z" fill="white"/>
<path fill-rule="evenodd" clip-rule="evenodd" d="M1566.94 143.349V257.03H1597.17V214.742L1633.44 257.03H1670.27L1618.06 199.362L1670.27 143.349H1633.44L1597.17 185.084V143.349H1566.94Z" fill="white"/>
<path fill-rule="evenodd" clip-rule="evenodd" d="M748.581 143.349H672.733V257.03H748.581V231.768H702.414V213.094L746.385 212.548V187.285H702.414V168.065H748.581V143.349Z" fill="white"/>
<path fill-rule="evenodd" clip-rule="evenodd" d="M751.847 257.03H784.825L818.35 180.696L852.429 257.03H885.4L830.991 143.349H806.263L751.847 257.03Z" fill="white"/>
<path fill-rule="evenodd" clip-rule="evenodd" d="M966.772 143.349H890.925V257.03H966.772V231.768H920.605V213.094L964.576 212.548V187.285H920.605V168.065H966.772V143.349Z" fill="white"/>
<path fill-rule="evenodd" clip-rule="evenodd" d="M982.707 143.349V257.03H1012.39V211.994H1054.16V257.03H1084.38V143.349H1054.16V186.184H1012.39V143.349H982.707Z" fill="white"/>
<path fill-rule="evenodd" clip-rule="evenodd" d="M1310.27 143.349V257.03H1339.95V211.994H1381.71V257.03H1411.94V143.349H1381.71V186.184H1339.95V143.349H1310.27Z" fill="white"/>
<path fill-rule="evenodd" clip-rule="evenodd" d="M1173.42 143.349H1102.52V257.03H1132.2V168.065H1173.42V143.349Z" fill="white"/>
<path fill-rule="evenodd" clip-rule="evenodd" d="M1180.04 143.349V257.03H1208.07L1261.93 186.731V257.03H1292.16V143.349H1263.58L1209.72 213.641V143.349H1180.04Z" fill="white"/>
<path fill-rule="evenodd" clip-rule="evenodd" d="M1676.33 143.349V257.03H1704.91L1758.22 186.731V257.03H1788.45V143.349H1759.86L1706.01 213.641V143.349H1676.33Z" fill="white"/>
<path fill-rule="evenodd" clip-rule="evenodd" d="M1806.59 143.349V257.03H1835.17L1888.49 186.731V257.03H1918.72V143.349H1890.14L1836.27 213.641V143.349H1806.59Z" fill="white"/>
<path fill-rule="evenodd" clip-rule="evenodd" d="M1524.62 221.843H1558.69C1547.15 246.559 1518.03 258.636 1495.5 259.19C1460.31 260.283 1423.49 238.869 1422.95 199.328C1424.59 160.334 1461.96 141.113 1492.2 141.113C1523.52 140.567 1547.71 154.845 1559.25 179.554H1525.72C1519.68 172.419 1510.33 166.923 1495.5 166.376C1477.9 165.275 1453.17 176.26 1452.63 199.875C1453.17 222.39 1475.71 235.028 1493.85 234.474C1510.88 233.927 1517.47 228.986 1524.62 221.843Z" fill="white"/>
<path fill-rule="evenodd" clip-rule="evenodd" d="M1566.94 143.349V257.03H1597.17V214.742L1633.44 257.03H1670.27L1618.06 199.362L1670.27 143.349H1633.44L1597.17 185.084V143.349H1566.94Z" fill="white"/>
<path fill-rule="evenodd" clip-rule="evenodd" d="M748.581 143.349H672.733V257.03H748.581V231.768H702.414V213.094L746.385 212.548V187.285H702.414V168.065H748.581V143.349Z" fill="white"/>
<path fill-rule="evenodd" clip-rule="evenodd" d="M751.847 257.03H784.825L818.35 180.696L852.429 257.03H885.4L830.991 143.349H806.263L751.847 257.03Z" fill="white"/>
<path fill-rule="evenodd" clip-rule="evenodd" d="M966.772 143.349H890.925V257.03H966.772V231.768H920.605V213.094L964.576 212.548V187.285H920.605V168.065H966.772V143.349Z" fill="white"/>
<path fill-rule="evenodd" clip-rule="evenodd" d="M982.707 143.349V257.03H1012.39V211.994H1054.16V257.03H1084.38V143.349H1054.16V186.184H1012.39V143.349H982.707Z" fill="white"/>
<path fill-rule="evenodd" clip-rule="evenodd" d="M1310.27 143.349V257.03H1339.95V211.994H1381.71V257.03H1411.94V143.349H1381.71V186.184H1339.95V143.349H1310.27Z" fill="white"/>
<path fill-rule="evenodd" clip-rule="evenodd" d="M1173.42 143.349H1102.52V257.03H1132.2V168.065H1173.42V143.349Z" fill="white"/>
<path fill-rule="evenodd" clip-rule="evenodd" d="M1180.04 143.349V257.03H1208.07L1261.93 186.731V257.03H1292.16V143.349H1263.58L1209.72 213.641V143.349H1180.04Z" fill="white"/>
<path fill-rule="evenodd" clip-rule="evenodd" d="M1676.33 143.349V257.03H1704.91L1758.22 186.731V257.03H1788.45V143.349H1759.86L1706.01 213.641V143.349H1676.33Z" fill="white"/>
<path fill-rule="evenodd" clip-rule="evenodd" d="M1806.59 143.349V257.03H1835.17L1888.49 186.731V257.03H1918.72V143.349H1890.14L1836.27 213.641V143.349H1806.59Z" fill="white"/>
<path fill-rule="evenodd" clip-rule="evenodd" d="M1524.62 221.843H1558.69C1547.15 246.559 1518.03 258.636 1495.5 259.19C1460.31 260.283 1423.49 238.869 1422.95 199.328C1424.59 160.334 1461.96 141.113 1492.2 141.113C1523.52 140.567 1547.71 154.845 1559.25 179.554H1525.72C1519.68 172.419 1510.33 166.923 1495.5 166.376C1477.9 165.275 1453.17 176.26 1452.63 199.875C1453.17 222.39 1475.71 235.028 1493.85 234.474C1510.88 233.927 1517.47 228.986 1524.62 221.843Z" fill="white"/>
<path fill-rule="evenodd" clip-rule="evenodd" d="M1566.94 143.349V257.03H1597.17V214.742L1633.44 257.03H1670.27L1618.06 199.362L1670.27 143.349H1633.44L1597.17 185.084V143.349H1566.94Z" fill="white"/>
<path fill-rule="evenodd" clip-rule="evenodd" d="M1912.09 74.6874C1912.09 71.3933 1910.99 68.6453 1908.24 66.4514C1906.05 63.7035 1903.3 62.6028 1899.45 62.6028C1896.15 62.6028 1893.4 63.7035 1890.65 65.8974C1888.46 68.6453 1887.36 71.3933 1887.36 74.6874C1887.36 78.529 1888.46 81.2765 1891.21 83.4703C1893.4 86.2183 1896.15 87.319 1899.45 87.319C1903.3 87.319 1906.05 86.2183 1908.24 83.4703C1910.99 81.2765 1912.09 78.529 1912.09 74.6874ZM1918.69 74.6874C1918.69 80.1758 1917.03 84.571 1913.19 87.8656C1909.34 91.7137 1904.94 93.361 1899.45 93.361C1894.51 93.361 1890.11 91.7137 1886.26 87.8656C1882.41 84.571 1880.76 80.1758 1880.76 74.6874C1880.76 69.746 1882.41 65.3508 1886.26 61.5026C1890.11 57.6614 1894.51 56.0142 1899.45 56.0142C1904.94 56.0142 1909.34 57.6614 1913.19 61.5026C1917.03 65.3508 1918.69 69.746 1918.69 74.6874ZM1870.86 81.8231C1870.86 80.7299 1870.86 79.6292 1870.32 79.0826C1869.22 77.4353 1867.57 76.8817 1865.37 76.8817H1860.97V86.2183H1865.37C1866.47 86.2183 1867.57 86.2183 1868.67 85.6717C1870.32 85.1176 1870.86 83.4703 1870.86 81.8231ZM1868.67 66.998C1868.67 65.3508 1868.12 64.2501 1867.02 63.7035C1866.47 63.1569 1865.37 63.1569 1864.27 63.1569H1860.97V70.2926H1864.27C1865.37 70.2926 1866.47 70.2926 1867.57 69.746C1868.12 69.1919 1868.67 68.0987 1868.67 66.998ZM1877.47 81.8231C1877.47 85.1176 1876.91 87.319 1874.72 88.9662C1872.51 91.7137 1868.67 92.8074 1863.18 92.8074H1854.38V57.1144H1863.18C1867.02 57.1144 1869.77 57.6614 1871.97 58.7617C1874.72 60.9555 1875.82 63.1569 1875.82 66.4514C1875.82 68.0987 1874.72 69.746 1873.61 70.8392C1873.61 71.9399 1872.51 72.4865 1871.42 73.0405C1873.61 73.5871 1875.26 74.6874 1876.36 76.3346C1876.91 77.9819 1877.47 79.6292 1877.47 81.8231ZM1850.54 63.1569H1844.49V92.8074H1837.34V63.1569H1830.75V57.1144H1850.54V63.1569ZM1829.64 66.998H1821.96C1820.85 65.8974 1819.75 64.8042 1818.65 64.2501C1817 63.1569 1815.35 62.6028 1813.16 62.6028C1809.31 62.6028 1806.56 63.7035 1804.37 66.4514C1802.17 68.6453 1800.52 71.3933 1800.52 74.6874C1800.52 77.9819 1802.17 81.2765 1804.37 83.4703C1806.56 86.2183 1809.86 87.319 1813.16 87.319C1814.81 87.319 1816.46 86.7649 1817.56 86.2183C1819.21 85.6717 1820.3 84.571 1821.4 82.9237H1829.64C1828 86.2183 1825.8 88.9662 1823.05 90.6135C1820.3 92.8074 1816.46 93.361 1813.16 93.361C1807.11 93.361 1802.17 91.1601 1798.87 87.319C1795.57 83.4703 1793.92 79.6292 1793.92 74.6874C1793.92 70.2926 1795.57 65.8974 1798.87 62.6028C1802.17 58.208 1807.11 56.0142 1813.16 56.0142C1816.46 56.0142 1820.3 57.1144 1823.05 58.7617C1825.8 60.9555 1828 63.7035 1829.64 66.998ZM1790.08 92.8074H1770.84V57.1144H1790.08V63.1569H1777.44V71.3933H1789.52V77.9819H1777.44V86.2183H1790.08V92.8074ZM1766.99 99.4035H1760.4V92.8074H1720.83V57.1144H1727.42V86.2183H1738.96V57.1144H1745.56V86.2183H1756.55V57.1144H1763.14V86.2183H1766.99V99.4035ZM1709.29 81.8231C1709.29 80.7299 1709.29 79.6292 1708.73 78.529C1707.64 77.4353 1705.99 76.8817 1704.34 76.8817H1698.29V86.2183H1704.34C1705.99 86.2183 1707.08 85.6717 1708.18 85.1176C1708.73 84.0244 1709.29 82.9237 1709.29 81.8231ZM1716.43 81.8231C1716.43 85.1176 1715.33 87.8656 1713.13 89.5128C1710.93 91.7137 1707.64 92.8074 1704.34 92.8074H1691.7V57.1144H1713.13V63.1569H1698.29V70.2926H1704.34C1708.18 70.2926 1710.93 71.3933 1713.13 73.5871C1715.33 75.788 1716.43 78.529 1716.43 81.8231ZM1680.15 74.6874C1680.15 71.3933 1679.05 68.6453 1676.86 66.4514C1674.66 63.7035 1671.36 62.6028 1668.06 62.6028C1664.76 62.6028 1661.46 63.7035 1659.27 65.8974C1657.07 68.6453 1655.97 71.3933 1655.97 74.6874C1655.97 78.529 1657.07 81.2765 1659.27 83.4703C1661.46 86.2183 1664.76 87.319 1668.06 87.319C1671.36 87.319 1674.66 86.2183 1676.86 83.4703C1679.05 81.2765 1680.15 78.529 1680.15 74.6874ZM1687.3 74.6874C1687.3 80.1758 1685.1 84.571 1681.8 87.8656C1677.96 91.7137 1673.56 93.361 1668.06 93.361C1662.57 93.361 1658.17 91.7137 1654.87 87.8656C1651.03 84.571 1649.38 80.1758 1649.38 74.6874C1649.38 69.746 1651.03 65.3508 1654.87 61.5026C1658.17 57.6614 1662.57 56.0142 1668.06 56.0142C1673.56 56.0142 1677.96 57.6614 1681.8 61.5026C1685.1 65.3508 1687.3 69.746 1687.3 74.6874ZM1633.44 92.8074H1614.2V57.1144H1633.44V63.1569H1620.8V71.3933H1632.88V77.9819H1620.8V86.2183H1633.44V92.8074ZM1602.66 74.6874C1602.66 71.3933 1601.56 68.6453 1599.36 66.4514C1597.16 63.7035 1594.41 62.6028 1590.57 62.6028C1587.27 62.6028 1583.98 63.7035 1581.77 65.8974C1579.58 68.6453 1578.48 71.3933 1578.48 74.6874C1578.48 78.529 1579.58 81.2765 1581.77 83.4703C1583.98 86.2183 1587.27 87.319 1590.57 87.319C1593.87 87.319 1597.16 86.2183 1599.36 83.4703C1601.56 81.2765 1602.66 78.529 1602.66 74.6874ZM1609.81 74.6874C1609.81 80.1758 1607.61 84.571 1604.31 87.8656C1600.46 91.7137 1596.06 93.361 1590.57 93.361C1585.07 93.361 1580.67 91.7137 1576.83 87.8656C1573.53 84.571 1571.33 80.1758 1571.33 74.6874C1571.33 69.746 1573.53 65.3508 1576.83 61.5026C1580.67 57.6614 1585.07 56.0142 1590.57 56.0142C1596.06 56.0142 1600.46 57.6614 1604.31 61.5026C1607.61 65.3508 1609.81 69.746 1609.81 74.6874ZM1566.94 92.8074H1560.34V77.4353H1547.15V92.8074H1540.55V57.1144H1547.15V71.3933H1560.34V57.1144H1566.94V92.8074ZM1529.56 68.0987C1529.56 65.8974 1529.01 64.8042 1527.36 64.2501C1526.26 63.1569 1525.16 63.1569 1523.51 63.1569H1519.67V72.4865H1523.51C1525.72 72.4865 1527.36 72.4865 1527.91 71.3933C1529.01 70.2926 1529.56 69.1919 1529.56 68.0987ZM1536.15 68.0987C1536.15 70.8392 1535.06 73.0405 1533.4 75.2344C1531.21 77.4353 1527.91 79.0826 1523.51 79.0826H1519.67V92.8074H1513.07V57.1144H1523.51C1528.46 57.1144 1531.76 58.208 1533.96 60.9555C1535.61 63.1569 1536.15 65.3508 1536.15 68.0987ZM1507.03 92.8074H1487.79V57.1144H1507.03V63.1569H1494.39V71.3933H1506.48V77.9819H1494.39V86.2183H1507.03V92.8074ZM1481.2 92.8074H1474.6V77.4353H1461.41V92.8074H1454.81V57.1144H1461.41V71.3933H1474.6V57.1144H1481.2V92.8074ZM1443.27 74.6874C1443.27 71.3933 1442.17 68.6453 1439.42 66.4514C1437.23 63.7035 1434.48 62.6028 1430.63 62.6028C1427.34 62.6028 1424.59 63.7035 1421.84 65.8974C1419.64 68.6453 1418.54 71.3933 1418.54 74.6874C1418.54 78.529 1419.64 81.2765 1421.84 83.4703C1424.59 86.2183 1427.34 87.319 1430.63 87.319C1434.48 87.319 1437.23 86.2183 1439.42 83.4703C1442.17 81.2765 1443.27 78.529 1443.27 74.6874ZM1449.87 74.6874C1449.87 80.1758 1448.22 84.571 1444.38 87.8656C1440.52 91.7137 1436.13 93.361 1430.63 93.361C1425.69 93.361 1420.74 91.7137 1417.44 87.8656C1413.59 84.571 1411.94 80.1758 1411.94 74.6874C1411.94 69.746 1413.59 65.3508 1417.44 61.5026C1420.74 57.6614 1425.69 56.0142 1430.63 56.0142C1436.13 56.0142 1440.52 57.6614 1444.38 61.5026C1448.22 65.3508 1449.87 69.746 1449.87 74.6874ZM1407 92.8074H1400.4V67.5446L1384.47 92.8074H1377.87V57.1144H1384.47V81.8231L1400.4 57.1144H1407V92.8074ZM1374.02 99.4035H1367.43V92.8074H1343.79V57.1144H1350.39V86.2183H1363.58V57.1144H1370.18V86.2183H1374.02V99.4035ZM1339.39 92.8074H1331.15L1320.16 76.8817V92.8074H1313.56V57.1144H1320.16V72.4865L1331.15 57.1144H1339.39L1325.65 74.6874L1339.39 92.8074ZM1296.53 76.8817L1292.13 66.4514L1288.28 76.8817H1296.53ZM1309.72 92.8074H1302.57L1298.73 83.4703H1285.53L1281.69 92.8074H1274.54L1289.38 57.1144H1294.88L1309.72 92.8074ZM1260.26 92.8074H1241.01V57.1144H1260.26V63.1569H1247.61V71.3933H1259.7V77.9819H1247.61V86.2183H1260.26V92.8074ZM1229.47 74.6874C1229.47 71.3933 1228.37 68.6453 1225.62 66.4514C1223.43 63.7035 1220.68 62.6028 1217.38 62.6028C1213.54 62.6028 1210.79 63.7035 1208.04 65.8974C1205.84 68.6453 1204.74 71.3933 1204.74 74.6874C1204.74 78.529 1205.84 81.2765 1208.59 83.4703C1210.79 86.2183 1213.54 87.319 1217.38 87.319C1220.68 87.319 1223.43 86.2183 1225.62 83.4703C1228.37 81.2765 1229.47 78.529 1229.47 74.6874ZM1236.07 74.6874C1236.07 80.1758 1234.42 84.571 1230.57 87.8656C1226.73 91.7137 1222.33 93.361 1217.38 93.361C1211.89 93.361 1207.49 91.7137 1203.65 87.8656C1199.79 84.571 1198.15 80.1758 1198.15 74.6874C1198.15 69.746 1199.79 65.3508 1203.65 61.5026C1207.49 57.6614 1211.89 56.0142 1217.38 56.0142C1222.33 56.0142 1226.73 57.6614 1230.57 61.5026C1234.42 65.3508 1236.07 69.746 1236.07 74.6874ZM1197.6 63.1569H1191V92.8074H1184.4V63.1569H1177.81V57.1144H1197.6V63.1569ZM1156.92 81.8231C1156.92 80.1758 1156.92 79.0826 1155.83 78.529C1154.73 77.4353 1153.63 76.8817 1151.98 76.8817H1146.49V86.2183H1151.98C1153.63 86.2183 1154.73 85.6717 1155.83 85.1176C1156.92 84.0244 1156.92 82.9237 1156.92 81.8231ZM1164.07 81.8231C1164.07 85.1176 1162.42 87.8656 1160.22 89.5128C1158.03 91.7137 1155.28 92.8074 1151.98 92.8074H1139.89V57.1144H1146.49V70.2926H1151.98C1155.83 70.2926 1159.13 71.9399 1161.32 74.1408C1162.97 75.788 1164.07 78.529 1164.07 81.8231ZM1173.96 92.8074H1167.37V57.1144H1173.96V92.8074ZM1128.89 68.0987C1128.89 65.8974 1128.35 64.8042 1126.7 64.2501C1125.6 63.1569 1124.5 63.1569 1123.4 63.1569H1119.56V72.4865H1123.4C1125.05 72.4865 1126.7 72.4865 1127.8 71.3933C1128.35 70.2926 1128.89 69.1919 1128.89 68.0987ZM1135.49 68.0987C1135.49 70.8392 1134.94 73.0405 1133.29 75.2344C1131.1 77.4353 1127.24 79.0826 1122.85 79.0826H1119.56V92.8074H1112.41V57.1144H1122.85C1127.8 57.1144 1131.1 58.208 1133.29 60.9555C1134.94 63.1569 1135.49 65.3508 1135.49 68.0987ZM1108.01 92.8074H1100.31L1089.32 76.8817V92.8074H1082.18V57.1144H1089.32V72.4865L1100.31 57.1144H1108.01L1094.82 74.6874L1108.01 92.8074ZM1078.88 63.1569H1072.29V92.8074H1065.69V63.1569H1059.1V57.1144H1078.88V63.1569ZM1051.95 74.6874C1051.95 71.3933 1050.85 68.6453 1048.65 66.4514C1045.9 63.7035 1043.15 62.6028 1039.31 62.6028C1036.01 62.6028 1033.26 63.7035 1031.07 65.8974C1028.32 68.6453 1027.22 71.3933 1027.22 74.6874C1027.22 78.529 1028.32 81.2765 1031.07 83.4703C1033.26 86.2183 1036.01 87.319 1039.31 87.319C1043.15 87.319 1045.9 86.2183 1048.65 83.4703C1050.85 81.2765 1051.95 78.529 1051.95 74.6874ZM1058.55 74.6874C1058.55 80.1758 1056.9 84.571 1053.05 87.8656C1049.76 91.7137 1044.8 93.361 1039.31 93.361C1034.36 93.361 1029.97 91.7137 1026.12 87.8656C1022.27 84.571 1020.62 80.1758 1020.62 74.6874C1020.62 69.746 1022.27 65.3508 1026.12 61.5026C1029.97 57.6614 1034.36 56.0142 1039.31 56.0142C1044.8 56.0142 1049.76 57.6614 1053.05 61.5026C1056.9 65.3508 1058.55 69.746 1058.55 74.6874Z" fill="white"/>
<path fill-rule="evenodd" clip-rule="evenodd" d="M1897.81 116.967C1895.61 127.405 1893.42 131.8 1885.17 137.835C1872.53 146.071 1846.7 144.978 1836.26 134.54C1831.86 130.699 1828.01 125.203 1827.47 116.967H1853.3C1853.84 121.909 1856.05 124.11 1863.19 124.11C1869.23 124.11 1870.88 122.463 1871.43 116.967H1897.81Z" fill="white"/>
<path fill-rule="evenodd" clip-rule="evenodd" d="M1912.09 74.6874C1912.09 71.3933 1910.99 68.6453 1908.24 66.4514C1906.05 63.7035 1903.3 62.6028 1899.45 62.6028C1896.15 62.6028 1893.4 63.7035 1890.65 65.8974C1888.46 68.6453 1887.36 71.3933 1887.36 74.6874C1887.36 78.529 1888.46 81.2765 1891.21 83.4703C1893.4 86.2183 1896.15 87.319 1899.45 87.319C1903.3 87.319 1906.05 86.2183 1908.24 83.4703C1910.99 81.2765 1912.09 78.529 1912.09 74.6874ZM1918.69 74.6874C1918.69 80.1758 1917.03 84.571 1913.19 87.8656C1909.34 91.7137 1904.94 93.361 1899.45 93.361C1894.51 93.361 1890.11 91.7137 1886.26 87.8656C1882.41 84.571 1880.76 80.1758 1880.76 74.6874C1880.76 69.746 1882.41 65.3508 1886.26 61.5026C1890.11 57.6614 1894.51 56.0142 1899.45 56.0142C1904.94 56.0142 1909.34 57.6614 1913.19 61.5026C1917.03 65.3508 1918.69 69.746 1918.69 74.6874ZM1870.86 81.8231C1870.86 80.7299 1870.86 79.6292 1870.32 79.0826C1869.22 77.4353 1867.57 76.8817 1865.37 76.8817H1860.97V86.2183H1865.37C1866.47 86.2183 1867.57 86.2183 1868.67 85.6717C1870.32 85.1176 1870.86 83.4703 1870.86 81.8231ZM1868.67 66.998C1868.67 65.3508 1868.12 64.2501 1867.02 63.7035C1866.47 63.1569 1865.37 63.1569 1864.27 63.1569H1860.97V70.2926H1864.27C1865.37 70.2926 1866.47 70.2926 1867.57 69.746C1868.12 69.1919 1868.67 68.0987 1868.67 66.998ZM1877.47 81.8231C1877.47 85.1176 1876.91 87.319 1874.72 88.9662C1872.51 91.7137 1868.67 92.8074 1863.18 92.8074H1854.38V57.1144H1863.18C1867.02 57.1144 1869.77 57.6614 1871.97 58.7617C1874.72 60.9555 1875.82 63.1569 1875.82 66.4514C1875.82 68.0987 1874.72 69.746 1873.61 70.8392C1873.61 71.9399 1872.51 72.4865 1871.42 73.0405C1873.61 73.5871 1875.26 74.6874 1876.36 76.3346C1876.91 77.9819 1877.47 79.6292 1877.47 81.8231ZM1850.54 63.1569H1844.49V92.8074H1837.34V63.1569H1830.75V57.1144H1850.54V63.1569ZM1829.64 66.998H1821.96C1820.85 65.8974 1819.75 64.8042 1818.65 64.2501C1817 63.1569 1815.35 62.6028 1813.16 62.6028C1809.31 62.6028 1806.56 63.7035 1804.37 66.4514C1802.17 68.6453 1800.52 71.3933 1800.52 74.6874C1800.52 77.9819 1802.17 81.2765 1804.37 83.4703C1806.56 86.2183 1809.86 87.319 1813.16 87.319C1814.81 87.319 1816.46 86.7649 1817.56 86.2183C1819.21 85.6717 1820.3 84.571 1821.4 82.9237H1829.64C1828 86.2183 1825.8 88.9662 1823.05 90.6135C1820.3 92.8074 1816.46 93.361 1813.16 93.361C1807.11 93.361 1802.17 91.1601 1798.87 87.319C1795.57 83.4703 1793.92 79.6292 1793.92 74.6874C1793.92 70.2926 1795.57 65.8974 1798.87 62.6028C1802.17 58.208 1807.11 56.0142 1813.16 56.0142C1816.46 56.0142 1820.3 57.1144 1823.05 58.7617C1825.8 60.9555 1828 63.7035 1829.64 66.998ZM1790.08 92.8074H1770.84V57.1144H1790.08V63.1569H1777.44V71.3933H1789.52V77.9819H1777.44V86.2183H1790.08V92.8074ZM1766.99 99.4035H1760.4V92.8074H1720.83V57.1144H1727.42V86.2183H1738.96V57.1144H1745.56V86.2183H1756.55V57.1144H1763.14V86.2183H1766.99V99.4035ZM1709.29 81.8231C1709.29 80.7299 1709.29 79.6292 1708.73 78.529C1707.64 77.4353 1705.99 76.8817 1704.34 76.8817H1698.29V86.2183H1704.34C1705.99 86.2183 1707.08 85.6717 1708.18 85.1176C1708.73 84.0244 1709.29 82.9237 1709.29 81.8231ZM1716.43 81.8231C1716.43 85.1176 1715.33 87.8656 1713.13 89.5128C1710.93 91.7137 1707.64 92.8074 1704.34 92.8074H1691.7V57.1144H1713.13V63.1569H1698.29V70.2926H1704.34C1708.18 70.2926 1710.93 71.3933 1713.13 73.5871C1715.33 75.788 1716.43 78.529 1716.43 81.8231ZM1680.15 74.6874C1680.15 71.3933 1679.05 68.6453 1676.86 66.4514C1674.66 63.7035 1671.36 62.6028 1668.06 62.6028C1664.76 62.6028 1661.46 63.7035 1659.27 65.8974C1657.07 68.6453 1655.97 71.3933 1655.97 74.6874C1655.97 78.529 1657.07 81.2765 1659.27 83.4703C1661.46 86.2183 1664.76 87.319 1668.06 87.319C1671.36 87.319 1674.66 86.2183 1676.86 83.4703C1679.05 81.2765 1680.15 78.529 1680.15 74.6874ZM1687.3 74.6874C1687.3 80.1758 1685.1 84.571 1681.8 87.8656C1677.96 91.7137 1673.56 93.361 1668.06 93.361C1662.57 93.361 1658.17 91.7137 1654.87 87.8656C1651.03 84.571 1649.38 80.1758 1649.38 74.6874C1649.38 69.746 1651.03 65.3508 1654.87 61.5026C1658.17 57.6614 1662.57 56.0142 1668.06 56.0142C1673.56 56.0142 1677.96 57.6614 1681.8 61.5026C1685.1 65.3508 1687.3 69.746 1687.3 74.6874ZM1633.44 92.8074H1614.2V57.1144H1633.44V63.1569H1620.8V71.3933H1632.88V77.9819H1620.8V86.2183H1633.44V92.8074ZM1602.66 74.6874C1602.66 71.3933 1601.56 68.6453 1599.36 66.4514C1597.16 63.7035 1594.41 62.6028 1590.57 62.6028C1587.27 62.6028 1583.98 63.7035 1581.77 65.8974C1579.58 68.6453 1578.48 71.3933 1578.48 74.6874C1578.48 78.529 1579.58 81.2765 1581.77 83.4703C1583.98 86.2183 1587.27 87.319 1590.57 87.319C1593.87 87.319 1597.16 86.2183 1599.36 83.4703C1601.56 81.2765 1602.66 78.529 1602.66 74.6874ZM1609.81 74.6874C1609.81 80.1758 1607.61 84.571 1604.31 87.8656C1600.46 91.7137 1596.06 93.361 1590.57 93.361C1585.07 93.361 1580.67 91.7137 1576.83 87.8656C1573.53 84.571 1571.33 80.1758 1571.33 74.6874C1571.33 69.746 1573.53 65.3508 1576.83 61.5026C1580.67 57.6614 1585.07 56.0142 1590.57 56.0142C1596.06 56.0142 1600.46 57.6614 1604.31 61.5026C1607.61 65.3508 1609.81 69.746 1609.81 74.6874ZM1566.94 92.8074H1560.34V77.4353H1547.15V92.8074H1540.55V57.1144H1547.15V71.3933H1560.34V57.1144H1566.94V92.8074ZM1529.56 68.0987C1529.56 65.8974 1529.01 64.8042 1527.36 64.2501C1526.26 63.1569 1525.16 63.1569 1523.51 63.1569H1519.67V72.4865H1523.51C1525.72 72.4865 1527.36 72.4865 1527.91 71.3933C1529.01 70.2926 1529.56 69.1919 1529.56 68.0987ZM1536.15 68.0987C1536.15 70.8392 1535.06 73.0405 1533.4 75.2344C1531.21 77.4353 1527.91 79.0826 1523.51 79.0826H1519.67V92.8074H1513.07V57.1144H1523.51C1528.46 57.1144 1531.76 58.208 1533.96 60.9555C1535.61 63.1569 1536.15 65.3508 1536.15 68.0987ZM1507.03 92.8074H1487.79V57.1144H1507.03V63.1569H1494.39V71.3933H1506.48V77.9819H1494.39V86.2183H1507.03V92.8074ZM1481.2 92.8074H1474.6V77.4353H1461.41V92.8074H1454.81V57.1144H1461.41V71.3933H1474.6V57.1144H1481.2V92.8074ZM1443.27 74.6874C1443.27 71.3933 1442.17 68.6453 1439.42 66.4514C1437.23 63.7035 1434.48 62.6028 1430.63 62.6028C1427.34 62.6028 1424.59 63.7035 1421.84 65.8974C1419.64 68.6453 1418.54 71.3933 1418.54 74.6874C1418.54 78.529 1419.64 81.2765 1421.84 83.4703C1424.59 86.2183 1427.34 87.319 1430.63 87.319C1434.48 87.319 1437.23 86.2183 1439.42 83.4703C1442.17 81.2765 1443.27 78.529 1443.27 74.6874ZM1449.87 74.6874C1449.87 80.1758 1448.22 84.571 1444.38 87.8656C1440.52 91.7137 1436.13 93.361 1430.63 93.361C1425.69 93.361 1420.74 91.7137 1417.44 87.8656C1413.59 84.571 1411.94 80.1758 1411.94 74.6874C1411.94 69.746 1413.59 65.3508 1417.44 61.5026C1420.74 57.6614 1425.69 56.0142 1430.63 56.0142C1436.13 56.0142 1440.52 57.6614 1444.38 61.5026C1448.22 65.3508 1449.87 69.746 1449.87 74.6874ZM1407 92.8074H1400.4V67.5446L1384.47 92.8074H1377.87V57.1144H1384.47V81.8231L1400.4 57.1144H1407V92.8074ZM1374.02 99.4035H1367.43V92.8074H1343.79V57.1144H1350.39V86.2183H1363.58V57.1144H1370.18V86.2183H1374.02V99.4035ZM1339.39 92.8074H1331.15L1320.16 76.8817V92.8074H1313.56V57.1144H1320.16V72.4865L1331.15 57.1144H1339.39L1325.65 74.6874L1339.39 92.8074ZM1296.53 76.8817L1292.13 66.4514L1288.28 76.8817H1296.53ZM1309.72 92.8074H1302.57L1298.73 83.4703H1285.53L1281.69 92.8074H1274.54L1289.38 57.1144H1294.88L1309.72 92.8074ZM1260.26 92.8074H1241.01V57.1144H1260.26V63.1569H1247.61V71.3933H1259.7V77.9819H1247.61V86.2183H1260.26V92.8074ZM1229.47 74.6874C1229.47 71.3933 1228.37 68.6453 1225.62 66.4514C1223.43 63.7035 1220.68 62.6028 1217.38 62.6028C1213.54 62.6028 1210.79 63.7035 1208.04 65.8974C1205.84 68.6453 1204.74 71.3933 1204.74 74.6874C1204.74 78.529 1205.84 81.2765 1208.59 83.4703C1210.79 86.2183 1213.54 87.319 1217.38 87.319C1220.68 87.319 1223.43 86.2183 1225.62 83.4703C1228.37 81.2765 1229.47 78.529 1229.47 74.6874ZM1236.07 74.6874C1236.07 80.1758 1234.42 84.571 1230.57 87.8656C1226.73 91.7137 1222.33 93.361 1217.38 93.361C1211.89 93.361 1207.49 91.7137 1203.65 87.8656C1199.79 84.571 1198.15 80.1758 1198.15 74.6874C1198.15 69.746 1199.79 65.3508 1203.65 61.5026C1207.49 57.6614 1211.89 56.0142 1217.38 56.0142C1222.33 56.0142 1226.73 57.6614 1230.57 61.5026C1234.42 65.3508 1236.07 69.746 1236.07 74.6874ZM1197.6 63.1569H1191V92.8074H1184.4V63.1569H1177.81V57.1144H1197.6V63.1569ZM1156.92 81.8231C1156.92 80.1758 1156.92 79.0826 1155.83 78.529C1154.73 77.4353 1153.63 76.8817 1151.98 76.8817H1146.49V86.2183H1151.98C1153.63 86.2183 1154.73 85.6717 1155.83 85.1176C1156.92 84.0244 1156.92 82.9237 1156.92 81.8231ZM1164.07 81.8231C1164.07 85.1176 1162.42 87.8656 1160.22 89.5128C1158.03 91.7137 1155.28 92.8074 1151.98 92.8074H1139.89V57.1144H1146.49V70.2926H1151.98C1155.83 70.2926 1159.13 71.9399 1161.32 74.1408C1162.97 75.788 1164.07 78.529 1164.07 81.8231ZM1173.96 92.8074H1167.37V57.1144H1173.96V92.8074ZM1128.89 68.0987C1128.89 65.8974 1128.35 64.8042 1126.7 64.2501C1125.6 63.1569 1124.5 63.1569 1123.4 63.1569H1119.56V72.4865H1123.4C1125.05 72.4865 1126.7 72.4865 1127.8 71.3933C1128.35 70.2926 1128.89 69.1919 1128.89 68.0987ZM1135.49 68.0987C1135.49 70.8392 1134.94 73.0405 1133.29 75.2344C1131.1 77.4353 1127.24 79.0826 1122.85 79.0826H1119.56V92.8074H1112.41V57.1144H1122.85C1127.8 57.1144 1131.1 58.208 1133.29 60.9555C1134.94 63.1569 1135.49 65.3508 1135.49 68.0987ZM1108.01 92.8074H1100.31L1089.32 76.8817V92.8074H1082.18V57.1144H1089.32V72.4865L1100.31 57.1144H1108.01L1094.82 74.6874L1108.01 92.8074ZM1078.88 63.1569H1072.29V92.8074H1065.69V63.1569H1059.1V57.1144H1078.88V63.1569ZM1051.95 74.6874C1051.95 71.3933 1050.85 68.6453 1048.65 66.4514C1045.9 63.7035 1043.15 62.6028 1039.31 62.6028C1036.01 62.6028 1033.26 63.7035 1031.07 65.8974C1028.32 68.6453 1027.22 71.3933 1027.22 74.6874C1027.22 78.529 1028.32 81.2765 1031.07 83.4703C1033.26 86.2183 1036.01 87.319 1039.31 87.319C1043.15 87.319 1045.9 86.2183 1048.65 83.4703C1050.85 81.2765 1051.95 78.529 1051.95 74.6874ZM1058.55 74.6874C1058.55 80.1758 1056.9 84.571 1053.05 87.8656C1049.76 91.7137 1044.8 93.361 1039.31 93.361C1034.36 93.361 1029.97 91.7137 1026.12 87.8656C1022.27 84.571 1020.62 80.1758 1020.62 74.6874C1020.62 69.746 1022.27 65.3508 1026.12 61.5026C1029.97 57.6614 1034.36 56.0142 1039.31 56.0142C1044.8 56.0142 1049.76 57.6614 1053.05 61.5026C1056.9 65.3508 1058.55 69.746 1058.55 74.6874Z" fill="white"/>
<path fill-rule="evenodd" clip-rule="evenodd" d="M1897.81 116.967C1895.61 127.405 1893.42 131.8 1885.17 137.835C1872.53 146.071 1846.7 144.978 1836.26 134.54C1831.86 130.699 1828.01 125.203 1827.47 116.967H1853.3C1853.84 121.909 1856.05 124.11 1863.19 124.11C1869.23 124.11 1870.88 122.463 1871.43 116.967H1897.81Z" fill="white"/>
<path fill-rule="evenodd" clip-rule="evenodd" d="M1912.09 74.6874C1912.09 71.3933 1910.99 68.6453 1908.24 66.4514C1906.05 63.7035 1903.3 62.6028 1899.45 62.6028C1896.15 62.6028 1893.4 63.7035 1890.65 65.8974C1888.46 68.6453 1887.36 71.3933 1887.36 74.6874C1887.36 78.529 1888.46 81.2765 1891.21 83.4703C1893.4 86.2183 1896.15 87.319 1899.45 87.319C1903.3 87.319 1906.05 86.2183 1908.24 83.4703C1910.99 81.2765 1912.09 78.529 1912.09 74.6874ZM1918.69 74.6874C1918.69 80.1758 1917.03 84.571 1913.19 87.8656C1909.34 91.7137 1904.94 93.361 1899.45 93.361C1894.51 93.361 1890.11 91.7137 1886.26 87.8656C1882.41 84.571 1880.76 80.1758 1880.76 74.6874C1880.76 69.746 1882.41 65.3508 1886.26 61.5026C1890.11 57.6614 1894.51 56.0142 1899.45 56.0142C1904.94 56.0142 1909.34 57.6614 1913.19 61.5026C1917.03 65.3508 1918.69 69.746 1918.69 74.6874ZM1870.86 81.8231C1870.86 80.7299 1870.86 79.6292 1870.32 79.0826C1869.22 77.4353 1867.57 76.8817 1865.37 76.8817H1860.97V86.2183H1865.37C1866.47 86.2183 1867.57 86.2183 1868.67 85.6717C1870.32 85.1176 1870.86 83.4703 1870.86 81.8231ZM1868.67 66.998C1868.67 65.3508 1868.12 64.2501 1867.02 63.7035C1866.47 63.1569 1865.37 63.1569 1864.27 63.1569H1860.97V70.2926H1864.27C1865.37 70.2926 1866.47 70.2926 1867.57 69.746C1868.12 69.1919 1868.67 68.0987 1868.67 66.998ZM1877.47 81.8231C1877.47 85.1176 1876.91 87.319 1874.72 88.9662C1872.51 91.7137 1868.67 92.8074 1863.18 92.8074H1854.38V57.1144H1863.18C1867.02 57.1144 1869.77 57.6614 1871.97 58.7617C1874.72 60.9555 1875.82 63.1569 1875.82 66.4514C1875.82 68.0987 1874.72 69.746 1873.61 70.8392C1873.61 71.9399 1872.51 72.4865 1871.42 73.0405C1873.61 73.5871 1875.26 74.6874 1876.36 76.3346C1876.91 77.9819 1877.47 79.6292 1877.47 81.8231ZM1850.54 63.1569H1844.49V92.8074H1837.34V63.1569H1830.75V57.1144H1850.54V63.1569ZM1829.64 66.998H1821.96C1820.85 65.8974 1819.75 64.8042 1818.65 64.2501C1817 63.1569 1815.35 62.6028 1813.16 62.6028C1809.31 62.6028 1806.56 63.7035 1804.37 66.4514C1802.17 68.6453 1800.52 71.3933 1800.52 74.6874C1800.52 77.9819 1802.17 81.2765 1804.37 83.4703C1806.56 86.2183 1809.86 87.319 1813.16 87.319C1814.81 87.319 1816.46 86.7649 1817.56 86.2183C1819.21 85.6717 1820.3 84.571 1821.4 82.9237H1829.64C1828 86.2183 1825.8 88.9662 1823.05 90.6135C1820.3 92.8074 1816.46 93.361 1813.16 93.361C1807.11 93.361 1802.17 91.1601 1798.87 87.319C1795.57 83.4703 1793.92 79.6292 1793.92 74.6874C1793.92 70.2926 1795.57 65.8974 1798.87 62.6028C1802.17 58.208 1807.11 56.0142 1813.16 56.0142C1816.46 56.0142 1820.3 57.1144 1823.05 58.7617C1825.8 60.9555 1828 63.7035 1829.64 66.998ZM1790.08 92.8074H1770.84V57.1144H1790.08V63.1569H1777.44V71.3933H1789.52V77.9819H1777.44V86.2183H1790.08V92.8074ZM1766.99 99.4035H1760.4V92.8074H1720.83V57.1144H1727.42V86.2183H1738.96V57.1144H1745.56V86.2183H1756.55V57.1144H1763.14V86.2183H1766.99V99.4035ZM1709.29 81.8231C1709.29 80.7299 1709.29 79.6292 1708.73 78.529C1707.64 77.4353 1705.99 76.8817 1704.34 76.8817H1698.29V86.2183H1704.34C1705.99 86.2183 1707.08 85.6717 1708.18 85.1176C1708.73 84.0244 1709.29 82.9237 1709.29 81.8231ZM1716.43 81.8231C1716.43 85.1176 1715.33 87.8656 1713.13 89.5128C1710.93 91.7137 1707.64 92.8074 1704.34 92.8074H1691.7V57.1144H1713.13V63.1569H1698.29V70.2926H1704.34C1708.18 70.2926 1710.93 71.3933 1713.13 73.5871C1715.33 75.788 1716.43 78.529 1716.43 81.8231ZM1680.15 74.6874C1680.15 71.3933 1679.05 68.6453 1676.86 66.4514C1674.66 63.7035 1671.36 62.6028 1668.06 62.6028C1664.76 62.6028 1661.46 63.7035 1659.27 65.8974C1657.07 68.6453 1655.97 71.3933 1655.97 74.6874C1655.97 78.529 1657.07 81.2765 1659.27 83.4703C1661.46 86.2183 1664.76 87.319 1668.06 87.319C1671.36 87.319 1674.66 86.2183 1676.86 83.4703C1679.05 81.2765 1680.15 78.529 1680.15 74.6874ZM1687.3 74.6874C1687.3 80.1758 1685.1 84.571 1681.8 87.8656C1677.96 91.7137 1673.56 93.361 1668.06 93.361C1662.57 93.361 1658.17 91.7137 1654.87 87.8656C1651.03 84.571 1649.38 80.1758 1649.38 74.6874C1649.38 69.746 1651.03 65.3508 1654.87 61.5026C1658.17 57.6614 1662.57 56.0142 1668.06 56.0142C1673.56 56.0142 1677.96 57.6614 1681.8 61.5026C1685.1 65.3508 1687.3 69.746 1687.3 74.6874ZM1633.44 92.8074H1614.2V57.1144H1633.44V63.1569H1620.8V71.3933H1632.88V77.9819H1620.8V86.2183H1633.44V92.8074ZM1602.66 74.6874C1602.66 71.3933 1601.56 68.6453 1599.36 66.4514C1597.16 63.7035 1594.41 62.6028 1590.57 62.6028C1587.27 62.6028 1583.98 63.7035 1581.77 65.8974C1579.58 68.6453 1578.48 71.3933 1578.48 74.6874C1578.48 78.529 1579.58 81.2765 1581.77 83.4703C1583.98 86.2183 1587.27 87.319 1590.57 87.319C1593.87 87.319 1597.16 86.2183 1599.36 83.4703C1601.56 81.2765 1602.66 78.529 1602.66 74.6874ZM1609.81 74.6874C1609.81 80.1758 1607.61 84.571 1604.31 87.8656C1600.46 91.7137 1596.06 93.361 1590.57 93.361C1585.07 93.361 1580.67 91.7137 1576.83 87.8656C1573.53 84.571 1571.33 80.1758 1571.33 74.6874C1571.33 69.746 1573.53 65.3508 1576.83 61.5026C1580.67 57.6614 1585.07 56.0142 1590.57 56.0142C1596.06 56.0142 1600.46 57.6614 1604.31 61.5026C1607.61 65.3508 1609.81 69.746 1609.81 74.6874ZM1566.94 92.8074H1560.34V77.4353H1547.15V92.8074H1540.55V57.1144H1547.15V71.3933H1560.34V57.1144H1566.94V92.8074ZM1529.56 68.0987C1529.56 65.8974 1529.01 64.8042 1527.36 64.2501C1526.26 63.1569 1525.16 63.1569 1523.51 63.1569H1519.67V72.4865H1523.51C1525.72 72.4865 1527.36 72.4865 1527.91 71.3933C1529.01 70.2926 1529.56 69.1919 1529.56 68.0987ZM1536.15 68.0987C1536.15 70.8392 1535.06 73.0405 1533.4 75.2344C1531.21 77.4353 1527.91 79.0826 1523.51 79.0826H1519.67V92.8074H1513.07V57.1144H1523.51C1528.46 57.1144 1531.76 58.208 1533.96 60.9555C1535.61 63.1569 1536.15 65.3508 1536.15 68.0987ZM1507.03 92.8074H1487.79V57.1144H1507.03V63.1569H1494.39V71.3933H1506.48V77.9819H1494.39V86.2183H1507.03V92.8074ZM1481.2 92.8074H1474.6V77.4353H1461.41V92.8074H1454.81V57.1144H1461.41V71.3933H1474.6V57.1144H1481.2V92.8074ZM1443.27 74.6874C1443.27 71.3933 1442.17 68.6453 1439.42 66.4514C1437.23 63.7035 1434.48 62.6028 1430.63 62.6028C1427.34 62.6028 1424.59 63.7035 1421.84 65.8974C1419.64 68.6453 1418.54 71.3933 1418.54 74.6874C1418.54 78.529 1419.64 81.2765 1421.84 83.4703C1424.59 86.2183 1427.34 87.319 1430.63 87.319C1434.48 87.319 1437.23 86.2183 1439.42 83.4703C1442.17 81.2765 1443.27 78.529 1443.27 74.6874ZM1449.87 74.6874C1449.87 80.1758 1448.22 84.571 1444.38 87.8656C1440.52 91.7137 1436.13 93.361 1430.63 93.361C1425.69 93.361 1420.74 91.7137 1417.44 87.8656C1413.59 84.571 1411.94 80.1758 1411.94 74.6874C1411.94 69.746 1413.59 65.3508 1417.44 61.5026C1420.74 57.6614 1425.69 56.0142 1430.63 56.0142C1436.13 56.0142 1440.52 57.6614 1444.38 61.5026C1448.22 65.3508 1449.87 69.746 1449.87 74.6874ZM1407 92.8074H1400.4V67.5446L1384.47 92.8074H1377.87V57.1144H1384.47V81.8231L1400.4 57.1144H1407V92.8074ZM1374.02 99.4035H1367.43V92.8074H1343.79V57.1144H1350.39V86.2183H1363.58V57.1144H1370.18V86.2183H1374.02V99.4035ZM1339.39 92.8074H1331.15L1320.16 76.8817V92.8074H1313.56V57.1144H1320.16V72.4865L1331.15 57.1144H1339.39L1325.65 74.6874L1339.39 92.8074ZM1296.53 76.8817L1292.13 66.4514L1288.28 76.8817H1296.53ZM1309.72 92.8074H1302.57L1298.73 83.4703H1285.53L1281.69 92.8074H1274.54L1289.38 57.1144H1294.88L1309.72 92.8074ZM1260.26 92.8074H1241.01V57.1144H1260.26V63.1569H1247.61V71.3933H1259.7V77.9819H1247.61V86.2183H1260.26V92.8074ZM1229.47 74.6874C1229.47 71.3933 1228.37 68.6453 1225.62 66.4514C1223.43 63.7035 1220.68 62.6028 1217.38 62.6028C1213.54 62.6028 1210.79 63.7035 1208.04 65.8974C1205.84 68.6453 1204.74 71.3933 1204.74 74.6874C1204.74 78.529 1205.84 81.2765 1208.59 83.4703C1210.79 86.2183 1213.54 87.319 1217.38 87.319C1220.68 87.319 1223.43 86.2183 1225.62 83.4703C1228.37 81.2765 1229.47 78.529 1229.47 74.6874ZM1236.07 74.6874C1236.07 80.1758 1234.42 84.571 1230.57 87.8656C1226.73 91.7137 1222.33 93.361 1217.38 93.361C1211.89 93.361 1207.49 91.7137 1203.65 87.8656C1199.79 84.571 1198.15 80.1758 1198.15 74.6874C1198.15 69.746 1199.79 65.3508 1203.65 61.5026C1207.49 57.6614 1211.89 56.0142 1217.38 56.0142C1222.33 56.0142 1226.73 57.6614 1230.57 61.5026C1234.42 65.3508 1236.07 69.746 1236.07 74.6874ZM1197.6 63.1569H1191V92.8074H1184.4V63.1569H1177.81V57.1144H1197.6V63.1569ZM1156.92 81.8231C1156.92 80.1758 1156.92 79.0826 1155.83 78.529C1154.73 77.4353 1153.63 76.8817 1151.98 76.8817H1146.49V86.2183H1151.98C1153.63 86.2183 1154.73 85.6717 1155.83 85.1176C1156.92 84.0244 1156.92 82.9237 1156.92 81.8231ZM1164.07 81.8231C1164.07 85.1176 1162.42 87.8656 1160.22 89.5128C1158.03 91.7137 1155.28 92.8074 1151.98 92.8074H1139.89V57.1144H1146.49V70.2926H1151.98C1155.83 70.2926 1159.13 71.9399 1161.32 74.1408C1162.97 75.788 1164.07 78.529 1164.07 81.8231ZM1173.96 92.8074H1167.37V57.1144H1173.96V92.8074ZM1128.89 68.0987C1128.89 65.8974 1128.35 64.8042 1126.7 64.2501C1125.6 63.1569 1124.5 63.1569 1123.4 63.1569H1119.56V72.4865H1123.4C1125.05 72.4865 1126.7 72.4865 1127.8 71.3933C1128.35 70.2926 1128.89 69.1919 1128.89 68.0987ZM1135.49 68.0987C1135.49 70.8392 1134.94 73.0405 1133.29 75.2344C1131.1 77.4353 1127.24 79.0826 1122.85 79.0826H1119.56V92.8074H1112.41V57.1144H1122.85C1127.8 57.1144 1131.1 58.208 1133.29 60.9555C1134.94 63.1569 1135.49 65.3508 1135.49 68.0987ZM1108.01 92.8074H1100.31L1089.32 76.8817V92.8074H1082.18V57.1144H1089.32V72.4865L1100.31 57.1144H1108.01L1094.82 74.6874L1108.01 92.8074ZM1078.88 63.1569H1072.29V92.8074H1065.69V63.1569H1059.1V57.1144H1078.88V63.1569ZM1051.95 74.6874C1051.95 71.3933 1050.85 68.6453 1048.65 66.4514C1045.9 63.7035 1043.15 62.6028 1039.31 62.6028C1036.01 62.6028 1033.26 63.7035 1031.07 65.8974C1028.32 68.6453 1027.22 71.3933 1027.22 74.6874C1027.22 78.529 1028.32 81.2765 1031.07 83.4703C1033.26 86.2183 1036.01 87.319 1039.31 87.319C1043.15 87.319 1045.9 86.2183 1048.65 83.4703C1050.85 81.2765 1051.95 78.529 1051.95 74.6874ZM1058.55 74.6874C1058.55 80.1758 1056.9 84.571 1053.05 87.8656C1049.76 91.7137 1044.8 93.361 1039.31 93.361C1034.36 93.361 1029.97 91.7137 1026.12 87.8656C1022.27 84.571 1020.62 80.1758 1020.62 74.6874C1020.62 69.746 1022.27 65.3508 1026.12 61.5026C1029.97 57.6614 1034.36 56.0142 1039.31 56.0142C1044.8 56.0142 1049.76 57.6614 1053.05 61.5026C1056.9 65.3508 1058.55 69.746 1058.55 74.6874Z" fill="white"/>
<path fill-rule="evenodd" clip-rule="evenodd" d="M1897.81 116.967C1895.61 127.405 1893.42 131.8 1885.17 137.835C1872.53 146.071 1846.7 144.978 1836.26 134.54C1831.86 130.699 1828.01 125.203 1827.47 116.967H1853.3C1853.84 121.909 1856.05 124.11 1863.19 124.11C1869.23 124.11 1870.88 122.463 1871.43 116.967H1897.81Z" fill="white"/>
<path fill-rule="evenodd" clip-rule="evenodd" d="M1912.09 74.6874C1912.09 71.3933 1910.99 68.6453 1908.24 66.4514C1906.05 63.7035 1903.3 62.6028 1899.45 62.6028C1896.15 62.6028 1893.4 63.7035 1890.65 65.8974C1888.46 68.6453 1887.36 71.3933 1887.36 74.6874C1887.36 78.529 1888.46 81.2765 1891.21 83.4703C1893.4 86.2183 1896.15 87.319 1899.45 87.319C1903.3 87.319 1906.05 86.2183 1908.24 83.4703C1910.99 81.2765 1912.09 78.529 1912.09 74.6874ZM1918.69 74.6874C1918.69 80.1758 1917.03 84.571 1913.19 87.8656C1909.34 91.7137 1904.94 93.361 1899.45 93.361C1894.51 93.361 1890.11 91.7137 1886.26 87.8656C1882.41 84.571 1880.76 80.1758 1880.76 74.6874C1880.76 69.746 1882.41 65.3508 1886.26 61.5026C1890.11 57.6614 1894.51 56.0142 1899.45 56.0142C1904.94 56.0142 1909.34 57.6614 1913.19 61.5026C1917.03 65.3508 1918.69 69.746 1918.69 74.6874ZM1870.86 81.8231C1870.86 80.7299 1870.86 79.6292 1870.32 79.0826C1869.22 77.4353 1867.57 76.8817 1865.37 76.8817H1860.97V86.2183H1865.37C1866.47 86.2183 1867.57 86.2183 1868.67 85.6717C1870.32 85.1176 1870.86 83.4703 1870.86 81.8231ZM1868.67 66.998C1868.67 65.3508 1868.12 64.2501 1867.02 63.7035C1866.47 63.1569 1865.37 63.1569 1864.27 63.1569H1860.97V70.2926H1864.27C1865.37 70.2926 1866.47 70.2926 1867.57 69.746C1868.12 69.1919 1868.67 68.0987 1868.67 66.998ZM1877.47 81.8231C1877.47 85.1176 1876.91 87.319 1874.72 88.9662C1872.51 91.7137 1868.67 92.8074 1863.18 92.8074H1854.38V57.1144H1863.18C1867.02 57.1144 1869.77 57.6614 1871.97 58.7617C1874.72 60.9555 1875.82 63.1569 1875.82 66.4514C1875.82 68.0987 1874.72 69.746 1873.61 70.8392C1873.61 71.9399 1872.51 72.4865 1871.42 73.0405C1873.61 73.5871 1875.26 74.6874 1876.36 76.3346C1876.91 77.9819 1877.47 79.6292 1877.47 81.8231ZM1850.54 63.1569H1844.49V92.8074H1837.34V63.1569H1830.75V57.1144H1850.54V63.1569ZM1829.64 66.998H1821.96C1820.85 65.8974 1819.75 64.8042 1818.65 64.2501C1817 63.1569 1815.35 62.6028 1813.16 62.6028C1809.31 62.6028 1806.56 63.7035 1804.37 66.4514C1802.17 68.6453 1800.52 71.3933 1800.52 74.6874C1800.52 77.9819 1802.17 81.2765 1804.37 83.4703C1806.56 86.2183 1809.86 87.319 1813.16 87.319C1814.81 87.319 1816.46 86.7649 1817.56 86.2183C1819.21 85.6717 1820.3 84.571 1821.4 82.9237H1829.64C1828 86.2183 1825.8 88.9662 1823.05 90.6135C1820.3 92.8074 1816.46 93.361 1813.16 93.361C1807.11 93.361 1802.17 91.1601 1798.87 87.319C1795.57 83.4703 1793.92 79.6292 1793.92 74.6874C1793.92 70.2926 1795.57 65.8974 1798.87 62.6028C1802.17 58.208 1807.11 56.0142 1813.16 56.0142C1816.46 56.0142 1820.3 57.1144 1823.05 58.7617C1825.8 60.9555 1828 63.7035 1829.64 66.998ZM1790.08 92.8074H1770.84V57.1144H1790.08V63.1569H1777.44V71.3933H1789.52V77.9819H1777.44V86.2183H1790.08V92.8074ZM1766.99 99.4035H1760.4V92.8074H1720.83V57.1144H1727.42V86.2183H1738.96V57.1144H1745.56V86.2183H1756.55V57.1144H1763.14V86.2183H1766.99V99.4035ZM1709.29 81.8231C1709.29 80.7299 1709.29 79.6292 1708.73 78.529C1707.64 77.4353 1705.99 76.8817 1704.34 76.8817H1698.29V86.2183H1704.34C1705.99 86.2183 1707.08 85.6717 1708.18 85.1176C1708.73 84.0244 1709.29 82.9237 1709.29 81.8231ZM1716.43 81.8231C1716.43 85.1176 1715.33 87.8656 1713.13 89.5128C1710.93 91.7137 1707.64 92.8074 1704.34 92.8074H1691.7V57.1144H1713.13V63.1569H1698.29V70.2926H1704.34C1708.18 70.2926 1710.93 71.3933 1713.13 73.5871C1715.33 75.788 1716.43 78.529 1716.43 81.8231ZM1680.15 74.6874C1680.15 71.3933 1679.05 68.6453 1676.86 66.4514C1674.66 63.7035 1671.36 62.6028 1668.06 62.6028C1664.76 62.6028 1661.46 63.7035 1659.27 65.8974C1657.07 68.6453 1655.97 71.3933 1655.97 74.6874C1655.97 78.529 1657.07 81.2765 1659.27 83.4703C1661.46 86.2183 1664.76 87.319 1668.06 87.319C1671.36 87.319 1674.66 86.2183 1676.86 83.4703C1679.05 81.2765 1680.15 78.529 1680.15 74.6874ZM1687.3 74.6874C1687.3 80.1758 1685.1 84.571 1681.8 87.8656C1677.96 91.7137 1673.56 93.361 1668.06 93.361C1662.57 93.361 1658.17 91.7137 1654.87 87.8656C1651.03 84.571 1649.38 80.1758 1649.38 74.6874C1649.38 69.746 1651.03 65.3508 1654.87 61.5026C1658.17 57.6614 1662.57 56.0142 1668.06 56.0142C1673.56 56.0142 1677.96 57.6614 1681.8 61.5026C1685.1 65.3508 1687.3 69.746 1687.3 74.6874ZM1633.44 92.8074H1614.2V57.1144H1633.44V63.1569H1620.8V71.3933H1632.88V77.9819H1620.8V86.2183H1633.44V92.8074ZM1602.66 74.6874C1602.66 71.3933 1601.56 68.6453 1599.36 66.4514C1597.16 63.7035 1594.41 62.6028 1590.57 62.6028C1587.27 62.6028 1583.98 63.7035 1581.77 65.8974C1579.58 68.6453 1578.48 71.3933 1578.48 74.6874C1578.48 78.529 1579.58 81.2765 1581.77 83.4703C1583.98 86.2183 1587.27 87.319 1590.57 87.319C1593.87 87.319 1597.16 86.2183 1599.36 83.4703C1601.56 81.2765 1602.66 78.529 1602.66 74.6874ZM1609.81 74.6874C1609.81 80.1758 1607.61 84.571 1604.31 87.8656C1600.46 91.7137 1596.06 93.361 1590.57 93.361C1585.07 93.361 1580.67 91.7137 1576.83 87.8656C1573.53 84.571 1571.33 80.1758 1571.33 74.6874C1571.33 69.746 1573.53 65.3508 1576.83 61.5026C1580.67 57.6614 1585.07 56.0142 1590.57 56.0142C1596.06 56.0142 1600.46 57.6614 1604.31 61.5026C1607.61 65.3508 1609.81 69.746 1609.81 74.6874ZM1566.94 92.8074H1560.34V77.4353H1547.15V92.8074H1540.55V57.1144H1547.15V71.3933H1560.34V57.1144H1566.94V92.8074ZM1529.56 68.0987C1529.56 65.8974 1529.01 64.8042 1527.36 64.2501C1526.26 63.1569 1525.16 63.1569 1523.51 63.1569H1519.67V72.4865H1523.51C1525.72 72.4865 1527.36 72.4865 1527.91 71.3933C1529.01 70.2926 1529.56 69.1919 1529.56 68.0987ZM1536.15 68.0987C1536.15 70.8392 1535.06 73.0405 1533.4 75.2344C1531.21 77.4353 1527.91 79.0826 1523.51 79.0826H1519.67V92.8074H1513.07V57.1144H1523.51C1528.46 57.1144 1531.76 58.208 1533.96 60.9555C1535.61 63.1569 1536.15 65.3508 1536.15 68.0987ZM1507.03 92.8074H1487.79V57.1144H1507.03V63.1569H1494.39V71.3933H1506.48V77.9819H1494.39V86.2183H1507.03V92.8074ZM1481.2 92.8074H1474.6V77.4353H1461.41V92.8074H1454.81V57.1144H1461.41V71.3933H1474.6V57.1144H1481.2V92.8074ZM1443.27 74.6874C1443.27 71.3933 1442.17 68.6453 1439.42 66.4514C1437.23 63.7035 1434.48 62.6028 1430.63 62.6028C1427.34 62.6028 1424.59 63.7035 1421.84 65.8974C1419.64 68.6453 1418.54 71.3933 1418.54 74.6874C1418.54 78.529 1419.64 81.2765 1421.84 83.4703C1424.59 86.2183 1427.34 87.319 1430.63 87.319C1434.48 87.319 1437.23 86.2183 1439.42 83.4703C1442.17 81.2765 1443.27 78.529 1443.27 74.6874ZM1449.87 74.6874C1449.87 80.1758 1448.22 84.571 1444.38 87.8656C1440.52 91.7137 1436.13 93.361 1430.63 93.361C1425.69 93.361 1420.74 91.7137 1417.44 87.8656C1413.59 84.571 1411.94 80.1758 1411.94 74.6874C1411.94 69.746 1413.59 65.3508 1417.44 61.5026C1420.74 57.6614 1425.69 56.0142 1430.63 56.0142C1436.13 56.0142 1440.52 57.6614 1444.38 61.5026C1448.22 65.3508 1449.87 69.746 1449.87 74.6874ZM1407 92.8074H1400.4V67.5446L1384.47 92.8074H1377.87V57.1144H1384.47V81.8231L1400.4 57.1144H1407V92.8074ZM1374.02 99.4035H1367.43V92.8074H1343.79V57.1144H1350.39V86.2183H1363.58V57.1144H1370.18V86.2183H1374.02V99.4035ZM1339.39 92.8074H1331.15L1320.16 76.8817V92.8074H1313.56V57.1144H1320.16V72.4865L1331.15 57.1144H1339.39L1325.65 74.6874L1339.39 92.8074ZM1296.53 76.8817L1292.13 66.4514L1288.28 76.8817H1296.53ZM1309.72 92.8074H1302.57L1298.73 83.4703H1285.53L1281.69 92.8074H1274.54L1289.38 57.1144H1294.88L1309.72 92.8074ZM1260.26 92.8074H1241.01V57.1144H1260.26V63.1569H1247.61V71.3933H1259.7V77.9819H1247.61V86.2183H1260.26V92.8074ZM1229.47 74.6874C1229.47 71.3933 1228.37 68.6453 1225.62 66.4514C1223.43 63.7035 1220.68 62.6028 1217.38 62.6028C1213.54 62.6028 1210.79 63.7035 1208.04 65.8974C1205.84 68.6453 1204.74 71.3933 1204.74 74.6874C1204.74 78.529 1205.84 81.2765 1208.59 83.4703C1210.79 86.2183 1213.54 87.319 1217.38 87.319C1220.68 87.319 1223.43 86.2183 1225.62 83.4703C1228.37 81.2765 1229.47 78.529 1229.47 74.6874ZM1236.07 74.6874C1236.07 80.1758 1234.42 84.571 1230.57 87.8656C1226.73 91.7137 1222.33 93.361 1217.38 93.361C1211.89 93.361 1207.49 91.7137 1203.65 87.8656C1199.79 84.571 1198.15 80.1758 1198.15 74.6874C1198.15 69.746 1199.79 65.3508 1203.65 61.5026C1207.49 57.6614 1211.89 56.0142 1217.38 56.0142C1222.33 56.0142 1226.73 57.6614 1230.57 61.5026C1234.42 65.3508 1236.07 69.746 1236.07 74.6874ZM1197.6 63.1569H1191V92.8074H1184.4V63.1569H1177.81V57.1144H1197.6V63.1569ZM1156.92 81.8231C1156.92 80.1758 1156.92 79.0826 1155.83 78.529C1154.73 77.4353 1153.63 76.8817 1151.98 76.8817H1146.49V86.2183H1151.98C1153.63 86.2183 1154.73 85.6717 1155.83 85.1176C1156.92 84.0244 1156.92 82.9237 1156.92 81.8231ZM1164.07 81.8231C1164.07 85.1176 1162.42 87.8656 1160.22 89.5128C1158.03 91.7137 1155.28 92.8074 1151.98 92.8074H1139.89V57.1144H1146.49V70.2926H1151.98C1155.83 70.2926 1159.13 71.9399 1161.32 74.1408C1162.97 75.788 1164.07 78.529 1164.07 81.8231ZM1173.96 92.8074H1167.37V57.1144H1173.96V92.8074ZM1128.89 68.0987C1128.89 65.8974 1128.35 64.8042 1126.7 64.2501C1125.6 63.1569 1124.5 63.1569 1123.4 63.1569H1119.56V72.4865H1123.4C1125.05 72.4865 1126.7 72.4865 1127.8 71.3933C1128.35 70.2926 1128.89 69.1919 1128.89 68.0987ZM1135.49 68.0987C1135.49 70.8392 1134.94 73.0405 1133.29 75.2344C1131.1 77.4353 1127.24 79.0826 1122.85 79.0826H1119.56V92.8074H1112.41V57.1144H1122.85C1127.8 57.1144 1131.1 58.208 1133.29 60.9555C1134.94 63.1569 1135.49 65.3508 1135.49 68.0987ZM1108.01 92.8074H1100.31L1089.32 76.8817V92.8074H1082.18V57.1144H1089.32V72.4865L1100.31 57.1144H1108.01L1094.82 74.6874L1108.01 92.8074ZM1078.88 63.1569H1072.29V92.8074H1065.69V63.1569H1059.1V57.1144H1078.88V63.1569ZM1051.95 74.6874C1051.95 71.3933 1050.85 68.6453 1048.65 66.4514C1045.9 63.7035 1043.15 62.6028 1039.31 62.6028C1036.01 62.6028 1033.26 63.7035 1031.07 65.8974C1028.32 68.6453 1027.22 71.3933 1027.22 74.6874C1027.22 78.529 1028.32 81.2765 1031.07 83.4703C1033.26 86.2183 1036.01 87.319 1039.31 87.319C1043.15 87.319 1045.9 86.2183 1048.65 83.4703C1050.85 81.2765 1051.95 78.529 1051.95 74.6874ZM1058.55 74.6874C1058.55 80.1758 1056.9 84.571 1053.05 87.8656C1049.76 91.7137 1044.8 93.361 1039.31 93.361C1034.36 93.361 1029.97 91.7137 1026.12 87.8656C1022.27 84.571 1020.62 80.1758 1020.62 74.6874C1020.62 69.746 1022.27 65.3508 1026.12 61.5026C1029.97 57.6614 1034.36 56.0142 1039.31 56.0142C1044.8 56.0142 1049.76 57.6614 1053.05 61.5026C1056.9 65.3508 1058.55 69.746 1058.55 74.6874Z" fill="white"/>
<path fill-rule="evenodd" clip-rule="evenodd" d="M1897.81 116.967C1895.61 127.405 1893.42 131.8 1885.17 137.835C1872.53 146.071 1846.7 144.978 1836.26 134.54C1831.86 130.699 1828.01 125.203 1827.47 116.967H1853.3C1853.84 121.909 1856.05 124.11 1863.19 124.11C1869.23 124.11 1870.88 122.463 1871.43 116.967H1897.81Z" fill="white"/>
</svg>
