<svg width="240" height="51" viewBox="0 0 240 51" fill="none" xmlns="http://www.w3.org/2000/svg">
<path fill-rule="evenodd" clip-rule="evenodd" d="M89.5586 40.4913V45.982H93.4015V46.9429H94.4308V44.9518H93.7449V40.4913H92.7156V44.9518H90.5879V40.4913H89.5586Z" fill="white"/>
<path fill-rule="evenodd" clip-rule="evenodd" d="M89.5586 40.4913V45.982H93.4015V46.9429H94.4308V44.9518H93.7449V40.4913H92.7156V44.9518H90.5879V40.4913H89.5586Z" fill="white"/>
<path fill-rule="evenodd" clip-rule="evenodd" d="M89.5586 40.4913V45.982H93.4015V46.9429H94.4308V44.9518H93.7449V40.4913H92.7156V44.9518H90.5879V40.4913H89.5586Z" fill="white"/>
<path fill-rule="evenodd" clip-rule="evenodd" d="M30.3351 0L0 50.2373H68.7677C77.2778 49.6197 84.4836 44.0608 87.984 38.3643H239.656V35.5507H82.2192C80.3665 39.256 75.15 44.1291 67.6692 44.2666C58.3357 44.5408 47.9729 38.2268 47.6978 25.5303C48.5904 6.99997 65.2673 3.3629 75.3559 8.44184C78.1012 9.8136 80.8465 12.6964 82.0133 14.8242H89.4942C77.8954 -7.96083 46.051 -2.33356 41.5905 21.1382L30.3351 0ZM30.1281 10.9133L21.8238 24.5707C24.7058 22.7863 31.9808 21.962 37.8831 24.159L30.1281 10.9133ZM26.2843 32.5999C27.1077 32.5999 38.9124 34.3159 39.53 29.5804C39.0499 22.9229 19.1468 24.3648 18.3234 31.7081C18.1176 33.4925 20.2453 36.3745 24.2258 36.992L26.2843 32.5999ZM31.3632 44.8162C36.8538 43.9928 42.207 39.3939 41.5202 32.8057C40.5592 33.2174 35.3437 36.9237 28.137 35.4827L26.9019 38.0905C26.7652 38.5022 30.6081 39.1198 33.6276 38.9822L31.3632 44.8162ZM18.6668 37.953C18.7352 39.8749 22.6473 45.1596 27.9311 44.6104C28.137 43.787 28.6862 42.9627 29.0296 41.7275C26.4218 40.9041 25.1867 41.9334 18.6668 37.953ZM30.4023 6.24609C36.0988 15.5113 39.3924 21.7562 43.2362 29.3062C46.0498 34.8652 43.6479 42.826 36.9905 46.1197C25.255 51.4737 11.3226 42.9627 15.8523 30.0604C19.2161 22.3054 25.4609 13.5894 30.4023 6.24609ZM30.1281 10.9133L21.8238 24.5707C24.7058 22.7863 31.9808 21.962 37.8831 24.159L30.1281 10.9133ZM26.2843 32.5999C27.1077 32.5999 38.9124 34.3159 39.53 29.5804C39.0499 22.9229 19.1468 24.3648 18.3234 31.7081C18.1176 33.4925 20.2453 36.3745 24.2258 36.992L26.2843 32.5999ZM31.3632 44.8162C36.8538 43.9928 42.207 39.3939 41.5202 32.8057C40.5592 33.2174 35.3437 36.9237 28.137 35.4827L26.9019 38.0905C26.7652 38.5022 30.6081 39.1198 33.6276 38.9822L31.3632 44.8162ZM18.6668 37.953C18.7352 39.8749 22.6473 45.1596 27.9311 44.6104C28.137 43.787 28.6862 42.9627 29.0296 41.7275C26.4218 40.9041 25.1867 41.9334 18.6668 37.953ZM30.4023 6.24609C36.0988 15.5113 39.3924 21.7562 43.2362 29.3062C46.0498 34.8652 43.6479 42.826 36.9905 46.1197C25.255 51.4737 11.3226 42.9627 15.8523 30.0604C19.2161 22.3054 25.4609 13.5894 30.4023 6.24609ZM30.1281 10.9133L21.8238 24.5707C24.7058 22.7863 31.9808 21.962 37.8831 24.159L30.1281 10.9133ZM26.2843 32.5999C27.1077 32.5999 38.9124 34.3159 39.53 29.5804C39.0499 22.9229 19.1468 24.3648 18.3234 31.7081C18.1176 33.4925 20.2453 36.3745 24.2258 36.992L26.2843 32.5999ZM31.3632 44.8162C36.8538 43.9928 42.207 39.3939 41.5202 32.8057C40.5592 33.2174 35.3437 36.9237 28.137 35.4827L26.9019 38.0905C26.7652 38.5022 30.6081 39.1198 33.6276 38.9822L31.3632 44.8162ZM18.6668 37.953C18.7352 39.8749 22.6473 45.1596 27.9311 44.6104C28.137 43.787 28.6862 42.9627 29.0296 41.7275C26.4218 40.9041 25.1867 41.9334 18.6668 37.953ZM30.4023 6.24609C36.0988 15.5113 39.3924 21.7562 43.2362 29.3062C46.0498 34.8652 43.6479 42.826 36.9905 46.1197C25.255 51.4737 11.3226 42.9627 15.8523 30.0604C19.2161 22.3054 25.4609 13.5894 30.4023 6.24609Z" fill="white"/>
<path fill-rule="evenodd" clip-rule="evenodd" d="M89.5586 40.4913V45.982H93.4015V46.9429H94.4308V44.9518H93.7449V40.4913H92.7156V44.9518H90.5879V40.4913H89.5586Z" fill="white"/>
<path fill-rule="evenodd" clip-rule="evenodd" d="M76.3199 31.2257H81.6037C79.2027 37.128 73.3687 41.0392 66.9863 41.0392C58.3387 41.0392 51.2695 33.971 51.2695 25.3233C51.2695 16.7449 58.3387 9.67578 66.9863 9.67578C73.3004 9.67578 79.1335 13.4503 81.5354 19.2152H76.3199C74.8096 16.4698 72.0643 13.9996 66.8488 13.9313C60.0547 13.8621 55.7992 19.8327 55.8684 25.1175C55.8684 32.4608 61.564 36.7163 67.2605 36.6471C70.8292 36.6471 74.9472 34.451 76.3199 31.2257Z" fill="white"/>
<path fill-rule="evenodd" clip-rule="evenodd" d="M98.0731 44.9518V45.9127H94.9844V40.4913H98.0731V41.4514H96.0136V42.7557H97.9355V43.7167H96.0136V44.9518H98.0731Z" fill="white"/>
<path fill-rule="evenodd" clip-rule="evenodd" d="M103.975 45.9127L101.71 40.4913H100.75L98.4844 45.9127H99.6512L101.23 41.864L102.808 45.9127H103.975Z" fill="white"/>
<path fill-rule="evenodd" clip-rule="evenodd" d="M109.53 45.9136L107.264 40.4922H106.304L104.039 45.9136H105.206L106.784 41.8648L108.363 45.9136H109.53Z" fill="white"/>
<path fill-rule="evenodd" clip-rule="evenodd" d="M123.671 45.9127L121.407 40.4913H120.514L118.25 45.9127H119.348L120.926 41.864L122.574 45.9127H123.671Z" fill="white"/>
<path fill-rule="evenodd" clip-rule="evenodd" d="M112.072 43.6492V42.6883H111.111V40.4922H110.082V45.9136H111.111V43.6492H112.072Z" fill="white"/>
<path fill-rule="evenodd" clip-rule="evenodd" d="M140.828 43.1021C140.76 45.504 144.534 45.8474 144.74 43.2396C144.74 40.8368 141.103 40.7685 140.828 43.1021ZM139.799 42.8962C140.279 39.3275 145.838 39.8076 145.838 43.2396C145.632 47.2201 139.456 46.8084 139.799 42.8962Z" fill="white"/>
<path fill-rule="evenodd" clip-rule="evenodd" d="M130.401 41.9321C130.401 41.0394 130.95 40.4911 131.98 40.4219C132.735 40.4219 133.215 40.5594 133.558 40.9711C134.107 41.5887 133.97 42.6872 133.215 43.0297L133.078 43.0989C133.696 43.1672 134.45 44.1282 133.902 45.2266C133.284 46.2559 131.225 46.3242 130.539 45.295C130.264 44.9516 130.195 44.6774 130.195 44.2657H131.294C131.225 44.9516 131.842 45.1574 132.529 45.0208C132.735 44.9516 132.941 44.7457 133.009 44.5398C133.078 44.1965 132.941 43.854 132.597 43.7164C132.461 43.6481 132.255 43.6481 132.048 43.6481H131.705V42.6179C132.117 42.6179 132.597 42.6872 132.803 42.3438C133.009 41.7945 132.666 41.3828 132.186 41.3828C131.842 41.3828 131.43 41.5204 131.43 41.9321H130.401Z" fill="white"/>
<path fill-rule="evenodd" clip-rule="evenodd" d="M135.888 40.4913H134.789V45.9127H135.888V43.6484H137.946V45.9127H139.045V40.4913H137.946V42.6874H135.888V40.4913Z" fill="white"/>
<path fill-rule="evenodd" clip-rule="evenodd" d="M175.146 40.4922H174.117V45.9136H175.146V43.6492H177.274V45.9136H178.303V40.4922H177.274V42.6883H175.146V40.4922Z" fill="white"/>
<path fill-rule="evenodd" clip-rule="evenodd" d="M180.431 40.4913H179.332V45.9127H180.431V43.6484H182.49V45.9127H183.588V40.4913H182.49V42.6874H180.431V40.4913Z" fill="white"/>
<path fill-rule="evenodd" clip-rule="evenodd" d="M227.851 40.4922H226.754V45.9136H227.851V43.6492H229.911V45.9136H230.94V40.4922H229.911V42.6883H227.851V40.4922Z" fill="white"/>
<path d="M148.72 43.168H146.523V44.0606H148.72V43.168Z" fill="white"/>
<path fill-rule="evenodd" clip-rule="evenodd" d="M149.75 40.4922H150.848V42.8258L152.633 40.4922H153.868L151.74 43.1683L153.868 45.9136H152.633L150.848 43.5809V45.9136H149.75V40.4922Z" fill="white"/>
<path fill-rule="evenodd" clip-rule="evenodd" d="M156.888 41.9323L156.202 43.5791H157.505L156.888 41.9323ZM154.074 45.9127H155.241L155.79 44.5401H157.917L158.536 45.9127H159.702L157.3 40.4913H156.476L154.074 45.9127Z" fill="white"/>
<path fill-rule="evenodd" clip-rule="evenodd" d="M234.302 41.9323L233.684 43.5791H234.989L234.302 41.9323ZM231.488 45.9127H232.655L233.273 44.5401H235.4L235.95 45.9127H237.116L234.714 40.4913H233.89L231.488 45.9127Z" fill="white"/>
<path fill-rule="evenodd" clip-rule="evenodd" d="M161.283 42.8921H161.97C162.382 42.8921 162.862 42.7546 162.862 42.137C162.862 41.7936 162.588 41.4511 161.901 41.4511H161.283V42.8921ZM160.254 45.9116V40.4902C161.557 40.4902 163.823 40.2151 163.891 42.137C163.96 43.7155 162.45 43.9214 161.283 43.8531V45.9116H160.254Z" fill="white"/>
<path fill-rule="evenodd" clip-rule="evenodd" d="M185.643 43.58H186.398C186.809 43.58 187.29 43.6484 187.359 44.2659C187.359 44.6093 187.084 44.9518 186.466 44.9518H185.643V43.58ZM184.613 40.4913V45.9127H186.535C187.359 45.9127 188.388 45.5011 188.388 44.2659C188.388 43.0991 187.564 42.6191 186.603 42.6191H185.643V40.4913H184.613Z" fill="white"/>
<path fill-rule="evenodd" clip-rule="evenodd" d="M185.643 43.58H186.398C186.809 43.58 187.29 43.6484 187.359 44.2659C187.359 44.6093 187.084 44.9518 186.466 44.9518H185.643V43.58ZM184.613 40.4913V45.9127H186.535C187.359 45.9127 188.388 45.5011 188.388 44.2659C188.388 43.0991 187.564 42.6191 186.603 42.6191H185.643V40.4913H184.613Z" fill="white"/>
<path fill-rule="evenodd" clip-rule="evenodd" d="M217.489 43.58H218.313C218.656 43.58 219.205 43.6483 219.205 44.2659C219.273 44.6093 218.999 44.9527 218.382 44.9527H217.489V43.58ZM217.489 41.4523V42.6191H218.519C219.479 42.6191 220.303 43.0991 220.303 44.2659C220.303 45.501 219.273 45.9127 218.45 45.9127H216.391V40.4913H219.754V41.4523H217.489Z" fill="white"/>
<path fill-rule="evenodd" clip-rule="evenodd" d="M164.098 41.4531V40.4922H167.255V41.4531H166.225V45.9136H165.127V41.4531H164.098Z" fill="white"/>
<path d="M190.036 40.4913H188.938V45.9127H190.036V40.4913Z" fill="white"/>
<path fill-rule="evenodd" clip-rule="evenodd" d="M191.07 40.4922V45.9136H192.1L194.707 42.139V45.9136H195.738V40.4922H194.707L192.1 44.3351V40.4922H191.07Z" fill="white"/>
<path fill-rule="evenodd" clip-rule="evenodd" d="M194.773 39.1875C194.703 39.5992 194.635 39.8051 194.292 40.0109C193.742 40.3543 192.782 40.2851 192.302 39.8734C192.165 39.7368 192.027 39.5309 192.027 39.1875H192.919C192.919 39.3934 193.125 39.5992 193.4 39.5992C193.674 39.5992 193.88 39.3934 193.88 39.1875H194.773Z" fill="white"/>
<path fill-rule="evenodd" clip-rule="evenodd" d="M198.547 40.4922H199.645V42.8258L201.43 40.4922H202.665L200.537 43.1683L202.665 45.9136H201.43L199.645 43.5809V45.9136H198.547V40.4922Z" fill="white"/>
<path fill-rule="evenodd" clip-rule="evenodd" d="M221.059 40.4922V45.9136H222.088L224.627 42.139V45.9136H225.725V40.4922H224.696L222.088 44.3351V40.4922H221.059Z" fill="white"/>
<path fill-rule="evenodd" clip-rule="evenodd" d="M236.844 41.4523V40.4913H240.001V41.4523H238.971V45.9127H237.873V41.4523H236.844Z" fill="white"/>
<path fill-rule="evenodd" clip-rule="evenodd" d="M209.324 45.9127V40.4913H210.765L212.344 44.6776L213.991 40.4913H215.363V45.9127H214.334V41.864L212.825 45.9127H211.932L210.353 41.864V45.9127H209.324Z" fill="white"/>
<path fill-rule="evenodd" clip-rule="evenodd" d="M113.104 43.1021C113.035 45.504 116.81 45.8474 117.016 43.2396C117.016 40.8368 113.31 40.7685 113.104 43.1021ZM112.006 42.8962C112.486 39.3275 118.114 39.8076 118.045 43.2396C117.908 47.2201 111.662 46.8084 112.006 42.8962Z" fill="white"/>
<path fill-rule="evenodd" clip-rule="evenodd" d="M124.839 43.1021C124.701 45.504 128.544 45.8474 128.75 43.2396C128.75 40.8368 125.045 40.7685 124.839 43.1021ZM123.74 42.8962C124.22 39.3275 129.78 39.8076 129.78 43.2396C129.643 47.2201 123.397 46.8084 123.74 42.8962Z" fill="white"/>
<path fill-rule="evenodd" clip-rule="evenodd" d="M168.42 43.1021C168.352 45.504 172.126 45.8474 172.332 43.2396C172.332 40.8368 168.626 40.7685 168.42 43.1021ZM167.322 42.8962C167.871 39.3275 173.43 39.8076 173.361 43.2396C173.224 47.2201 166.979 46.8084 167.322 42.8962Z" fill="white"/>
<path fill-rule="evenodd" clip-rule="evenodd" d="M203.629 43.1021C203.56 45.504 207.335 45.8474 207.541 43.2396C207.541 40.8368 203.903 40.7685 203.629 43.1021ZM202.6 42.8962C203.08 39.3275 208.639 39.8076 208.639 43.2396C208.433 47.2201 202.256 46.8084 202.6 42.8962Z" fill="white"/>
<path fill-rule="evenodd" clip-rule="evenodd" d="M76.3199 31.2257H81.6037C79.2027 37.128 73.3687 41.0392 66.9863 41.0392C58.3387 41.0392 51.2695 33.971 51.2695 25.3233C51.2695 16.7449 58.3387 9.67578 66.9863 9.67578C73.3004 9.67578 79.1335 13.4503 81.5354 19.2152H76.3199C74.8096 16.4698 72.0643 13.9996 66.8488 13.9313C60.0547 13.8621 55.7992 19.8327 55.8684 25.1175C55.8684 32.4608 61.564 36.7163 67.2605 36.6471C70.8292 36.6471 74.9472 34.451 76.3199 31.2257Z" fill="white"/>
<path fill-rule="evenodd" clip-rule="evenodd" d="M98.0731 44.9518V45.9127H94.9844V40.4913H98.0731V41.4514H96.0136V42.7557H97.9355V43.7167H96.0136V44.9518H98.0731Z" fill="white"/>
<path fill-rule="evenodd" clip-rule="evenodd" d="M103.975 45.9127L101.71 40.4913H100.75L98.4844 45.9127H99.6512L101.23 41.864L102.808 45.9127H103.975Z" fill="white"/>
<path fill-rule="evenodd" clip-rule="evenodd" d="M109.53 45.9136L107.264 40.4922H106.304L104.039 45.9136H105.206L106.784 41.8648L108.363 45.9136H109.53Z" fill="white"/>
<path fill-rule="evenodd" clip-rule="evenodd" d="M123.671 45.9127L121.407 40.4913H120.514L118.25 45.9127H119.348L120.926 41.864L122.574 45.9127H123.671Z" fill="white"/>
<path fill-rule="evenodd" clip-rule="evenodd" d="M112.072 43.6492V42.6883H111.111V40.4922H110.082V45.9136H111.111V43.6492H112.072Z" fill="white"/>
<path fill-rule="evenodd" clip-rule="evenodd" d="M140.828 43.1021C140.76 45.504 144.534 45.8474 144.74 43.2396C144.74 40.8368 141.103 40.7685 140.828 43.1021ZM139.799 42.8962C140.279 39.3275 145.838 39.8076 145.838 43.2396C145.632 47.2201 139.456 46.8084 139.799 42.8962Z" fill="white"/>
<path fill-rule="evenodd" clip-rule="evenodd" d="M130.401 41.9321C130.401 41.0394 130.95 40.4911 131.98 40.4219C132.735 40.4219 133.215 40.5594 133.558 40.9711C134.107 41.5887 133.97 42.6872 133.215 43.0297L133.078 43.0989C133.696 43.1672 134.45 44.1282 133.902 45.2266C133.284 46.2559 131.225 46.3242 130.539 45.295C130.264 44.9516 130.195 44.6774 130.195 44.2657H131.294C131.225 44.9516 131.842 45.1574 132.529 45.0208C132.735 44.9516 132.941 44.7457 133.009 44.5398C133.078 44.1965 132.941 43.854 132.597 43.7164C132.461 43.6481 132.255 43.6481 132.048 43.6481H131.705V42.6179C132.117 42.6179 132.597 42.6872 132.803 42.3438C133.009 41.7945 132.666 41.3828 132.186 41.3828C131.842 41.3828 131.43 41.5204 131.43 41.9321H130.401Z" fill="white"/>
<path fill-rule="evenodd" clip-rule="evenodd" d="M135.888 40.4913H134.789V45.9127H135.888V43.6484H137.946V45.9127H139.045V40.4913H137.946V42.6874H135.888V40.4913Z" fill="white"/>
<path fill-rule="evenodd" clip-rule="evenodd" d="M175.146 40.4922H174.117V45.9136H175.146V43.6492H177.274V45.9136H178.303V40.4922H177.274V42.6883H175.146V40.4922Z" fill="white"/>
<path fill-rule="evenodd" clip-rule="evenodd" d="M180.431 40.4913H179.332V45.9127H180.431V43.6484H182.49V45.9127H183.588V40.4913H182.49V42.6874H180.431V40.4913Z" fill="white"/>
<path fill-rule="evenodd" clip-rule="evenodd" d="M227.851 40.4922H226.754V45.9136H227.851V43.6492H229.911V45.9136H230.94V40.4922H229.911V42.6883H227.851V40.4922Z" fill="white"/>
<path d="M148.72 43.168H146.523V44.0606H148.72V43.168Z" fill="white"/>
<path fill-rule="evenodd" clip-rule="evenodd" d="M149.75 40.4922H150.848V42.8258L152.633 40.4922H153.868L151.74 43.1683L153.868 45.9136H152.633L150.848 43.5809V45.9136H149.75V40.4922Z" fill="white"/>
<path fill-rule="evenodd" clip-rule="evenodd" d="M156.888 41.9323L156.202 43.5791H157.505L156.888 41.9323ZM154.074 45.9127H155.241L155.79 44.5401H157.917L158.536 45.9127H159.702L157.3 40.4913H156.476L154.074 45.9127Z" fill="white"/>
<path fill-rule="evenodd" clip-rule="evenodd" d="M234.302 41.9323L233.684 43.5791H234.989L234.302 41.9323ZM231.488 45.9127H232.655L233.273 44.5401H235.4L235.95 45.9127H237.116L234.714 40.4913H233.89L231.488 45.9127Z" fill="white"/>
<path fill-rule="evenodd" clip-rule="evenodd" d="M161.283 42.8921H161.97C162.382 42.8921 162.862 42.7546 162.862 42.137C162.862 41.7936 162.588 41.4511 161.901 41.4511H161.283V42.8921ZM160.254 45.9116V40.4902C161.557 40.4902 163.823 40.2151 163.891 42.137C163.96 43.7155 162.45 43.9214 161.283 43.8531V45.9116H160.254Z" fill="white"/>
<path fill-rule="evenodd" clip-rule="evenodd" d="M185.643 43.58H186.398C186.809 43.58 187.29 43.6484 187.359 44.2659C187.359 44.6093 187.084 44.9518 186.466 44.9518H185.643V43.58ZM184.613 40.4913V45.9127H186.535C187.359 45.9127 188.388 45.5011 188.388 44.2659C188.388 43.0991 187.564 42.6191 186.603 42.6191H185.643V40.4913H184.613Z" fill="white"/>
<path fill-rule="evenodd" clip-rule="evenodd" d="M185.643 43.58H186.398C186.809 43.58 187.29 43.6484 187.359 44.2659C187.359 44.6093 187.084 44.9518 186.466 44.9518H185.643V43.58ZM184.613 40.4913V45.9127H186.535C187.359 45.9127 188.388 45.5011 188.388 44.2659C188.388 43.0991 187.564 42.6191 186.603 42.6191H185.643V40.4913H184.613Z" fill="white"/>
<path fill-rule="evenodd" clip-rule="evenodd" d="M217.489 43.58H218.313C218.656 43.58 219.205 43.6483 219.205 44.2659C219.273 44.6093 218.999 44.9527 218.382 44.9527H217.489V43.58ZM217.489 41.4523V42.6191H218.519C219.479 42.6191 220.303 43.0991 220.303 44.2659C220.303 45.501 219.273 45.9127 218.45 45.9127H216.391V40.4913H219.754V41.4523H217.489Z" fill="white"/>
<path fill-rule="evenodd" clip-rule="evenodd" d="M164.098 41.4531V40.4922H167.255V41.4531H166.225V45.9136H165.127V41.4531H164.098Z" fill="white"/>
<path d="M190.036 40.4913H188.938V45.9127H190.036V40.4913Z" fill="white"/>
<path fill-rule="evenodd" clip-rule="evenodd" d="M191.07 40.4922V45.9136H192.1L194.707 42.139V45.9136H195.738V40.4922H194.707L192.1 44.3351V40.4922H191.07Z" fill="white"/>
<path fill-rule="evenodd" clip-rule="evenodd" d="M194.773 39.1875C194.703 39.5992 194.635 39.8051 194.292 40.0109C193.742 40.3543 192.782 40.2851 192.302 39.8734C192.165 39.7368 192.027 39.5309 192.027 39.1875H192.919C192.919 39.3934 193.125 39.5992 193.4 39.5992C193.674 39.5992 193.88 39.3934 193.88 39.1875H194.773Z" fill="white"/>
<path fill-rule="evenodd" clip-rule="evenodd" d="M198.547 40.4922H199.645V42.8258L201.43 40.4922H202.665L200.537 43.1683L202.665 45.9136H201.43L199.645 43.5809V45.9136H198.547V40.4922Z" fill="white"/>
<path fill-rule="evenodd" clip-rule="evenodd" d="M221.059 40.4922V45.9136H222.088L224.627 42.139V45.9136H225.725V40.4922H224.696L222.088 44.3351V40.4922H221.059Z" fill="white"/>
<path fill-rule="evenodd" clip-rule="evenodd" d="M236.844 41.4523V40.4913H240.001V41.4523H238.971V45.9127H237.873V41.4523H236.844Z" fill="white"/>
<path fill-rule="evenodd" clip-rule="evenodd" d="M209.324 45.9127V40.4913H210.765L212.344 44.6776L213.991 40.4913H215.363V45.9127H214.334V41.864L212.825 45.9127H211.932L210.353 41.864V45.9127H209.324Z" fill="white"/>
<path fill-rule="evenodd" clip-rule="evenodd" d="M113.104 43.1021C113.035 45.504 116.81 45.8474 117.016 43.2396C117.016 40.8368 113.31 40.7685 113.104 43.1021ZM112.006 42.8962C112.486 39.3275 118.114 39.8076 118.045 43.2396C117.908 47.2201 111.662 46.8084 112.006 42.8962Z" fill="white"/>
<path fill-rule="evenodd" clip-rule="evenodd" d="M124.839 43.1021C124.701 45.504 128.544 45.8474 128.75 43.2396C128.75 40.8368 125.045 40.7685 124.839 43.1021ZM123.74 42.8962C124.22 39.3275 129.78 39.8076 129.78 43.2396C129.643 47.2201 123.397 46.8084 123.74 42.8962Z" fill="white"/>
<path fill-rule="evenodd" clip-rule="evenodd" d="M168.42 43.1021C168.352 45.504 172.126 45.8474 172.332 43.2396C172.332 40.8368 168.626 40.7685 168.42 43.1021ZM167.322 42.8962C167.871 39.3275 173.43 39.8076 173.361 43.2396C173.224 47.2201 166.979 46.8084 167.322 42.8962Z" fill="white"/>
<path fill-rule="evenodd" clip-rule="evenodd" d="M203.629 43.1021C203.56 45.504 207.335 45.8474 207.541 43.2396C207.541 40.8368 203.903 40.7685 203.629 43.1021ZM202.6 42.8962C203.08 39.3275 208.639 39.8076 208.639 43.2396C208.433 47.2201 202.256 46.8084 202.6 42.8962Z" fill="white"/>
<path fill-rule="evenodd" clip-rule="evenodd" d="M76.3199 31.2257H81.6037C79.2027 37.128 73.3687 41.0392 66.9863 41.0392C58.3387 41.0392 51.2695 33.971 51.2695 25.3233C51.2695 16.7449 58.3387 9.67578 66.9863 9.67578C73.3004 9.67578 79.1335 13.4503 81.5354 19.2152H76.3199C74.8096 16.4698 72.0643 13.9996 66.8488 13.9313C60.0547 13.8621 55.7992 19.8327 55.8684 25.1175C55.8684 32.4608 61.564 36.7163 67.2605 36.6471C70.8292 36.6471 74.9472 34.451 76.3199 31.2257Z" fill="white"/>
<path fill-rule="evenodd" clip-rule="evenodd" d="M98.0731 44.9518V45.9127H94.9844V40.4913H98.0731V41.4514H96.0136V42.7557H97.9355V43.7167H96.0136V44.9518H98.0731Z" fill="white"/>
<path fill-rule="evenodd" clip-rule="evenodd" d="M103.975 45.9127L101.71 40.4913H100.75L98.4844 45.9127H99.6512L101.23 41.864L102.808 45.9127H103.975Z" fill="white"/>
<path fill-rule="evenodd" clip-rule="evenodd" d="M109.53 45.9136L107.264 40.4922H106.304L104.039 45.9136H105.206L106.784 41.8648L108.363 45.9136H109.53Z" fill="white"/>
<path fill-rule="evenodd" clip-rule="evenodd" d="M123.671 45.9127L121.407 40.4913H120.514L118.25 45.9127H119.348L120.926 41.864L122.574 45.9127H123.671Z" fill="white"/>
<path fill-rule="evenodd" clip-rule="evenodd" d="M112.072 43.6492V42.6883H111.111V40.4922H110.082V45.9136H111.111V43.6492H112.072Z" fill="white"/>
<path fill-rule="evenodd" clip-rule="evenodd" d="M140.828 43.1021C140.76 45.504 144.534 45.8474 144.74 43.2396C144.74 40.8368 141.103 40.7685 140.828 43.1021ZM139.799 42.8962C140.279 39.3275 145.838 39.8076 145.838 43.2396C145.632 47.2201 139.456 46.8084 139.799 42.8962Z" fill="white"/>
<path fill-rule="evenodd" clip-rule="evenodd" d="M130.401 41.9321C130.401 41.0394 130.95 40.4911 131.98 40.4219C132.735 40.4219 133.215 40.5594 133.558 40.9711C134.107 41.5887 133.97 42.6872 133.215 43.0297L133.078 43.0989C133.696 43.1672 134.45 44.1282 133.902 45.2266C133.284 46.2559 131.225 46.3242 130.539 45.295C130.264 44.9516 130.195 44.6774 130.195 44.2657H131.294C131.225 44.9516 131.842 45.1574 132.529 45.0208C132.735 44.9516 132.941 44.7457 133.009 44.5398C133.078 44.1965 132.941 43.854 132.597 43.7164C132.461 43.6481 132.255 43.6481 132.048 43.6481H131.705V42.6179C132.117 42.6179 132.597 42.6872 132.803 42.3438C133.009 41.7945 132.666 41.3828 132.186 41.3828C131.842 41.3828 131.43 41.5204 131.43 41.9321H130.401Z" fill="white"/>
<path fill-rule="evenodd" clip-rule="evenodd" d="M135.888 40.4913H134.789V45.9127H135.888V43.6484H137.946V45.9127H139.045V40.4913H137.946V42.6874H135.888V40.4913Z" fill="white"/>
<path fill-rule="evenodd" clip-rule="evenodd" d="M175.146 40.4922H174.117V45.9136H175.146V43.6492H177.274V45.9136H178.303V40.4922H177.274V42.6883H175.146V40.4922Z" fill="white"/>
<path fill-rule="evenodd" clip-rule="evenodd" d="M180.431 40.4913H179.332V45.9127H180.431V43.6484H182.49V45.9127H183.588V40.4913H182.49V42.6874H180.431V40.4913Z" fill="white"/>
<path fill-rule="evenodd" clip-rule="evenodd" d="M227.851 40.4922H226.754V45.9136H227.851V43.6492H229.911V45.9136H230.94V40.4922H229.911V42.6883H227.851V40.4922Z" fill="white"/>
<path d="M148.72 43.168H146.523V44.0606H148.72V43.168Z" fill="white"/>
<path fill-rule="evenodd" clip-rule="evenodd" d="M149.75 40.4922H150.848V42.8258L152.633 40.4922H153.868L151.74 43.1683L153.868 45.9136H152.633L150.848 43.5809V45.9136H149.75V40.4922Z" fill="white"/>
<path fill-rule="evenodd" clip-rule="evenodd" d="M156.888 41.9323L156.202 43.5791H157.505L156.888 41.9323ZM154.074 45.9127H155.241L155.79 44.5401H157.917L158.536 45.9127H159.702L157.3 40.4913H156.476L154.074 45.9127Z" fill="white"/>
<path fill-rule="evenodd" clip-rule="evenodd" d="M234.302 41.9323L233.684 43.5791H234.989L234.302 41.9323ZM231.488 45.9127H232.655L233.273 44.5401H235.4L235.95 45.9127H237.116L234.714 40.4913H233.89L231.488 45.9127Z" fill="white"/>
<path fill-rule="evenodd" clip-rule="evenodd" d="M161.283 42.8921H161.97C162.382 42.8921 162.862 42.7546 162.862 42.137C162.862 41.7936 162.588 41.4511 161.901 41.4511H161.283V42.8921ZM160.254 45.9116V40.4902C161.557 40.4902 163.823 40.2151 163.891 42.137C163.96 43.7155 162.45 43.9214 161.283 43.8531V45.9116H160.254Z" fill="white"/>
<path fill-rule="evenodd" clip-rule="evenodd" d="M185.643 43.58H186.398C186.809 43.58 187.29 43.6484 187.359 44.2659C187.359 44.6093 187.084 44.9518 186.466 44.9518H185.643V43.58ZM184.613 40.4913V45.9127H186.535C187.359 45.9127 188.388 45.5011 188.388 44.2659C188.388 43.0991 187.564 42.6191 186.603 42.6191H185.643V40.4913H184.613Z" fill="white"/>
<path fill-rule="evenodd" clip-rule="evenodd" d="M185.643 43.58H186.398C186.809 43.58 187.29 43.6484 187.359 44.2659C187.359 44.6093 187.084 44.9518 186.466 44.9518H185.643V43.58ZM184.613 40.4913V45.9127H186.535C187.359 45.9127 188.388 45.5011 188.388 44.2659C188.388 43.0991 187.564 42.6191 186.603 42.6191H185.643V40.4913H184.613Z" fill="white"/>
<path fill-rule="evenodd" clip-rule="evenodd" d="M217.489 43.58H218.313C218.656 43.58 219.205 43.6483 219.205 44.2659C219.273 44.6093 218.999 44.9527 218.382 44.9527H217.489V43.58ZM217.489 41.4523V42.6191H218.519C219.479 42.6191 220.303 43.0991 220.303 44.2659C220.303 45.501 219.273 45.9127 218.45 45.9127H216.391V40.4913H219.754V41.4523H217.489Z" fill="white"/>
<path fill-rule="evenodd" clip-rule="evenodd" d="M164.098 41.4531V40.4922H167.255V41.4531H166.225V45.9136H165.127V41.4531H164.098Z" fill="white"/>
<path d="M190.036 40.4913H188.938V45.9127H190.036V40.4913Z" fill="white"/>
<path fill-rule="evenodd" clip-rule="evenodd" d="M191.07 40.4922V45.9136H192.1L194.707 42.139V45.9136H195.738V40.4922H194.707L192.1 44.3351V40.4922H191.07Z" fill="white"/>
<path fill-rule="evenodd" clip-rule="evenodd" d="M194.773 39.1875C194.703 39.5992 194.635 39.8051 194.292 40.0109C193.742 40.3543 192.782 40.2851 192.302 39.8734C192.165 39.7368 192.027 39.5309 192.027 39.1875H192.919C192.919 39.3934 193.125 39.5992 193.4 39.5992C193.674 39.5992 193.88 39.3934 193.88 39.1875H194.773Z" fill="white"/>
<path fill-rule="evenodd" clip-rule="evenodd" d="M198.547 40.4922H199.645V42.8258L201.43 40.4922H202.665L200.537 43.1683L202.665 45.9136H201.43L199.645 43.5809V45.9136H198.547V40.4922Z" fill="white"/>
<path fill-rule="evenodd" clip-rule="evenodd" d="M221.059 40.4922V45.9136H222.088L224.627 42.139V45.9136H225.725V40.4922H224.696L222.088 44.3351V40.4922H221.059Z" fill="white"/>
<path fill-rule="evenodd" clip-rule="evenodd" d="M236.844 41.4523V40.4913H240.001V41.4523H238.971V45.9127H237.873V41.4523H236.844Z" fill="white"/>
<path fill-rule="evenodd" clip-rule="evenodd" d="M209.324 45.9127V40.4913H210.765L212.344 44.6776L213.991 40.4913H215.363V45.9127H214.334V41.864L212.825 45.9127H211.932L210.353 41.864V45.9127H209.324Z" fill="white"/>
<path fill-rule="evenodd" clip-rule="evenodd" d="M113.104 43.1021C113.035 45.504 116.81 45.8474 117.016 43.2396C117.016 40.8368 113.31 40.7685 113.104 43.1021ZM112.006 42.8962C112.486 39.3275 118.114 39.8076 118.045 43.2396C117.908 47.2201 111.662 46.8084 112.006 42.8962Z" fill="white"/>
<path fill-rule="evenodd" clip-rule="evenodd" d="M124.839 43.1021C124.701 45.504 128.544 45.8474 128.75 43.2396C128.75 40.8368 125.045 40.7685 124.839 43.1021ZM123.74 42.8962C124.22 39.3275 129.78 39.8076 129.78 43.2396C129.643 47.2201 123.397 46.8084 123.74 42.8962Z" fill="white"/>
<path fill-rule="evenodd" clip-rule="evenodd" d="M168.42 43.1021C168.352 45.504 172.126 45.8474 172.332 43.2396C172.332 40.8368 168.626 40.7685 168.42 43.1021ZM167.322 42.8962C167.871 39.3275 173.43 39.8076 173.361 43.2396C173.224 47.2201 166.979 46.8084 167.322 42.8962Z" fill="white"/>
<path fill-rule="evenodd" clip-rule="evenodd" d="M203.629 43.1021C203.56 45.504 207.335 45.8474 207.541 43.2396C207.541 40.8368 203.903 40.7685 203.629 43.1021ZM202.6 42.8962C203.08 39.3275 208.639 39.8076 208.639 43.2396C208.433 47.2201 202.256 46.8084 202.6 42.8962Z" fill="white"/>
<path fill-rule="evenodd" clip-rule="evenodd" d="M76.3199 31.2257H81.6037C79.2027 37.128 73.3687 41.0392 66.9863 41.0392C58.3387 41.0392 51.2695 33.971 51.2695 25.3233C51.2695 16.7449 58.3387 9.67578 66.9863 9.67578C73.3004 9.67578 79.1335 13.4503 81.5354 19.2152H76.3199C74.8096 16.4698 72.0643 13.9996 66.8488 13.9313C60.0547 13.8621 55.7992 19.8327 55.8684 25.1175C55.8684 32.4608 61.564 36.7163 67.2605 36.6471C70.8292 36.6471 74.9472 34.451 76.3199 31.2257Z" fill="white"/>
<path fill-rule="evenodd" clip-rule="evenodd" d="M98.0731 44.9518V45.9127H94.9844V40.4913H98.0731V41.4514H96.0136V42.7557H97.9355V43.7167H96.0136V44.9518H98.0731Z" fill="white"/>
<path fill-rule="evenodd" clip-rule="evenodd" d="M103.975 45.9127L101.71 40.4913H100.75L98.4844 45.9127H99.6512L101.23 41.864L102.808 45.9127H103.975Z" fill="white"/>
<path fill-rule="evenodd" clip-rule="evenodd" d="M109.53 45.9136L107.264 40.4922H106.304L104.039 45.9136H105.206L106.784 41.8648L108.363 45.9136H109.53Z" fill="white"/>
<path fill-rule="evenodd" clip-rule="evenodd" d="M123.671 45.9127L121.407 40.4913H120.514L118.25 45.9127H119.348L120.926 41.864L122.574 45.9127H123.671Z" fill="white"/>
<path fill-rule="evenodd" clip-rule="evenodd" d="M112.072 43.6492V42.6883H111.111V40.4922H110.082V45.9136H111.111V43.6492H112.072Z" fill="white"/>
<path fill-rule="evenodd" clip-rule="evenodd" d="M140.828 43.1021C140.76 45.504 144.534 45.8474 144.74 43.2396C144.74 40.8368 141.103 40.7685 140.828 43.1021ZM139.799 42.8962C140.279 39.3275 145.838 39.8076 145.838 43.2396C145.632 47.2201 139.456 46.8084 139.799 42.8962Z" fill="white"/>
<path fill-rule="evenodd" clip-rule="evenodd" d="M130.401 41.9321C130.401 41.0394 130.95 40.4911 131.98 40.4219C132.735 40.4219 133.215 40.5594 133.558 40.9711C134.107 41.5887 133.97 42.6872 133.215 43.0297L133.078 43.0989C133.696 43.1672 134.45 44.1282 133.902 45.2266C133.284 46.2559 131.225 46.3242 130.539 45.295C130.264 44.9516 130.195 44.6774 130.195 44.2657H131.294C131.225 44.9516 131.842 45.1574 132.529 45.0208C132.735 44.9516 132.941 44.7457 133.009 44.5398C133.078 44.1965 132.941 43.854 132.597 43.7164C132.461 43.6481 132.255 43.6481 132.048 43.6481H131.705V42.6179C132.117 42.6179 132.597 42.6872 132.803 42.3438C133.009 41.7945 132.666 41.3828 132.186 41.3828C131.842 41.3828 131.43 41.5204 131.43 41.9321H130.401Z" fill="white"/>
<path fill-rule="evenodd" clip-rule="evenodd" d="M135.888 40.4913H134.789V45.9127H135.888V43.6484H137.946V45.9127H139.045V40.4913H137.946V42.6874H135.888V40.4913Z" fill="white"/>
<path fill-rule="evenodd" clip-rule="evenodd" d="M175.146 40.4922H174.117V45.9136H175.146V43.6492H177.274V45.9136H178.303V40.4922H177.274V42.6883H175.146V40.4922Z" fill="white"/>
<path fill-rule="evenodd" clip-rule="evenodd" d="M180.431 40.4913H179.332V45.9127H180.431V43.6484H182.49V45.9127H183.588V40.4913H182.49V42.6874H180.431V40.4913Z" fill="white"/>
<path fill-rule="evenodd" clip-rule="evenodd" d="M227.851 40.4922H226.754V45.9136H227.851V43.6492H229.911V45.9136H230.94V40.4922H229.911V42.6883H227.851V40.4922Z" fill="white"/>
<path d="M148.72 43.168H146.523V44.0606H148.72V43.168Z" fill="white"/>
<path fill-rule="evenodd" clip-rule="evenodd" d="M149.75 40.4922H150.848V42.8258L152.633 40.4922H153.868L151.74 43.1683L153.868 45.9136H152.633L150.848 43.5809V45.9136H149.75V40.4922Z" fill="white"/>
<path fill-rule="evenodd" clip-rule="evenodd" d="M156.888 41.9323L156.202 43.5791H157.505L156.888 41.9323ZM154.074 45.9127H155.241L155.79 44.5401H157.917L158.536 45.9127H159.702L157.3 40.4913H156.476L154.074 45.9127Z" fill="white"/>
<path fill-rule="evenodd" clip-rule="evenodd" d="M234.302 41.9323L233.684 43.5791H234.989L234.302 41.9323ZM231.488 45.9127H232.655L233.273 44.5401H235.4L235.95 45.9127H237.116L234.714 40.4913H233.89L231.488 45.9127Z" fill="white"/>
<path fill-rule="evenodd" clip-rule="evenodd" d="M161.283 42.8921H161.97C162.382 42.8921 162.862 42.7546 162.862 42.137C162.862 41.7936 162.588 41.4511 161.901 41.4511H161.283V42.8921ZM160.254 45.9116V40.4902C161.557 40.4902 163.823 40.2151 163.891 42.137C163.96 43.7155 162.45 43.9214 161.283 43.8531V45.9116H160.254Z" fill="white"/>
<path fill-rule="evenodd" clip-rule="evenodd" d="M185.643 43.58H186.398C186.809 43.58 187.29 43.6484 187.359 44.2659C187.359 44.6093 187.084 44.9518 186.466 44.9518H185.643V43.58ZM184.613 40.4913V45.9127H186.535C187.359 45.9127 188.388 45.5011 188.388 44.2659C188.388 43.0991 187.564 42.6191 186.603 42.6191H185.643V40.4913H184.613Z" fill="white"/>
<path fill-rule="evenodd" clip-rule="evenodd" d="M185.643 43.58H186.398C186.809 43.58 187.29 43.6484 187.359 44.2659C187.359 44.6093 187.084 44.9518 186.466 44.9518H185.643V43.58ZM184.613 40.4913V45.9127H186.535C187.359 45.9127 188.388 45.5011 188.388 44.2659C188.388 43.0991 187.564 42.6191 186.603 42.6191H185.643V40.4913H184.613Z" fill="white"/>
<path fill-rule="evenodd" clip-rule="evenodd" d="M217.489 43.58H218.313C218.656 43.58 219.205 43.6483 219.205 44.2659C219.273 44.6093 218.999 44.9527 218.382 44.9527H217.489V43.58ZM217.489 41.4523V42.6191H218.519C219.479 42.6191 220.303 43.0991 220.303 44.2659C220.303 45.501 219.273 45.9127 218.45 45.9127H216.391V40.4913H219.754V41.4523H217.489Z" fill="white"/>
<path fill-rule="evenodd" clip-rule="evenodd" d="M164.098 41.4531V40.4922H167.255V41.4531H166.225V45.9136H165.127V41.4531H164.098Z" fill="white"/>
<path d="M190.036 40.4913H188.938V45.9127H190.036V40.4913Z" fill="white"/>
<path fill-rule="evenodd" clip-rule="evenodd" d="M191.07 40.4922V45.9136H192.1L194.707 42.139V45.9136H195.738V40.4922H194.707L192.1 44.3351V40.4922H191.07Z" fill="white"/>
<path fill-rule="evenodd" clip-rule="evenodd" d="M194.773 39.1875C194.703 39.5992 194.635 39.8051 194.292 40.0109C193.742 40.3543 192.782 40.2851 192.302 39.8734C192.165 39.7368 192.027 39.5309 192.027 39.1875H192.919C192.919 39.3934 193.125 39.5992 193.4 39.5992C193.674 39.5992 193.88 39.3934 193.88 39.1875H194.773Z" fill="white"/>
<path fill-rule="evenodd" clip-rule="evenodd" d="M198.547 40.4922H199.645V42.8258L201.43 40.4922H202.665L200.537 43.1683L202.665 45.9136H201.43L199.645 43.5809V45.9136H198.547V40.4922Z" fill="white"/>
<path fill-rule="evenodd" clip-rule="evenodd" d="M221.059 40.4922V45.9136H222.088L224.627 42.139V45.9136H225.725V40.4922H224.696L222.088 44.3351V40.4922H221.059Z" fill="white"/>
<path fill-rule="evenodd" clip-rule="evenodd" d="M236.844 41.4523V40.4913H240.001V41.4523H238.971V45.9127H237.873V41.4523H236.844Z" fill="white"/>
<path fill-rule="evenodd" clip-rule="evenodd" d="M209.324 45.9127V40.4913H210.765L212.344 44.6776L213.991 40.4913H215.363V45.9127H214.334V41.864L212.825 45.9127H211.932L210.353 41.864V45.9127H209.324Z" fill="white"/>
<path fill-rule="evenodd" clip-rule="evenodd" d="M113.104 43.1021C113.035 45.504 116.81 45.8474 117.016 43.2396C117.016 40.8368 113.31 40.7685 113.104 43.1021ZM112.006 42.8962C112.486 39.3275 118.114 39.8076 118.045 43.2396C117.908 47.2201 111.662 46.8084 112.006 42.8962Z" fill="white"/>
<path fill-rule="evenodd" clip-rule="evenodd" d="M124.839 43.1021C124.701 45.504 128.544 45.8474 128.75 43.2396C128.75 40.8368 125.045 40.7685 124.839 43.1021ZM123.74 42.8962C124.22 39.3275 129.78 39.8076 129.78 43.2396C129.643 47.2201 123.397 46.8084 123.74 42.8962Z" fill="white"/>
<path fill-rule="evenodd" clip-rule="evenodd" d="M168.42 43.1021C168.352 45.504 172.126 45.8474 172.332 43.2396C172.332 40.8368 168.626 40.7685 168.42 43.1021ZM167.322 42.8962C167.871 39.3275 173.43 39.8076 173.361 43.2396C173.224 47.2201 166.979 46.8084 167.322 42.8962Z" fill="white"/>
<path fill-rule="evenodd" clip-rule="evenodd" d="M203.629 43.1021C203.56 45.504 207.335 45.8474 207.541 43.2396C207.541 40.8368 203.903 40.7685 203.629 43.1021ZM202.6 42.8962C203.08 39.3275 208.639 39.8076 208.639 43.2396C208.433 47.2201 202.256 46.8084 202.6 42.8962Z" fill="white"/>
<path fill-rule="evenodd" clip-rule="evenodd" d="M93.475 17.9141H84.0039V32.1207H93.475V28.9637H87.7102V26.63L93.2008 26.5617V23.4047H87.7102V21.0028H93.475V17.9141Z" fill="white"/>
<path fill-rule="evenodd" clip-rule="evenodd" d="M93.8828 32.1206H98.0008L102.187 22.5812L106.443 32.1206H110.56L103.766 17.9141H100.678L93.8828 32.1206Z" fill="white"/>
<path fill-rule="evenodd" clip-rule="evenodd" d="M120.721 17.9141H111.25V32.1207H120.721V28.9637H114.956V26.63L120.447 26.5617V23.4047H114.956V21.0028H120.721V17.9141Z" fill="white"/>
<path fill-rule="evenodd" clip-rule="evenodd" d="M122.711 17.9141V32.1207H126.417V26.4925H131.633V32.1207H135.407V17.9141H131.633V23.2672H126.417V17.9141H122.711Z" fill="white"/>
<path fill-rule="evenodd" clip-rule="evenodd" d="M163.613 17.9141V32.1207H167.32V26.4925H172.535V32.1207H176.31V17.9141H172.535V23.2672H167.32V17.9141H163.613Z" fill="white"/>
<path fill-rule="evenodd" clip-rule="evenodd" d="M146.525 17.9141H137.672V32.1207H141.378V21.0028H146.525V17.9141Z" fill="white"/>
<path fill-rule="evenodd" clip-rule="evenodd" d="M147.352 17.9141V32.1207H150.852L157.578 23.3355V32.1207H161.352V17.9141H157.784L151.058 26.6984V17.9141H147.352Z" fill="white"/>
<path fill-rule="evenodd" clip-rule="evenodd" d="M209.324 17.9141V32.1207H212.893L219.549 23.3355V32.1207H223.325V17.9141H219.755L213.03 26.6984V17.9141H209.324Z" fill="white"/>
<path fill-rule="evenodd" clip-rule="evenodd" d="M225.59 17.9141V32.1207H229.159L235.816 23.3355V32.1207H239.591V17.9141H236.022L229.296 26.6984V17.9141H225.59Z" fill="white"/>
<path fill-rule="evenodd" clip-rule="evenodd" d="M190.38 27.7233H194.635C193.194 30.812 189.557 32.3213 186.743 32.3906C182.35 32.5272 177.752 29.8511 177.684 24.9097C177.889 20.0366 182.556 17.6347 186.331 17.6347C190.242 17.5664 193.263 19.3507 194.704 22.4386H190.517C189.762 21.5469 188.596 20.8601 186.743 20.7917C184.546 20.6542 181.458 22.0269 181.39 24.978C181.458 27.7917 184.272 29.3711 186.537 29.3018C188.664 29.2335 189.487 28.616 190.38 27.7233Z" fill="white"/>
<path fill-rule="evenodd" clip-rule="evenodd" d="M195.664 17.9141V32.1207H199.439V26.8359L203.968 32.1207H208.567L202.047 24.914L208.567 17.9141H203.968L199.439 23.1296V17.9141H195.664Z" fill="white"/>
<path fill-rule="evenodd" clip-rule="evenodd" d="M93.475 17.9141H84.0039V32.1207H93.475V28.9637H87.7102V26.63L93.2008 26.5617V23.4047H87.7102V21.0028H93.475V17.9141Z" fill="white"/>
<path fill-rule="evenodd" clip-rule="evenodd" d="M93.8828 32.1206H98.0008L102.187 22.5812L106.443 32.1206H110.56L103.766 17.9141H100.678L93.8828 32.1206Z" fill="white"/>
<path fill-rule="evenodd" clip-rule="evenodd" d="M120.721 17.9141H111.25V32.1207H120.721V28.9637H114.956V26.63L120.447 26.5617V23.4047H114.956V21.0028H120.721V17.9141Z" fill="white"/>
<path fill-rule="evenodd" clip-rule="evenodd" d="M122.711 17.9141V32.1207H126.417V26.4925H131.633V32.1207H135.407V17.9141H131.633V23.2672H126.417V17.9141H122.711Z" fill="white"/>
<path fill-rule="evenodd" clip-rule="evenodd" d="M163.613 17.9141V32.1207H167.32V26.4925H172.535V32.1207H176.31V17.9141H172.535V23.2672H167.32V17.9141H163.613Z" fill="white"/>
<path fill-rule="evenodd" clip-rule="evenodd" d="M146.525 17.9141H137.672V32.1207H141.378V21.0028H146.525V17.9141Z" fill="white"/>
<path fill-rule="evenodd" clip-rule="evenodd" d="M147.352 17.9141V32.1207H150.852L157.578 23.3355V32.1207H161.352V17.9141H157.784L151.058 26.6984V17.9141H147.352Z" fill="white"/>
<path fill-rule="evenodd" clip-rule="evenodd" d="M209.324 17.9141V32.1207H212.893L219.549 23.3355V32.1207H223.325V17.9141H219.755L213.03 26.6984V17.9141H209.324Z" fill="white"/>
<path fill-rule="evenodd" clip-rule="evenodd" d="M225.59 17.9141V32.1207H229.159L235.816 23.3355V32.1207H239.591V17.9141H236.022L229.296 26.6984V17.9141H225.59Z" fill="white"/>
<path fill-rule="evenodd" clip-rule="evenodd" d="M190.38 27.7233H194.635C193.194 30.812 189.557 32.3213 186.743 32.3906C182.35 32.5272 177.752 29.8511 177.684 24.9097C177.889 20.0366 182.556 17.6347 186.331 17.6347C190.242 17.5664 193.263 19.3507 194.704 22.4386H190.517C189.762 21.5469 188.596 20.8601 186.743 20.7917C184.546 20.6542 181.458 22.0269 181.39 24.978C181.458 27.7917 184.272 29.3711 186.537 29.3018C188.664 29.2335 189.487 28.616 190.38 27.7233Z" fill="white"/>
<path fill-rule="evenodd" clip-rule="evenodd" d="M195.664 17.9141V32.1207H199.439V26.8359L203.968 32.1207H208.567L202.047 24.914L208.567 17.9141H203.968L199.439 23.1296V17.9141H195.664Z" fill="white"/>
<path fill-rule="evenodd" clip-rule="evenodd" d="M93.475 17.9141H84.0039V32.1207H93.475V28.9637H87.7102V26.63L93.2008 26.5617V23.4047H87.7102V21.0028H93.475V17.9141Z" fill="white"/>
<path fill-rule="evenodd" clip-rule="evenodd" d="M93.8828 32.1206H98.0008L102.187 22.5812L106.443 32.1206H110.56L103.766 17.9141H100.678L93.8828 32.1206Z" fill="white"/>
<path fill-rule="evenodd" clip-rule="evenodd" d="M120.721 17.9141H111.25V32.1207H120.721V28.9637H114.956V26.63L120.447 26.5617V23.4047H114.956V21.0028H120.721V17.9141Z" fill="white"/>
<path fill-rule="evenodd" clip-rule="evenodd" d="M122.711 17.9141V32.1207H126.417V26.4925H131.633V32.1207H135.407V17.9141H131.633V23.2672H126.417V17.9141H122.711Z" fill="white"/>
<path fill-rule="evenodd" clip-rule="evenodd" d="M163.613 17.9141V32.1207H167.32V26.4925H172.535V32.1207H176.31V17.9141H172.535V23.2672H167.32V17.9141H163.613Z" fill="white"/>
<path fill-rule="evenodd" clip-rule="evenodd" d="M146.525 17.9141H137.672V32.1207H141.378V21.0028H146.525V17.9141Z" fill="white"/>
<path fill-rule="evenodd" clip-rule="evenodd" d="M147.352 17.9141V32.1207H150.852L157.578 23.3355V32.1207H161.352V17.9141H157.784L151.058 26.6984V17.9141H147.352Z" fill="white"/>
<path fill-rule="evenodd" clip-rule="evenodd" d="M209.324 17.9141V32.1207H212.893L219.549 23.3355V32.1207H223.325V17.9141H219.755L213.03 26.6984V17.9141H209.324Z" fill="white"/>
<path fill-rule="evenodd" clip-rule="evenodd" d="M225.59 17.9141V32.1207H229.159L235.816 23.3355V32.1207H239.591V17.9141H236.022L229.296 26.6984V17.9141H225.59Z" fill="white"/>
<path fill-rule="evenodd" clip-rule="evenodd" d="M190.38 27.7233H194.635C193.194 30.812 189.557 32.3213 186.743 32.3906C182.35 32.5272 177.752 29.8511 177.684 24.9097C177.889 20.0366 182.556 17.6347 186.331 17.6347C190.242 17.5664 193.263 19.3507 194.704 22.4386H190.517C189.762 21.5469 188.596 20.8601 186.743 20.7917C184.546 20.6542 181.458 22.0269 181.39 24.978C181.458 27.7917 184.272 29.3711 186.537 29.3018C188.664 29.2335 189.487 28.616 190.38 27.7233Z" fill="white"/>
<path fill-rule="evenodd" clip-rule="evenodd" d="M195.664 17.9141V32.1207H199.439V26.8359L203.968 32.1207H208.567L202.047 24.914L208.567 17.9141H203.968L199.439 23.1296V17.9141H195.664Z" fill="white"/>
<path fill-rule="evenodd" clip-rule="evenodd" d="M93.475 17.9141H84.0039V32.1207H93.475V28.9637H87.7102V26.63L93.2008 26.5617V23.4047H87.7102V21.0028H93.475V17.9141Z" fill="white"/>
<path fill-rule="evenodd" clip-rule="evenodd" d="M93.8828 32.1206H98.0008L102.187 22.5812L106.443 32.1206H110.56L103.766 17.9141H100.678L93.8828 32.1206Z" fill="white"/>
<path fill-rule="evenodd" clip-rule="evenodd" d="M120.721 17.9141H111.25V32.1207H120.721V28.9637H114.956V26.63L120.447 26.5617V23.4047H114.956V21.0028H120.721V17.9141Z" fill="white"/>
<path fill-rule="evenodd" clip-rule="evenodd" d="M122.711 17.9141V32.1207H126.417V26.4925H131.633V32.1207H135.407V17.9141H131.633V23.2672H126.417V17.9141H122.711Z" fill="white"/>
<path fill-rule="evenodd" clip-rule="evenodd" d="M163.613 17.9141V32.1207H167.32V26.4925H172.535V32.1207H176.31V17.9141H172.535V23.2672H167.32V17.9141H163.613Z" fill="white"/>
<path fill-rule="evenodd" clip-rule="evenodd" d="M146.525 17.9141H137.672V32.1207H141.378V21.0028H146.525V17.9141Z" fill="white"/>
<path fill-rule="evenodd" clip-rule="evenodd" d="M147.352 17.9141V32.1207H150.852L157.578 23.3355V32.1207H161.352V17.9141H157.784L151.058 26.6984V17.9141H147.352Z" fill="white"/>
<path fill-rule="evenodd" clip-rule="evenodd" d="M209.324 17.9141V32.1207H212.893L219.549 23.3355V32.1207H223.325V17.9141H219.755L213.03 26.6984V17.9141H209.324Z" fill="white"/>
<path fill-rule="evenodd" clip-rule="evenodd" d="M225.59 17.9141V32.1207H229.159L235.816 23.3355V32.1207H239.591V17.9141H236.022L229.296 26.6984V17.9141H225.59Z" fill="white"/>
<path fill-rule="evenodd" clip-rule="evenodd" d="M190.38 27.7233H194.635C193.194 30.812 189.557 32.3213 186.743 32.3906C182.35 32.5272 177.752 29.8511 177.684 24.9097C177.889 20.0366 182.556 17.6347 186.331 17.6347C190.242 17.5664 193.263 19.3507 194.704 22.4386H190.517C189.762 21.5469 188.596 20.8601 186.743 20.7917C184.546 20.6542 181.458 22.0269 181.39 24.978C181.458 27.7917 184.272 29.3711 186.537 29.3018C188.664 29.2335 189.487 28.616 190.38 27.7233Z" fill="white"/>
<path fill-rule="evenodd" clip-rule="evenodd" d="M195.664 17.9141V32.1207H199.439V26.8359L203.968 32.1207H208.567L202.047 24.914L208.567 17.9141H203.968L199.439 23.1296V17.9141H195.664Z" fill="white"/>
<path fill-rule="evenodd" clip-rule="evenodd" d="M238.763 9.33356C238.763 8.9219 238.626 8.57849 238.283 8.30433C238.008 7.96092 237.665 7.82337 237.185 7.82337C236.773 7.82337 236.43 7.96092 236.087 8.23509C235.812 8.57849 235.675 8.9219 235.675 9.33356C235.675 9.81364 235.812 10.157 236.156 10.4312C236.43 10.7746 236.773 10.9121 237.185 10.9121C237.665 10.9121 238.008 10.7746 238.283 10.4312C238.626 10.157 238.763 9.81364 238.763 9.33356ZM239.587 9.33356C239.587 10.0194 239.38 10.5687 238.9 10.9804C238.42 11.4613 237.871 11.6672 237.185 11.6672C236.567 11.6672 236.018 11.4613 235.537 10.9804C235.057 10.5687 234.851 10.0194 234.851 9.33356C234.851 8.71604 235.057 8.16678 235.537 7.68588C236.018 7.20586 236.567 7 237.185 7C237.871 7 238.42 7.20586 238.9 7.68588C239.38 8.16678 239.587 8.71604 239.587 9.33356ZM233.615 10.2253C233.615 10.0887 233.615 9.95113 233.547 9.88282C233.41 9.67697 233.204 9.60778 232.93 9.60778H232.38V10.7746H232.93C233.067 10.7746 233.204 10.7746 233.341 10.7063C233.547 10.637 233.615 10.4312 233.615 10.2253ZM233.341 8.37264C233.341 8.16678 233.273 8.02923 233.135 7.96092C233.067 7.89261 232.93 7.89261 232.792 7.89261H232.38V8.78435H232.792C232.93 8.78435 233.067 8.78435 233.204 8.71604C233.273 8.6468 233.341 8.51019 233.341 8.37264ZM234.44 10.2253C234.44 10.637 234.371 10.9121 234.096 11.118C233.821 11.4613 233.341 11.598 232.655 11.598H231.557V7.13749H232.655C233.135 7.13749 233.479 7.20586 233.753 7.34335C234.096 7.61752 234.234 7.89261 234.234 8.30433C234.234 8.51019 234.096 8.71604 233.959 8.85266C233.959 8.99021 233.821 9.05852 233.685 9.12776C233.959 9.19607 234.165 9.33356 234.302 9.53942C234.371 9.74527 234.44 9.95113 234.44 10.2253ZM231.077 7.89261H230.322V11.598H229.429V7.89261H228.606V7.13749H231.077V7.89261ZM228.468 8.37264H227.508C227.371 8.23509 227.233 8.09847 227.096 8.02923C226.89 7.89261 226.684 7.82337 226.41 7.82337C225.93 7.82337 225.586 7.96092 225.312 8.30433C225.037 8.57849 224.831 8.9219 224.831 9.33356C224.831 9.74527 225.037 10.157 225.312 10.4312C225.586 10.7746 225.998 10.9121 226.41 10.9121C226.616 10.9121 226.821 10.8429 226.959 10.7746C227.165 10.7063 227.301 10.5687 227.439 10.3628H228.468C228.262 10.7746 227.988 11.118 227.645 11.3238C227.301 11.598 226.821 11.6672 226.41 11.6672C225.655 11.6672 225.037 11.3921 224.625 10.9121C224.214 10.4312 224.008 9.95113 224.008 9.33356C224.008 8.78435 224.214 8.23509 224.625 7.82337C225.037 7.27417 225.655 7 226.41 7C226.821 7 227.301 7.13749 227.645 7.34335C227.988 7.61752 228.262 7.96092 228.468 8.37264ZM223.528 11.598H221.125V7.13749H223.528V7.89261H221.949V8.9219H223.458V9.74527H221.949V10.7746H223.528V11.598ZM220.645 12.4223H219.821V11.598H214.88V7.13749H215.703V10.7746H217.144V7.13749H217.969V10.7746H219.341V7.13749H220.164V10.7746H220.645V12.4223ZM213.439 10.2253C213.439 10.0887 213.439 9.95113 213.37 9.81364C213.233 9.67697 213.027 9.60778 212.822 9.60778H212.066V10.7746H212.822C213.027 10.7746 213.164 10.7063 213.302 10.637C213.37 10.5004 213.439 10.3628 213.439 10.2253ZM214.331 10.2253C214.331 10.637 214.193 10.9804 213.919 11.1863C213.645 11.4613 213.233 11.598 212.822 11.598H211.243V7.13749H213.919V7.89261H212.066V8.78435H212.822C213.302 8.78435 213.645 8.9219 213.919 9.19607C214.193 9.47111 214.331 9.81364 214.331 10.2253ZM209.801 9.33356C209.801 8.9219 209.664 8.57849 209.389 8.30433C209.115 7.96092 208.703 7.82337 208.291 7.82337C207.879 7.82337 207.468 7.96092 207.193 8.23509C206.919 8.57849 206.782 8.9219 206.782 9.33356C206.782 9.81364 206.919 10.157 207.193 10.4312C207.468 10.7746 207.879 10.9121 208.291 10.9121C208.703 10.9121 209.115 10.7746 209.389 10.4312C209.664 10.157 209.801 9.81364 209.801 9.33356ZM210.694 9.33356C210.694 10.0194 210.419 10.5687 210.007 10.9804C209.527 11.4613 208.978 11.6672 208.291 11.6672C207.605 11.6672 207.056 11.4613 206.644 10.9804C206.164 10.5687 205.958 10.0194 205.958 9.33356C205.958 8.71604 206.164 8.16678 206.644 7.68588C207.056 7.20586 207.605 7 208.291 7C208.978 7 209.527 7.20586 210.007 7.68588C210.419 8.16678 210.694 8.71604 210.694 9.33356ZM203.968 11.598H201.566V7.13749H203.968V7.89261H202.39V8.9219H203.899V9.74527H202.39V10.7746H203.968V11.598ZM200.124 9.33356C200.124 8.9219 199.988 8.57849 199.713 8.30433C199.438 7.96092 199.095 7.82337 198.615 7.82337C198.203 7.82337 197.791 7.96092 197.516 8.23509C197.242 8.57849 197.105 8.9219 197.105 9.33356C197.105 9.81364 197.242 10.157 197.516 10.4312C197.791 10.7746 198.203 10.9121 198.615 10.9121C199.027 10.9121 199.438 10.7746 199.713 10.4312C199.988 10.157 200.124 9.81364 200.124 9.33356ZM201.017 9.33356C201.017 10.0194 200.743 10.5687 200.331 10.9804C199.85 11.4613 199.301 11.6672 198.615 11.6672C197.928 11.6672 197.379 11.4613 196.899 10.9804C196.487 10.5687 196.212 10.0194 196.212 9.33356C196.212 8.71604 196.487 8.16678 196.899 7.68588C197.379 7.20586 197.928 7 198.615 7C199.301 7 199.85 7.20586 200.331 7.68588C200.743 8.16678 201.017 8.71604 201.017 9.33356ZM195.664 11.598H194.84V9.67697H193.194V11.598H192.369V7.13749H193.194V8.9219H194.84V7.13749H195.664V11.598ZM190.997 8.51019C190.997 8.23509 190.928 8.09847 190.722 8.02923C190.585 7.89261 190.447 7.89261 190.241 7.89261H189.761V9.05852H190.241C190.517 9.05852 190.722 9.05852 190.791 8.9219C190.928 8.78435 190.997 8.6468 190.997 8.51019ZM191.82 8.51019C191.82 8.85266 191.683 9.12776 191.477 9.40192C191.202 9.67697 190.791 9.88282 190.241 9.88282H189.761V11.598H188.938V7.13749H190.241C190.859 7.13749 191.271 7.27417 191.546 7.61752C191.752 7.89261 191.82 8.16678 191.82 8.51019ZM188.183 11.598H185.781V7.13749H188.183V7.89261H186.604V8.9219H188.115V9.74527H186.604V10.7746H188.183V11.598ZM184.958 11.598H184.133V9.67697H182.486V11.598H181.663V7.13749H182.486V8.9219H184.133V7.13749H184.958V11.598ZM180.222 9.33356C180.222 8.9219 180.084 8.57849 179.741 8.30433C179.467 7.96092 179.124 7.82337 178.644 7.82337C178.232 7.82337 177.888 7.96092 177.545 8.23509C177.271 8.57849 177.133 8.9219 177.133 9.33356C177.133 9.81364 177.271 10.157 177.545 10.4312C177.888 10.7746 178.232 10.9121 178.644 10.9121C179.124 10.9121 179.467 10.7746 179.741 10.4312C180.084 10.157 180.222 9.81364 180.222 9.33356ZM181.045 9.33356C181.045 10.0194 180.84 10.5687 180.36 10.9804C179.879 11.4613 179.329 11.6672 178.644 11.6672C178.026 11.6672 177.408 11.4613 176.996 10.9804C176.516 10.5687 176.31 10.0194 176.31 9.33356C176.31 8.71604 176.516 8.16678 176.996 7.68588C177.408 7.20586 178.026 7 178.644 7C179.329 7 179.879 7.20586 180.36 7.68588C180.84 8.16678 181.045 8.71604 181.045 9.33356ZM175.692 11.598H174.869V8.44095L172.879 11.598H172.054V7.13749H172.879V10.2253L174.869 7.13749H175.692V11.598ZM171.574 12.4223H170.751V11.598H167.8V7.13749H168.623V10.7746H170.271V7.13749H171.094V10.7746H171.574V12.4223ZM167.251 11.598H166.221L164.849 9.60778V11.598H164.025V7.13749H164.849V9.05852L166.221 7.13749H167.251L165.535 9.33356L167.251 11.598ZM161.897 9.60778L161.348 8.30433L160.868 9.60778H161.897ZM163.545 11.598H162.653L162.173 10.4312H160.525L160.045 11.598H159.152L161.006 7.13749H161.692L163.545 11.598ZM157.369 11.598H154.966V7.13749H157.369V7.89261H155.789V8.9219H157.299V9.74527H155.789V10.7746H157.369V11.598ZM153.525 9.33356C153.525 8.9219 153.387 8.57849 153.044 8.30433C152.77 7.96092 152.426 7.82337 152.015 7.82337C151.535 7.82337 151.191 7.96092 150.849 8.23509C150.574 8.57849 150.436 8.9219 150.436 9.33356C150.436 9.81364 150.574 10.157 150.917 10.4312C151.191 10.7746 151.535 10.9121 152.015 10.9121C152.426 10.9121 152.77 10.7746 153.044 10.4312C153.387 10.157 153.525 9.81364 153.525 9.33356ZM154.348 9.33356C154.348 10.0194 154.142 10.5687 153.662 10.9804C153.182 11.4613 152.632 11.6672 152.015 11.6672C151.329 11.6672 150.78 11.4613 150.3 10.9804C149.819 10.5687 149.613 10.0194 149.613 9.33356C149.613 8.71604 149.819 8.16678 150.3 7.68588C150.78 7.20586 151.329 7 152.015 7C152.632 7 153.182 7.20586 153.662 7.68588C154.142 8.16678 154.348 8.71604 154.348 9.33356ZM149.544 7.89261H148.72V11.598H147.897V7.89261H147.073V7.13749H149.544V7.89261ZM144.466 10.2253C144.466 10.0194 144.466 9.88282 144.329 9.81364C144.191 9.67697 144.054 9.60778 143.848 9.60778H143.162V10.7746H143.848C144.054 10.7746 144.191 10.7063 144.329 10.637C144.466 10.5004 144.466 10.3628 144.466 10.2253ZM145.358 10.2253C145.358 10.637 145.152 10.9804 144.877 11.1863C144.603 11.4613 144.26 11.598 143.848 11.598H142.338V7.13749H143.162V8.78435H143.848C144.329 8.78435 144.741 8.99021 145.015 9.26525C145.221 9.47111 145.358 9.81364 145.358 10.2253ZM146.593 11.598H145.77V7.13749H146.593V11.598ZM140.965 8.51019C140.965 8.23509 140.897 8.09847 140.691 8.02923C140.553 7.89261 140.417 7.89261 140.279 7.89261H139.799V9.05852H140.279C140.485 9.05852 140.691 9.05852 140.828 8.9219C140.897 8.78435 140.965 8.6468 140.965 8.51019ZM141.789 8.51019C141.789 8.85266 141.72 9.12776 141.514 9.40192C141.24 9.67697 140.759 9.88282 140.211 9.88282H139.799V11.598H138.907V7.13749H140.211C140.828 7.13749 141.24 7.27417 141.514 7.61752C141.72 7.89261 141.789 8.16678 141.789 8.51019ZM138.357 11.598H137.396L136.024 9.60778V11.598H135.132V7.13749H136.024V9.05852L137.396 7.13749H138.357L136.711 9.33356L138.357 11.598ZM134.72 7.89261H133.897V11.598H133.073V7.89261H132.25V7.13749H134.72V7.89261ZM131.357 9.33356C131.357 8.9219 131.22 8.57849 130.946 8.30433C130.602 7.96092 130.259 7.82337 129.779 7.82337C129.367 7.82337 129.024 7.96092 128.75 8.23509C128.406 8.57849 128.269 8.9219 128.269 9.33356C128.269 9.81364 128.406 10.157 128.75 10.4312C129.024 10.7746 129.367 10.9121 129.779 10.9121C130.259 10.9121 130.602 10.7746 130.946 10.4312C131.22 10.157 131.357 9.81364 131.357 9.33356ZM132.181 9.33356C132.181 10.0194 131.975 10.5687 131.495 10.9804C131.083 11.4613 130.465 11.6672 129.779 11.6672C129.161 11.6672 128.612 11.4613 128.132 10.9804C127.651 10.5687 127.445 10.0194 127.445 9.33356C127.445 8.71604 127.651 8.16678 128.132 7.68588C128.612 7.20586 129.161 7 129.779 7C130.465 7 131.083 7.20586 131.495 7.68588C131.975 8.16678 132.181 8.71604 132.181 9.33356Z" fill="white"/>
<path fill-rule="evenodd" clip-rule="evenodd" d="M236.98 14.6172C236.705 15.9216 236.43 16.4708 235.401 17.225C233.823 18.2543 230.597 18.1176 229.293 16.8133C228.744 16.3333 228.264 15.6465 228.195 14.6172H231.421C231.489 15.2348 231.764 15.5099 232.656 15.5099C233.411 15.5099 233.617 15.304 233.685 14.6172H236.98Z" fill="white"/>
<path fill-rule="evenodd" clip-rule="evenodd" d="M238.763 9.33356C238.763 8.9219 238.626 8.57849 238.283 8.30433C238.008 7.96092 237.665 7.82337 237.185 7.82337C236.773 7.82337 236.43 7.96092 236.087 8.23509C235.812 8.57849 235.675 8.9219 235.675 9.33356C235.675 9.81364 235.812 10.157 236.156 10.4312C236.43 10.7746 236.773 10.9121 237.185 10.9121C237.665 10.9121 238.008 10.7746 238.283 10.4312C238.626 10.157 238.763 9.81364 238.763 9.33356ZM239.587 9.33356C239.587 10.0194 239.38 10.5687 238.9 10.9804C238.42 11.4613 237.871 11.6672 237.185 11.6672C236.567 11.6672 236.018 11.4613 235.537 10.9804C235.057 10.5687 234.851 10.0194 234.851 9.33356C234.851 8.71604 235.057 8.16678 235.537 7.68588C236.018 7.20586 236.567 7 237.185 7C237.871 7 238.42 7.20586 238.9 7.68588C239.38 8.16678 239.587 8.71604 239.587 9.33356ZM233.615 10.2253C233.615 10.0887 233.615 9.95113 233.547 9.88282C233.41 9.67697 233.204 9.60778 232.93 9.60778H232.38V10.7746H232.93C233.067 10.7746 233.204 10.7746 233.341 10.7063C233.547 10.637 233.615 10.4312 233.615 10.2253ZM233.341 8.37264C233.341 8.16678 233.273 8.02923 233.135 7.96092C233.067 7.89261 232.93 7.89261 232.792 7.89261H232.38V8.78435H232.792C232.93 8.78435 233.067 8.78435 233.204 8.71604C233.273 8.6468 233.341 8.51019 233.341 8.37264ZM234.44 10.2253C234.44 10.637 234.371 10.9121 234.096 11.118C233.821 11.4613 233.341 11.598 232.655 11.598H231.557V7.13749H232.655C233.135 7.13749 233.479 7.20586 233.753 7.34335C234.096 7.61752 234.234 7.89261 234.234 8.30433C234.234 8.51019 234.096 8.71604 233.959 8.85266C233.959 8.99021 233.821 9.05852 233.685 9.12776C233.959 9.19607 234.165 9.33356 234.302 9.53942C234.371 9.74527 234.44 9.95113 234.44 10.2253ZM231.077 7.89261H230.322V11.598H229.429V7.89261H228.606V7.13749H231.077V7.89261ZM228.468 8.37264H227.508C227.371 8.23509 227.233 8.09847 227.096 8.02923C226.89 7.89261 226.684 7.82337 226.41 7.82337C225.93 7.82337 225.586 7.96092 225.312 8.30433C225.037 8.57849 224.831 8.9219 224.831 9.33356C224.831 9.74527 225.037 10.157 225.312 10.4312C225.586 10.7746 225.998 10.9121 226.41 10.9121C226.616 10.9121 226.821 10.8429 226.959 10.7746C227.165 10.7063 227.301 10.5687 227.439 10.3628H228.468C228.262 10.7746 227.988 11.118 227.645 11.3238C227.301 11.598 226.821 11.6672 226.41 11.6672C225.655 11.6672 225.037 11.3921 224.625 10.9121C224.214 10.4312 224.008 9.95113 224.008 9.33356C224.008 8.78435 224.214 8.23509 224.625 7.82337C225.037 7.27417 225.655 7 226.41 7C226.821 7 227.301 7.13749 227.645 7.34335C227.988 7.61752 228.262 7.96092 228.468 8.37264ZM223.528 11.598H221.125V7.13749H223.528V7.89261H221.949V8.9219H223.458V9.74527H221.949V10.7746H223.528V11.598ZM220.645 12.4223H219.821V11.598H214.88V7.13749H215.703V10.7746H217.144V7.13749H217.969V10.7746H219.341V7.13749H220.164V10.7746H220.645V12.4223ZM213.439 10.2253C213.439 10.0887 213.439 9.95113 213.37 9.81364C213.233 9.67697 213.027 9.60778 212.822 9.60778H212.066V10.7746H212.822C213.027 10.7746 213.164 10.7063 213.302 10.637C213.37 10.5004 213.439 10.3628 213.439 10.2253ZM214.331 10.2253C214.331 10.637 214.193 10.9804 213.919 11.1863C213.645 11.4613 213.233 11.598 212.822 11.598H211.243V7.13749H213.919V7.89261H212.066V8.78435H212.822C213.302 8.78435 213.645 8.9219 213.919 9.19607C214.193 9.47111 214.331 9.81364 214.331 10.2253ZM209.801 9.33356C209.801 8.9219 209.664 8.57849 209.389 8.30433C209.115 7.96092 208.703 7.82337 208.291 7.82337C207.879 7.82337 207.468 7.96092 207.193 8.23509C206.919 8.57849 206.782 8.9219 206.782 9.33356C206.782 9.81364 206.919 10.157 207.193 10.4312C207.468 10.7746 207.879 10.9121 208.291 10.9121C208.703 10.9121 209.115 10.7746 209.389 10.4312C209.664 10.157 209.801 9.81364 209.801 9.33356ZM210.694 9.33356C210.694 10.0194 210.419 10.5687 210.007 10.9804C209.527 11.4613 208.978 11.6672 208.291 11.6672C207.605 11.6672 207.056 11.4613 206.644 10.9804C206.164 10.5687 205.958 10.0194 205.958 9.33356C205.958 8.71604 206.164 8.16678 206.644 7.68588C207.056 7.20586 207.605 7 208.291 7C208.978 7 209.527 7.20586 210.007 7.68588C210.419 8.16678 210.694 8.71604 210.694 9.33356ZM203.968 11.598H201.566V7.13749H203.968V7.89261H202.39V8.9219H203.899V9.74527H202.39V10.7746H203.968V11.598ZM200.124 9.33356C200.124 8.9219 199.988 8.57849 199.713 8.30433C199.438 7.96092 199.095 7.82337 198.615 7.82337C198.203 7.82337 197.791 7.96092 197.516 8.23509C197.242 8.57849 197.105 8.9219 197.105 9.33356C197.105 9.81364 197.242 10.157 197.516 10.4312C197.791 10.7746 198.203 10.9121 198.615 10.9121C199.027 10.9121 199.438 10.7746 199.713 10.4312C199.988 10.157 200.124 9.81364 200.124 9.33356ZM201.017 9.33356C201.017 10.0194 200.743 10.5687 200.331 10.9804C199.85 11.4613 199.301 11.6672 198.615 11.6672C197.928 11.6672 197.379 11.4613 196.899 10.9804C196.487 10.5687 196.212 10.0194 196.212 9.33356C196.212 8.71604 196.487 8.16678 196.899 7.68588C197.379 7.20586 197.928 7 198.615 7C199.301 7 199.85 7.20586 200.331 7.68588C200.743 8.16678 201.017 8.71604 201.017 9.33356ZM195.664 11.598H194.84V9.67697H193.194V11.598H192.369V7.13749H193.194V8.9219H194.84V7.13749H195.664V11.598ZM190.997 8.51019C190.997 8.23509 190.928 8.09847 190.722 8.02923C190.585 7.89261 190.447 7.89261 190.241 7.89261H189.761V9.05852H190.241C190.517 9.05852 190.722 9.05852 190.791 8.9219C190.928 8.78435 190.997 8.6468 190.997 8.51019ZM191.82 8.51019C191.82 8.85266 191.683 9.12776 191.477 9.40192C191.202 9.67697 190.791 9.88282 190.241 9.88282H189.761V11.598H188.938V7.13749H190.241C190.859 7.13749 191.271 7.27417 191.546 7.61752C191.752 7.89261 191.82 8.16678 191.82 8.51019ZM188.183 11.598H185.781V7.13749H188.183V7.89261H186.604V8.9219H188.115V9.74527H186.604V10.7746H188.183V11.598ZM184.958 11.598H184.133V9.67697H182.486V11.598H181.663V7.13749H182.486V8.9219H184.133V7.13749H184.958V11.598ZM180.222 9.33356C180.222 8.9219 180.084 8.57849 179.741 8.30433C179.467 7.96092 179.124 7.82337 178.644 7.82337C178.232 7.82337 177.888 7.96092 177.545 8.23509C177.271 8.57849 177.133 8.9219 177.133 9.33356C177.133 9.81364 177.271 10.157 177.545 10.4312C177.888 10.7746 178.232 10.9121 178.644 10.9121C179.124 10.9121 179.467 10.7746 179.741 10.4312C180.084 10.157 180.222 9.81364 180.222 9.33356ZM181.045 9.33356C181.045 10.0194 180.84 10.5687 180.36 10.9804C179.879 11.4613 179.329 11.6672 178.644 11.6672C178.026 11.6672 177.408 11.4613 176.996 10.9804C176.516 10.5687 176.31 10.0194 176.31 9.33356C176.31 8.71604 176.516 8.16678 176.996 7.68588C177.408 7.20586 178.026 7 178.644 7C179.329 7 179.879 7.20586 180.36 7.68588C180.84 8.16678 181.045 8.71604 181.045 9.33356ZM175.692 11.598H174.869V8.44095L172.879 11.598H172.054V7.13749H172.879V10.2253L174.869 7.13749H175.692V11.598ZM171.574 12.4223H170.751V11.598H167.8V7.13749H168.623V10.7746H170.271V7.13749H171.094V10.7746H171.574V12.4223ZM167.251 11.598H166.221L164.849 9.60778V11.598H164.025V7.13749H164.849V9.05852L166.221 7.13749H167.251L165.535 9.33356L167.251 11.598ZM161.897 9.60778L161.348 8.30433L160.868 9.60778H161.897ZM163.545 11.598H162.653L162.173 10.4312H160.525L160.045 11.598H159.152L161.006 7.13749H161.692L163.545 11.598ZM157.369 11.598H154.966V7.13749H157.369V7.89261H155.789V8.9219H157.299V9.74527H155.789V10.7746H157.369V11.598ZM153.525 9.33356C153.525 8.9219 153.387 8.57849 153.044 8.30433C152.77 7.96092 152.426 7.82337 152.015 7.82337C151.535 7.82337 151.191 7.96092 150.849 8.23509C150.574 8.57849 150.436 8.9219 150.436 9.33356C150.436 9.81364 150.574 10.157 150.917 10.4312C151.191 10.7746 151.535 10.9121 152.015 10.9121C152.426 10.9121 152.77 10.7746 153.044 10.4312C153.387 10.157 153.525 9.81364 153.525 9.33356ZM154.348 9.33356C154.348 10.0194 154.142 10.5687 153.662 10.9804C153.182 11.4613 152.632 11.6672 152.015 11.6672C151.329 11.6672 150.78 11.4613 150.3 10.9804C149.819 10.5687 149.613 10.0194 149.613 9.33356C149.613 8.71604 149.819 8.16678 150.3 7.68588C150.78 7.20586 151.329 7 152.015 7C152.632 7 153.182 7.20586 153.662 7.68588C154.142 8.16678 154.348 8.71604 154.348 9.33356ZM149.544 7.89261H148.72V11.598H147.897V7.89261H147.073V7.13749H149.544V7.89261ZM144.466 10.2253C144.466 10.0194 144.466 9.88282 144.329 9.81364C144.191 9.67697 144.054 9.60778 143.848 9.60778H143.162V10.7746H143.848C144.054 10.7746 144.191 10.7063 144.329 10.637C144.466 10.5004 144.466 10.3628 144.466 10.2253ZM145.358 10.2253C145.358 10.637 145.152 10.9804 144.877 11.1863C144.603 11.4613 144.26 11.598 143.848 11.598H142.338V7.13749H143.162V8.78435H143.848C144.329 8.78435 144.741 8.99021 145.015 9.26525C145.221 9.47111 145.358 9.81364 145.358 10.2253ZM146.593 11.598H145.77V7.13749H146.593V11.598ZM140.965 8.51019C140.965 8.23509 140.897 8.09847 140.691 8.02923C140.553 7.89261 140.417 7.89261 140.279 7.89261H139.799V9.05852H140.279C140.485 9.05852 140.691 9.05852 140.828 8.9219C140.897 8.78435 140.965 8.6468 140.965 8.51019ZM141.789 8.51019C141.789 8.85266 141.72 9.12776 141.514 9.40192C141.24 9.67697 140.759 9.88282 140.211 9.88282H139.799V11.598H138.907V7.13749H140.211C140.828 7.13749 141.24 7.27417 141.514 7.61752C141.72 7.89261 141.789 8.16678 141.789 8.51019ZM138.357 11.598H137.396L136.024 9.60778V11.598H135.132V7.13749H136.024V9.05852L137.396 7.13749H138.357L136.711 9.33356L138.357 11.598ZM134.72 7.89261H133.897V11.598H133.073V7.89261H132.25V7.13749H134.72V7.89261ZM131.357 9.33356C131.357 8.9219 131.22 8.57849 130.946 8.30433C130.602 7.96092 130.259 7.82337 129.779 7.82337C129.367 7.82337 129.024 7.96092 128.75 8.23509C128.406 8.57849 128.269 8.9219 128.269 9.33356C128.269 9.81364 128.406 10.157 128.75 10.4312C129.024 10.7746 129.367 10.9121 129.779 10.9121C130.259 10.9121 130.602 10.7746 130.946 10.4312C131.22 10.157 131.357 9.81364 131.357 9.33356ZM132.181 9.33356C132.181 10.0194 131.975 10.5687 131.495 10.9804C131.083 11.4613 130.465 11.6672 129.779 11.6672C129.161 11.6672 128.612 11.4613 128.132 10.9804C127.651 10.5687 127.445 10.0194 127.445 9.33356C127.445 8.71604 127.651 8.16678 128.132 7.68588C128.612 7.20586 129.161 7 129.779 7C130.465 7 131.083 7.20586 131.495 7.68588C131.975 8.16678 132.181 8.71604 132.181 9.33356Z" fill="white"/>
<path fill-rule="evenodd" clip-rule="evenodd" d="M236.98 14.6172C236.705 15.9216 236.43 16.4708 235.401 17.225C233.823 18.2543 230.597 18.1176 229.293 16.8133C228.744 16.3333 228.264 15.6465 228.195 14.6172H231.421C231.489 15.2348 231.764 15.5099 232.656 15.5099C233.411 15.5099 233.617 15.304 233.685 14.6172H236.98Z" fill="white"/>
<path fill-rule="evenodd" clip-rule="evenodd" d="M238.763 9.33356C238.763 8.9219 238.626 8.57849 238.283 8.30433C238.008 7.96092 237.665 7.82337 237.185 7.82337C236.773 7.82337 236.43 7.96092 236.087 8.23509C235.812 8.57849 235.675 8.9219 235.675 9.33356C235.675 9.81364 235.812 10.157 236.156 10.4312C236.43 10.7746 236.773 10.9121 237.185 10.9121C237.665 10.9121 238.008 10.7746 238.283 10.4312C238.626 10.157 238.763 9.81364 238.763 9.33356ZM239.587 9.33356C239.587 10.0194 239.38 10.5687 238.9 10.9804C238.42 11.4613 237.871 11.6672 237.185 11.6672C236.567 11.6672 236.018 11.4613 235.537 10.9804C235.057 10.5687 234.851 10.0194 234.851 9.33356C234.851 8.71604 235.057 8.16678 235.537 7.68588C236.018 7.20586 236.567 7 237.185 7C237.871 7 238.42 7.20586 238.9 7.68588C239.38 8.16678 239.587 8.71604 239.587 9.33356ZM233.615 10.2253C233.615 10.0887 233.615 9.95113 233.547 9.88282C233.41 9.67697 233.204 9.60778 232.93 9.60778H232.38V10.7746H232.93C233.067 10.7746 233.204 10.7746 233.341 10.7063C233.547 10.637 233.615 10.4312 233.615 10.2253ZM233.341 8.37264C233.341 8.16678 233.273 8.02923 233.135 7.96092C233.067 7.89261 232.93 7.89261 232.792 7.89261H232.38V8.78435H232.792C232.93 8.78435 233.067 8.78435 233.204 8.71604C233.273 8.6468 233.341 8.51019 233.341 8.37264ZM234.44 10.2253C234.44 10.637 234.371 10.9121 234.096 11.118C233.821 11.4613 233.341 11.598 232.655 11.598H231.557V7.13749H232.655C233.135 7.13749 233.479 7.20586 233.753 7.34335C234.096 7.61752 234.234 7.89261 234.234 8.30433C234.234 8.51019 234.096 8.71604 233.959 8.85266C233.959 8.99021 233.821 9.05852 233.685 9.12776C233.959 9.19607 234.165 9.33356 234.302 9.53942C234.371 9.74527 234.44 9.95113 234.44 10.2253ZM231.077 7.89261H230.322V11.598H229.429V7.89261H228.606V7.13749H231.077V7.89261ZM228.468 8.37264H227.508C227.371 8.23509 227.233 8.09847 227.096 8.02923C226.89 7.89261 226.684 7.82337 226.41 7.82337C225.93 7.82337 225.586 7.96092 225.312 8.30433C225.037 8.57849 224.831 8.9219 224.831 9.33356C224.831 9.74527 225.037 10.157 225.312 10.4312C225.586 10.7746 225.998 10.9121 226.41 10.9121C226.616 10.9121 226.821 10.8429 226.959 10.7746C227.165 10.7063 227.301 10.5687 227.439 10.3628H228.468C228.262 10.7746 227.988 11.118 227.645 11.3238C227.301 11.598 226.821 11.6672 226.41 11.6672C225.655 11.6672 225.037 11.3921 224.625 10.9121C224.214 10.4312 224.008 9.95113 224.008 9.33356C224.008 8.78435 224.214 8.23509 224.625 7.82337C225.037 7.27417 225.655 7 226.41 7C226.821 7 227.301 7.13749 227.645 7.34335C227.988 7.61752 228.262 7.96092 228.468 8.37264ZM223.528 11.598H221.125V7.13749H223.528V7.89261H221.949V8.9219H223.458V9.74527H221.949V10.7746H223.528V11.598ZM220.645 12.4223H219.821V11.598H214.88V7.13749H215.703V10.7746H217.144V7.13749H217.969V10.7746H219.341V7.13749H220.164V10.7746H220.645V12.4223ZM213.439 10.2253C213.439 10.0887 213.439 9.95113 213.37 9.81364C213.233 9.67697 213.027 9.60778 212.822 9.60778H212.066V10.7746H212.822C213.027 10.7746 213.164 10.7063 213.302 10.637C213.37 10.5004 213.439 10.3628 213.439 10.2253ZM214.331 10.2253C214.331 10.637 214.193 10.9804 213.919 11.1863C213.645 11.4613 213.233 11.598 212.822 11.598H211.243V7.13749H213.919V7.89261H212.066V8.78435H212.822C213.302 8.78435 213.645 8.9219 213.919 9.19607C214.193 9.47111 214.331 9.81364 214.331 10.2253ZM209.801 9.33356C209.801 8.9219 209.664 8.57849 209.389 8.30433C209.115 7.96092 208.703 7.82337 208.291 7.82337C207.879 7.82337 207.468 7.96092 207.193 8.23509C206.919 8.57849 206.782 8.9219 206.782 9.33356C206.782 9.81364 206.919 10.157 207.193 10.4312C207.468 10.7746 207.879 10.9121 208.291 10.9121C208.703 10.9121 209.115 10.7746 209.389 10.4312C209.664 10.157 209.801 9.81364 209.801 9.33356ZM210.694 9.33356C210.694 10.0194 210.419 10.5687 210.007 10.9804C209.527 11.4613 208.978 11.6672 208.291 11.6672C207.605 11.6672 207.056 11.4613 206.644 10.9804C206.164 10.5687 205.958 10.0194 205.958 9.33356C205.958 8.71604 206.164 8.16678 206.644 7.68588C207.056 7.20586 207.605 7 208.291 7C208.978 7 209.527 7.20586 210.007 7.68588C210.419 8.16678 210.694 8.71604 210.694 9.33356ZM203.968 11.598H201.566V7.13749H203.968V7.89261H202.39V8.9219H203.899V9.74527H202.39V10.7746H203.968V11.598ZM200.124 9.33356C200.124 8.9219 199.988 8.57849 199.713 8.30433C199.438 7.96092 199.095 7.82337 198.615 7.82337C198.203 7.82337 197.791 7.96092 197.516 8.23509C197.242 8.57849 197.105 8.9219 197.105 9.33356C197.105 9.81364 197.242 10.157 197.516 10.4312C197.791 10.7746 198.203 10.9121 198.615 10.9121C199.027 10.9121 199.438 10.7746 199.713 10.4312C199.988 10.157 200.124 9.81364 200.124 9.33356ZM201.017 9.33356C201.017 10.0194 200.743 10.5687 200.331 10.9804C199.85 11.4613 199.301 11.6672 198.615 11.6672C197.928 11.6672 197.379 11.4613 196.899 10.9804C196.487 10.5687 196.212 10.0194 196.212 9.33356C196.212 8.71604 196.487 8.16678 196.899 7.68588C197.379 7.20586 197.928 7 198.615 7C199.301 7 199.85 7.20586 200.331 7.68588C200.743 8.16678 201.017 8.71604 201.017 9.33356ZM195.664 11.598H194.84V9.67697H193.194V11.598H192.369V7.13749H193.194V8.9219H194.84V7.13749H195.664V11.598ZM190.997 8.51019C190.997 8.23509 190.928 8.09847 190.722 8.02923C190.585 7.89261 190.447 7.89261 190.241 7.89261H189.761V9.05852H190.241C190.517 9.05852 190.722 9.05852 190.791 8.9219C190.928 8.78435 190.997 8.6468 190.997 8.51019ZM191.82 8.51019C191.82 8.85266 191.683 9.12776 191.477 9.40192C191.202 9.67697 190.791 9.88282 190.241 9.88282H189.761V11.598H188.938V7.13749H190.241C190.859 7.13749 191.271 7.27417 191.546 7.61752C191.752 7.89261 191.82 8.16678 191.82 8.51019ZM188.183 11.598H185.781V7.13749H188.183V7.89261H186.604V8.9219H188.115V9.74527H186.604V10.7746H188.183V11.598ZM184.958 11.598H184.133V9.67697H182.486V11.598H181.663V7.13749H182.486V8.9219H184.133V7.13749H184.958V11.598ZM180.222 9.33356C180.222 8.9219 180.084 8.57849 179.741 8.30433C179.467 7.96092 179.124 7.82337 178.644 7.82337C178.232 7.82337 177.888 7.96092 177.545 8.23509C177.271 8.57849 177.133 8.9219 177.133 9.33356C177.133 9.81364 177.271 10.157 177.545 10.4312C177.888 10.7746 178.232 10.9121 178.644 10.9121C179.124 10.9121 179.467 10.7746 179.741 10.4312C180.084 10.157 180.222 9.81364 180.222 9.33356ZM181.045 9.33356C181.045 10.0194 180.84 10.5687 180.36 10.9804C179.879 11.4613 179.329 11.6672 178.644 11.6672C178.026 11.6672 177.408 11.4613 176.996 10.9804C176.516 10.5687 176.31 10.0194 176.31 9.33356C176.31 8.71604 176.516 8.16678 176.996 7.68588C177.408 7.20586 178.026 7 178.644 7C179.329 7 179.879 7.20586 180.36 7.68588C180.84 8.16678 181.045 8.71604 181.045 9.33356ZM175.692 11.598H174.869V8.44095L172.879 11.598H172.054V7.13749H172.879V10.2253L174.869 7.13749H175.692V11.598ZM171.574 12.4223H170.751V11.598H167.8V7.13749H168.623V10.7746H170.271V7.13749H171.094V10.7746H171.574V12.4223ZM167.251 11.598H166.221L164.849 9.60778V11.598H164.025V7.13749H164.849V9.05852L166.221 7.13749H167.251L165.535 9.33356L167.251 11.598ZM161.897 9.60778L161.348 8.30433L160.868 9.60778H161.897ZM163.545 11.598H162.653L162.173 10.4312H160.525L160.045 11.598H159.152L161.006 7.13749H161.692L163.545 11.598ZM157.369 11.598H154.966V7.13749H157.369V7.89261H155.789V8.9219H157.299V9.74527H155.789V10.7746H157.369V11.598ZM153.525 9.33356C153.525 8.9219 153.387 8.57849 153.044 8.30433C152.77 7.96092 152.426 7.82337 152.015 7.82337C151.535 7.82337 151.191 7.96092 150.849 8.23509C150.574 8.57849 150.436 8.9219 150.436 9.33356C150.436 9.81364 150.574 10.157 150.917 10.4312C151.191 10.7746 151.535 10.9121 152.015 10.9121C152.426 10.9121 152.77 10.7746 153.044 10.4312C153.387 10.157 153.525 9.81364 153.525 9.33356ZM154.348 9.33356C154.348 10.0194 154.142 10.5687 153.662 10.9804C153.182 11.4613 152.632 11.6672 152.015 11.6672C151.329 11.6672 150.78 11.4613 150.3 10.9804C149.819 10.5687 149.613 10.0194 149.613 9.33356C149.613 8.71604 149.819 8.16678 150.3 7.68588C150.78 7.20586 151.329 7 152.015 7C152.632 7 153.182 7.20586 153.662 7.68588C154.142 8.16678 154.348 8.71604 154.348 9.33356ZM149.544 7.89261H148.72V11.598H147.897V7.89261H147.073V7.13749H149.544V7.89261ZM144.466 10.2253C144.466 10.0194 144.466 9.88282 144.329 9.81364C144.191 9.67697 144.054 9.60778 143.848 9.60778H143.162V10.7746H143.848C144.054 10.7746 144.191 10.7063 144.329 10.637C144.466 10.5004 144.466 10.3628 144.466 10.2253ZM145.358 10.2253C145.358 10.637 145.152 10.9804 144.877 11.1863C144.603 11.4613 144.26 11.598 143.848 11.598H142.338V7.13749H143.162V8.78435H143.848C144.329 8.78435 144.741 8.99021 145.015 9.26525C145.221 9.47111 145.358 9.81364 145.358 10.2253ZM146.593 11.598H145.77V7.13749H146.593V11.598ZM140.965 8.51019C140.965 8.23509 140.897 8.09847 140.691 8.02923C140.553 7.89261 140.417 7.89261 140.279 7.89261H139.799V9.05852H140.279C140.485 9.05852 140.691 9.05852 140.828 8.9219C140.897 8.78435 140.965 8.6468 140.965 8.51019ZM141.789 8.51019C141.789 8.85266 141.72 9.12776 141.514 9.40192C141.24 9.67697 140.759 9.88282 140.211 9.88282H139.799V11.598H138.907V7.13749H140.211C140.828 7.13749 141.24 7.27417 141.514 7.61752C141.72 7.89261 141.789 8.16678 141.789 8.51019ZM138.357 11.598H137.396L136.024 9.60778V11.598H135.132V7.13749H136.024V9.05852L137.396 7.13749H138.357L136.711 9.33356L138.357 11.598ZM134.72 7.89261H133.897V11.598H133.073V7.89261H132.25V7.13749H134.72V7.89261ZM131.357 9.33356C131.357 8.9219 131.22 8.57849 130.946 8.30433C130.602 7.96092 130.259 7.82337 129.779 7.82337C129.367 7.82337 129.024 7.96092 128.75 8.23509C128.406 8.57849 128.269 8.9219 128.269 9.33356C128.269 9.81364 128.406 10.157 128.75 10.4312C129.024 10.7746 129.367 10.9121 129.779 10.9121C130.259 10.9121 130.602 10.7746 130.946 10.4312C131.22 10.157 131.357 9.81364 131.357 9.33356ZM132.181 9.33356C132.181 10.0194 131.975 10.5687 131.495 10.9804C131.083 11.4613 130.465 11.6672 129.779 11.6672C129.161 11.6672 128.612 11.4613 128.132 10.9804C127.651 10.5687 127.445 10.0194 127.445 9.33356C127.445 8.71604 127.651 8.16678 128.132 7.68588C128.612 7.20586 129.161 7 129.779 7C130.465 7 131.083 7.20586 131.495 7.68588C131.975 8.16678 132.181 8.71604 132.181 9.33356Z" fill="white"/>
<path fill-rule="evenodd" clip-rule="evenodd" d="M236.98 14.6172C236.705 15.9216 236.43 16.4708 235.401 17.225C233.823 18.2543 230.597 18.1176 229.293 16.8133C228.744 16.3333 228.264 15.6465 228.195 14.6172H231.421C231.489 15.2348 231.764 15.5099 232.656 15.5099C233.411 15.5099 233.617 15.304 233.685 14.6172H236.98Z" fill="white"/>
<path fill-rule="evenodd" clip-rule="evenodd" d="M238.763 9.33356C238.763 8.9219 238.626 8.57849 238.283 8.30433C238.008 7.96092 237.665 7.82337 237.185 7.82337C236.773 7.82337 236.43 7.96092 236.087 8.23509C235.812 8.57849 235.675 8.9219 235.675 9.33356C235.675 9.81364 235.812 10.157 236.156 10.4312C236.43 10.7746 236.773 10.9121 237.185 10.9121C237.665 10.9121 238.008 10.7746 238.283 10.4312C238.626 10.157 238.763 9.81364 238.763 9.33356ZM239.587 9.33356C239.587 10.0194 239.38 10.5687 238.9 10.9804C238.42 11.4613 237.871 11.6672 237.185 11.6672C236.567 11.6672 236.018 11.4613 235.537 10.9804C235.057 10.5687 234.851 10.0194 234.851 9.33356C234.851 8.71604 235.057 8.16678 235.537 7.68588C236.018 7.20586 236.567 7 237.185 7C237.871 7 238.42 7.20586 238.9 7.68588C239.38 8.16678 239.587 8.71604 239.587 9.33356ZM233.615 10.2253C233.615 10.0887 233.615 9.95113 233.547 9.88282C233.41 9.67697 233.204 9.60778 232.93 9.60778H232.38V10.7746H232.93C233.067 10.7746 233.204 10.7746 233.341 10.7063C233.547 10.637 233.615 10.4312 233.615 10.2253ZM233.341 8.37264C233.341 8.16678 233.273 8.02923 233.135 7.96092C233.067 7.89261 232.93 7.89261 232.792 7.89261H232.38V8.78435H232.792C232.93 8.78435 233.067 8.78435 233.204 8.71604C233.273 8.6468 233.341 8.51019 233.341 8.37264ZM234.44 10.2253C234.44 10.637 234.371 10.9121 234.096 11.118C233.821 11.4613 233.341 11.598 232.655 11.598H231.557V7.13749H232.655C233.135 7.13749 233.479 7.20586 233.753 7.34335C234.096 7.61752 234.234 7.89261 234.234 8.30433C234.234 8.51019 234.096 8.71604 233.959 8.85266C233.959 8.99021 233.821 9.05852 233.685 9.12776C233.959 9.19607 234.165 9.33356 234.302 9.53942C234.371 9.74527 234.44 9.95113 234.44 10.2253ZM231.077 7.89261H230.322V11.598H229.429V7.89261H228.606V7.13749H231.077V7.89261ZM228.468 8.37264H227.508C227.371 8.23509 227.233 8.09847 227.096 8.02923C226.89 7.89261 226.684 7.82337 226.41 7.82337C225.93 7.82337 225.586 7.96092 225.312 8.30433C225.037 8.57849 224.831 8.9219 224.831 9.33356C224.831 9.74527 225.037 10.157 225.312 10.4312C225.586 10.7746 225.998 10.9121 226.41 10.9121C226.616 10.9121 226.821 10.8429 226.959 10.7746C227.165 10.7063 227.301 10.5687 227.439 10.3628H228.468C228.262 10.7746 227.988 11.118 227.645 11.3238C227.301 11.598 226.821 11.6672 226.41 11.6672C225.655 11.6672 225.037 11.3921 224.625 10.9121C224.214 10.4312 224.008 9.95113 224.008 9.33356C224.008 8.78435 224.214 8.23509 224.625 7.82337C225.037 7.27417 225.655 7 226.41 7C226.821 7 227.301 7.13749 227.645 7.34335C227.988 7.61752 228.262 7.96092 228.468 8.37264ZM223.528 11.598H221.125V7.13749H223.528V7.89261H221.949V8.9219H223.458V9.74527H221.949V10.7746H223.528V11.598ZM220.645 12.4223H219.821V11.598H214.88V7.13749H215.703V10.7746H217.144V7.13749H217.969V10.7746H219.341V7.13749H220.164V10.7746H220.645V12.4223ZM213.439 10.2253C213.439 10.0887 213.439 9.95113 213.37 9.81364C213.233 9.67697 213.027 9.60778 212.822 9.60778H212.066V10.7746H212.822C213.027 10.7746 213.164 10.7063 213.302 10.637C213.37 10.5004 213.439 10.3628 213.439 10.2253ZM214.331 10.2253C214.331 10.637 214.193 10.9804 213.919 11.1863C213.645 11.4613 213.233 11.598 212.822 11.598H211.243V7.13749H213.919V7.89261H212.066V8.78435H212.822C213.302 8.78435 213.645 8.9219 213.919 9.19607C214.193 9.47111 214.331 9.81364 214.331 10.2253ZM209.801 9.33356C209.801 8.9219 209.664 8.57849 209.389 8.30433C209.115 7.96092 208.703 7.82337 208.291 7.82337C207.879 7.82337 207.468 7.96092 207.193 8.23509C206.919 8.57849 206.782 8.9219 206.782 9.33356C206.782 9.81364 206.919 10.157 207.193 10.4312C207.468 10.7746 207.879 10.9121 208.291 10.9121C208.703 10.9121 209.115 10.7746 209.389 10.4312C209.664 10.157 209.801 9.81364 209.801 9.33356ZM210.694 9.33356C210.694 10.0194 210.419 10.5687 210.007 10.9804C209.527 11.4613 208.978 11.6672 208.291 11.6672C207.605 11.6672 207.056 11.4613 206.644 10.9804C206.164 10.5687 205.958 10.0194 205.958 9.33356C205.958 8.71604 206.164 8.16678 206.644 7.68588C207.056 7.20586 207.605 7 208.291 7C208.978 7 209.527 7.20586 210.007 7.68588C210.419 8.16678 210.694 8.71604 210.694 9.33356ZM203.968 11.598H201.566V7.13749H203.968V7.89261H202.39V8.9219H203.899V9.74527H202.39V10.7746H203.968V11.598ZM200.124 9.33356C200.124 8.9219 199.988 8.57849 199.713 8.30433C199.438 7.96092 199.095 7.82337 198.615 7.82337C198.203 7.82337 197.791 7.96092 197.516 8.23509C197.242 8.57849 197.105 8.9219 197.105 9.33356C197.105 9.81364 197.242 10.157 197.516 10.4312C197.791 10.7746 198.203 10.9121 198.615 10.9121C199.027 10.9121 199.438 10.7746 199.713 10.4312C199.988 10.157 200.124 9.81364 200.124 9.33356ZM201.017 9.33356C201.017 10.0194 200.743 10.5687 200.331 10.9804C199.85 11.4613 199.301 11.6672 198.615 11.6672C197.928 11.6672 197.379 11.4613 196.899 10.9804C196.487 10.5687 196.212 10.0194 196.212 9.33356C196.212 8.71604 196.487 8.16678 196.899 7.68588C197.379 7.20586 197.928 7 198.615 7C199.301 7 199.85 7.20586 200.331 7.68588C200.743 8.16678 201.017 8.71604 201.017 9.33356ZM195.664 11.598H194.84V9.67697H193.194V11.598H192.369V7.13749H193.194V8.9219H194.84V7.13749H195.664V11.598ZM190.997 8.51019C190.997 8.23509 190.928 8.09847 190.722 8.02923C190.585 7.89261 190.447 7.89261 190.241 7.89261H189.761V9.05852H190.241C190.517 9.05852 190.722 9.05852 190.791 8.9219C190.928 8.78435 190.997 8.6468 190.997 8.51019ZM191.82 8.51019C191.82 8.85266 191.683 9.12776 191.477 9.40192C191.202 9.67697 190.791 9.88282 190.241 9.88282H189.761V11.598H188.938V7.13749H190.241C190.859 7.13749 191.271 7.27417 191.546 7.61752C191.752 7.89261 191.82 8.16678 191.82 8.51019ZM188.183 11.598H185.781V7.13749H188.183V7.89261H186.604V8.9219H188.115V9.74527H186.604V10.7746H188.183V11.598ZM184.958 11.598H184.133V9.67697H182.486V11.598H181.663V7.13749H182.486V8.9219H184.133V7.13749H184.958V11.598ZM180.222 9.33356C180.222 8.9219 180.084 8.57849 179.741 8.30433C179.467 7.96092 179.124 7.82337 178.644 7.82337C178.232 7.82337 177.888 7.96092 177.545 8.23509C177.271 8.57849 177.133 8.9219 177.133 9.33356C177.133 9.81364 177.271 10.157 177.545 10.4312C177.888 10.7746 178.232 10.9121 178.644 10.9121C179.124 10.9121 179.467 10.7746 179.741 10.4312C180.084 10.157 180.222 9.81364 180.222 9.33356ZM181.045 9.33356C181.045 10.0194 180.84 10.5687 180.36 10.9804C179.879 11.4613 179.329 11.6672 178.644 11.6672C178.026 11.6672 177.408 11.4613 176.996 10.9804C176.516 10.5687 176.31 10.0194 176.31 9.33356C176.31 8.71604 176.516 8.16678 176.996 7.68588C177.408 7.20586 178.026 7 178.644 7C179.329 7 179.879 7.20586 180.36 7.68588C180.84 8.16678 181.045 8.71604 181.045 9.33356ZM175.692 11.598H174.869V8.44095L172.879 11.598H172.054V7.13749H172.879V10.2253L174.869 7.13749H175.692V11.598ZM171.574 12.4223H170.751V11.598H167.8V7.13749H168.623V10.7746H170.271V7.13749H171.094V10.7746H171.574V12.4223ZM167.251 11.598H166.221L164.849 9.60778V11.598H164.025V7.13749H164.849V9.05852L166.221 7.13749H167.251L165.535 9.33356L167.251 11.598ZM161.897 9.60778L161.348 8.30433L160.868 9.60778H161.897ZM163.545 11.598H162.653L162.173 10.4312H160.525L160.045 11.598H159.152L161.006 7.13749H161.692L163.545 11.598ZM157.369 11.598H154.966V7.13749H157.369V7.89261H155.789V8.9219H157.299V9.74527H155.789V10.7746H157.369V11.598ZM153.525 9.33356C153.525 8.9219 153.387 8.57849 153.044 8.30433C152.77 7.96092 152.426 7.82337 152.015 7.82337C151.535 7.82337 151.191 7.96092 150.849 8.23509C150.574 8.57849 150.436 8.9219 150.436 9.33356C150.436 9.81364 150.574 10.157 150.917 10.4312C151.191 10.7746 151.535 10.9121 152.015 10.9121C152.426 10.9121 152.77 10.7746 153.044 10.4312C153.387 10.157 153.525 9.81364 153.525 9.33356ZM154.348 9.33356C154.348 10.0194 154.142 10.5687 153.662 10.9804C153.182 11.4613 152.632 11.6672 152.015 11.6672C151.329 11.6672 150.78 11.4613 150.3 10.9804C149.819 10.5687 149.613 10.0194 149.613 9.33356C149.613 8.71604 149.819 8.16678 150.3 7.68588C150.78 7.20586 151.329 7 152.015 7C152.632 7 153.182 7.20586 153.662 7.68588C154.142 8.16678 154.348 8.71604 154.348 9.33356ZM149.544 7.89261H148.72V11.598H147.897V7.89261H147.073V7.13749H149.544V7.89261ZM144.466 10.2253C144.466 10.0194 144.466 9.88282 144.329 9.81364C144.191 9.67697 144.054 9.60778 143.848 9.60778H143.162V10.7746H143.848C144.054 10.7746 144.191 10.7063 144.329 10.637C144.466 10.5004 144.466 10.3628 144.466 10.2253ZM145.358 10.2253C145.358 10.637 145.152 10.9804 144.877 11.1863C144.603 11.4613 144.26 11.598 143.848 11.598H142.338V7.13749H143.162V8.78435H143.848C144.329 8.78435 144.741 8.99021 145.015 9.26525C145.221 9.47111 145.358 9.81364 145.358 10.2253ZM146.593 11.598H145.77V7.13749H146.593V11.598ZM140.965 8.51019C140.965 8.23509 140.897 8.09847 140.691 8.02923C140.553 7.89261 140.417 7.89261 140.279 7.89261H139.799V9.05852H140.279C140.485 9.05852 140.691 9.05852 140.828 8.9219C140.897 8.78435 140.965 8.6468 140.965 8.51019ZM141.789 8.51019C141.789 8.85266 141.72 9.12776 141.514 9.40192C141.24 9.67697 140.759 9.88282 140.211 9.88282H139.799V11.598H138.907V7.13749H140.211C140.828 7.13749 141.24 7.27417 141.514 7.61752C141.72 7.89261 141.789 8.16678 141.789 8.51019ZM138.357 11.598H137.396L136.024 9.60778V11.598H135.132V7.13749H136.024V9.05852L137.396 7.13749H138.357L136.711 9.33356L138.357 11.598ZM134.72 7.89261H133.897V11.598H133.073V7.89261H132.25V7.13749H134.72V7.89261ZM131.357 9.33356C131.357 8.9219 131.22 8.57849 130.946 8.30433C130.602 7.96092 130.259 7.82337 129.779 7.82337C129.367 7.82337 129.024 7.96092 128.75 8.23509C128.406 8.57849 128.269 8.9219 128.269 9.33356C128.269 9.81364 128.406 10.157 128.75 10.4312C129.024 10.7746 129.367 10.9121 129.779 10.9121C130.259 10.9121 130.602 10.7746 130.946 10.4312C131.22 10.157 131.357 9.81364 131.357 9.33356ZM132.181 9.33356C132.181 10.0194 131.975 10.5687 131.495 10.9804C131.083 11.4613 130.465 11.6672 129.779 11.6672C129.161 11.6672 128.612 11.4613 128.132 10.9804C127.651 10.5687 127.445 10.0194 127.445 9.33356C127.445 8.71604 127.651 8.16678 128.132 7.68588C128.612 7.20586 129.161 7 129.779 7C130.465 7 131.083 7.20586 131.495 7.68588C131.975 8.16678 132.181 8.71604 132.181 9.33356Z" fill="white"/>
<path fill-rule="evenodd" clip-rule="evenodd" d="M236.98 14.6172C236.705 15.9216 236.43 16.4708 235.401 17.225C233.823 18.2543 230.597 18.1176 229.293 16.8133C228.744 16.3333 228.264 15.6465 228.195 14.6172H231.421C231.489 15.2348 231.764 15.5099 232.656 15.5099C233.411 15.5099 233.617 15.304 233.685 14.6172H236.98Z" fill="white"/>
</svg>
