<svg width="38" height="39" viewBox="0 0 38 39" fill="none" xmlns="http://www.w3.org/2000/svg">
<circle cx="19" cy="19.5" r="19" fill="#00983D"/>
<path d="M26.459 16.41C26.4238 15.613 26.2949 15.0651 26.1103 14.5903C25.9198 14.0863 25.6268 13.6351 25.2429 13.26C24.8678 12.8791 24.4136 12.5831 23.9155 12.3956C23.4379 12.211 22.8929 12.0821 22.0959 12.0469C21.2929 12.0088 21.038 12 19.0015 12C16.9649 12 16.71 12.0088 15.91 12.044C15.113 12.0791 14.5651 12.2081 14.0904 12.3926C13.5863 12.5831 13.1351 12.8761 12.76 13.26C12.3791 13.6351 12.0832 14.0893 11.8956 14.5874C11.711 15.0651 11.5821 15.6101 11.5469 16.4071C11.5088 17.21 11.5 17.4649 11.5 19.5015C11.5 21.538 11.5088 21.7929 11.544 22.5929C11.5791 23.3899 11.7081 23.9378 11.8927 24.4126C12.0832 24.9166 12.3791 25.3678 12.76 25.7429C13.1351 26.1239 13.5893 26.4199 14.0874 26.6073C14.5651 26.792 15.1101 26.9209 15.9072 26.956C16.707 26.9913 16.9621 27 18.9986 27C21.0351 27 21.29 26.9913 22.09 26.956C22.887 26.9209 23.435 26.792 23.9096 26.6073C24.9177 26.2176 25.7147 25.4206 26.1045 24.4126C26.289 23.935 26.418 23.3899 26.4531 22.5929C26.4883 21.7929 26.4971 21.538 26.4971 19.5015C26.4971 17.4649 26.4941 17.21 26.459 16.41ZM25.1082 22.5343C25.0759 23.2668 24.9529 23.6624 24.8503 23.9262C24.5983 24.5796 24.0796 25.0983 23.4262 25.3503C23.1624 25.4529 22.764 25.5759 22.0343 25.6081C21.2431 25.6433 21.0058 25.652 19.0044 25.652C17.003 25.652 16.7628 25.6433 15.9745 25.6081C15.2419 25.5759 14.8463 25.4529 14.5826 25.3503C14.2574 25.2301 13.9614 25.0397 13.7212 24.7906C13.4721 24.5474 13.2816 24.2543 13.1614 23.9291C13.0589 23.6654 12.9358 23.2668 12.9037 22.5373C12.8684 21.7461 12.8597 21.5087 12.8597 19.5073C12.8597 17.5059 12.8684 17.2657 12.9037 16.4775C12.9358 15.7449 13.0589 15.3493 13.1614 15.0856C13.2816 14.7603 13.4721 14.4644 13.7241 14.224C13.9673 13.9749 14.2603 13.7845 14.5856 13.6644C14.8493 13.5619 15.2479 13.4388 15.9775 13.4065C16.7686 13.3714 17.006 13.3626 19.0073 13.3626C21.0117 13.3626 21.2489 13.3714 22.0373 13.4065C22.7698 13.4388 23.1654 13.5619 23.4291 13.6644C23.7543 13.7845 24.0503 13.9749 24.2906 14.224C24.5396 14.4673 24.7301 14.7603 24.8503 15.0856C24.9529 15.3493 25.0759 15.7478 25.1082 16.4775C25.1433 17.2686 25.1521 17.5059 25.1521 19.5073C25.1521 21.5087 25.1433 21.7431 25.1082 22.5343Z" fill="white"/>
<path d="M19.0037 15.6482C16.8764 15.6482 15.1504 17.3741 15.1504 19.5015C15.1504 21.6289 16.8764 23.3548 19.0037 23.3548C21.1311 23.3548 22.857 21.6289 22.857 19.5015C22.857 17.3741 21.1311 15.6482 19.0037 15.6482ZM19.0037 22.001C17.6236 22.001 16.5041 20.8817 16.5041 19.5015C16.5041 18.1213 17.6236 17.0019 19.0037 17.0019C20.3839 17.0019 21.5032 18.1213 21.5032 19.5015C21.5032 20.8817 20.3839 22.001 19.0037 22.001Z" fill="white"/>
<path d="M23.9086 15.4958C23.9086 15.9926 23.5058 16.3954 23.0089 16.3954C22.5122 16.3954 22.1094 15.9926 22.1094 15.4958C22.1094 14.9989 22.5122 14.5963 23.0089 14.5963C23.5058 14.5963 23.9086 14.9989 23.9086 15.4958Z" fill="white"/>
</svg>
