<svg width="43" height="46" viewBox="0 0 43 46" fill="none" xmlns="http://www.w3.org/2000/svg">
<path d="M6.5289 44.2729L1 36.1406C1 36.1406 10.0448 28.8672 16.0568 28.8672C22.0689 28.8672 29.3155 31.9537 28.6713 33.5909C27.9379 35.4549 26.5242 36.0601 22.7398 34.9866C18.9555 33.913 17.0446 33.4673 16.4326 34.6913C15.6811 36.1943 22.7398 39.3345 25.7727 39.3345C29.6733 39.3345 35.3543 34.4766 37.2867 34.4766C39.2192 34.4766 40.8027 36.2122 36.4726 39.7192C32.7629 42.7238 29.7717 45.2928 23.8671 45.2928C17.9624 45.2928 15.9227 43.1725 12.031 43.1725C8.13925 43.1725 6.5289 44.2729 6.5289 44.2729Z" stroke="#007B35" stroke-miterlimit="10" stroke-linecap="round" stroke-linejoin="round"/>
<path d="M40.4536 28.8699C41.6174 26.3621 42.2658 23.5708 42.2658 20.6292C42.2658 9.79041 33.4797 1 22.6409 1C11.7978 1 3.01172 9.79041 3.01172 20.6292C3.01172 23.5708 3.66016 26.3621 4.82391 28.8699" stroke="#007B35" stroke-miterlimit="10" stroke-linecap="round" stroke-linejoin="round"/>
<path d="M3.01172 20.6289H42.2687" stroke="#007B35" stroke-miterlimit="10" stroke-linecap="round" stroke-linejoin="round"/>
<path d="M22.6406 24.216V1" stroke="#007B35" stroke-miterlimit="10" stroke-linecap="round" stroke-linejoin="round"/>
<path d="M35.929 6.1875C32.4378 9.40402 27.7698 11.3706 22.6425 11.3706C17.5107 11.3706 12.8472 9.40402 9.35156 6.1875" stroke="#007B35" stroke-miterlimit="10" stroke-linecap="round" stroke-linejoin="round"/>
<path d="M12.9034 24.3953C12.7832 23.1757 12.7188 21.9132 12.7188 20.6249C12.7188 9.78612 17.1633 1 22.6429 1C28.1224 1 32.5627 9.78611 32.5627 20.6249C32.5627 23.6738 32.2105 26.5639 31.5836 29.1362" stroke="#007B35" stroke-miterlimit="10" stroke-linecap="round" stroke-linejoin="round"/>
</svg>
