<svg width="50" height="46" viewBox="0 0 50 46" fill="none" xmlns="http://www.w3.org/2000/svg">
<path d="M42.4951 27.6641H24.8555V45.3037H42.4951V27.6641Z" stroke="#007B35" stroke-miterlimit="10" stroke-linecap="round" stroke-linejoin="round"/>
<path d="M42.4938 27.6633L48.5839 18.8164H30.9442L24.7305 27.406" stroke="#007B35" stroke-miterlimit="10" stroke-linecap="round" stroke-linejoin="round"/>
<path d="M7.09081 45.3047L24.7305 45.3047L24.7305 27.665L7.09081 27.665L7.09081 45.3047Z" stroke="#007B35" stroke-miterlimit="10" stroke-linecap="round" stroke-linejoin="round"/>
<path d="M7.0901 27.6633L1 18.8164H18.6397L24.8534 27.406" stroke="#007B35" stroke-miterlimit="10" stroke-linecap="round" stroke-linejoin="round"/>
<path d="M34.5375 12.5689C28.9449 18.1615 23.2384 16.3804 23.2384 16.3804C23.2384 16.3804 21.4573 10.6739 27.0499 5.08128C32.6426 -0.511342 38.3492 1.26962 38.3492 1.26962C38.3492 1.26962 40.1302 6.97624 34.5375 12.5689Z" stroke="#007B35" stroke-miterlimit="10" stroke-linecap="round" stroke-linejoin="round"/>
<path d="M38.3491 1.26953L23.2383 16.3803" stroke="#007B35" stroke-miterlimit="10" stroke-linecap="round" stroke-linejoin="round"/>
<path d="M23.9375 15.6789L25.6723 13.9441C28.1048 11.5116 31.74 11.004 34.6693 12.4293" stroke="#007B35" stroke-miterlimit="10" stroke-linecap="round" stroke-linejoin="round"/>
<path d="M27.7891 11.8298L29.5239 10.095C31.7093 7.90957 32.3392 4.76034 31.4134 2.01562" stroke="#007B35" stroke-miterlimit="10" stroke-linecap="round" stroke-linejoin="round"/>
<path d="M23.2393 16.3828C23.2393 16.3828 23.8198 16.5643 24.7913 16.6286C22.7193 16.7698 18.8535 16.3828 15.0402 12.5695C14.9959 12.525 14.9475 12.4768 14.9071 12.4325C9.47746 6.88574 11.231 1.27049 11.231 1.27049C11.231 1.27049 14.3107 0.307225 18.1642 2.01627V2.0204C19.555 2.63312 21.0465 3.60052 22.5298 5.0838C23.4812 6.03526 24.2188 6.99065 24.7913 7.92164C23.6222 9.82436 23.1628 11.6222 23.0217 13.0653C23.0175 13.1056 23.0136 13.1419 23.0136 13.1822C22.8443 15.1131 23.2393 16.3828 23.2393 16.3828Z" stroke="#007B35" stroke-miterlimit="10" stroke-linecap="round" stroke-linejoin="round"/>
<path d="M11.2305 1.26953L19.9858 10.0249C20.006 10.049 20.0301 10.0732 20.0543 10.0974L21.7917 11.8308L23.0211 13.0642" stroke="#007B35" stroke-miterlimit="10" stroke-linecap="round" stroke-linejoin="round"/>
<path d="M14.9062 12.4344C17.4982 11.1727 20.6383 11.4226 23.0126 13.1841" stroke="#007B35" stroke-miterlimit="10" stroke-linecap="round" stroke-linejoin="round"/>
<path d="M18.1671 2.01953C17.2413 4.76425 17.8712 7.91348 20.0566 10.0989L21.7914 11.8337" stroke="#007B35" stroke-miterlimit="10" stroke-linecap="round" stroke-linejoin="round"/>
</svg>
